SplineFontDB: 3.2
FontName: SwordsII-Italic
FullName: Swords II Italic
FamilyName: Swords II
Weight: Regular
Copyright: Copyright (c) 2018-2023, Thane Brimhall & Matthew Wills
UComments: "Read Swords Comic! https://swordscomic.com"
FontLog: "0.4 - Add several glyphs for use in Cut the Deck. Move all specialized glyphs to the +ACIA-Supplementary Private Use Area-A+ACIA unicode block.+AAoA-0.3 - Made more glyphs use references. Improve readability of certain glyphs by manually fixing tangents and weights. Redid the entire section of Roman Numerals to be more compact. Added some emoji symbols for use in games.+AAoA-0.2 - Made all glyphs more bold. Improved line height and kerning. Added some Cyrillic and Greek glyphs as well as glyphs with various diacritics. Added Dagger (+ICAA) and Crossed Swords (+JpT+DwAA) because, this is Swords of course. Simplified the $ and % symbols, because the sword versions were simply too much. The old dollar with sword symbol can be found at the generic currency symbol (+AKQA).+AAoA-0.1 - Initial font creation."
Version: 004.000
ItalicAngle: 6
UnderlinePosition: -128
UnderlineWidth: 117
Ascent: 960
Descent: 64
InvalidEm: 0
sfntRevision: 0x00040000
LayerCount: 2
Layer: 0 1 "Back" 1
Layer: 1 1 "Fore" 0
XUID: [1021 237 -1010517986 27960]
StyleMap: 0x0000
FSType: 0
OS2Version: 4
OS2_WeightWidthSlopeOnly: 0
OS2_UseTypoMetrics: 1
CreationTime: 1534776967
ModificationTime: 1689204120
PfmFamily: 33
TTFWeight: 400
TTFWidth: 5
LineGap: 94
VLineGap: 0
Panose: 2 0 5 3 0 0 0 0 0 0
OS2TypoAscent: 960
OS2TypoAOffset: 0
OS2TypoDescent: -64
OS2TypoDOffset: 0
OS2TypoLinegap: 94
OS2WinAscent: 960
OS2WinAOffset: 0
OS2WinDescent: 64
OS2WinDOffset: 0
HheadAscent: 960
HheadAOffset: 0
HheadDescent: -64
HheadDOffset: 0
OS2CapHeight: 960
OS2XHeight: 960
OS2Vendor: 'PfEd'
OS2CodePages: 00000001.00000000
OS2UnicodeRanges: 80000007.00000002.00000000.00000000
MarkAttachClasses: 1
DEI: 91125
ShortTable: cvt  2
  34
  648
EndShort
ShortTable: maxp 16
  1
  0
  116

StartChar: .notdef
Encoding: 1114112 -1 0
Width: 324
VWidth: 1075
GlyphClass: 1
Flags: MW
LayerCount: 2
Fore
SplineSet
32.400390625 0 m 1,0,-1
 32.400390625 720.900390625 l 1,1,-1
 292.5 720.900390625 l 1,2,-1
 292.5 0 l 1,3,-1
 32.400390625 0 l 1,0,-1
65.7001953125 35.099609375 m 1,4,-1
 261 35.099609375 l 1,5,-1
 261 684 l 1,6,-1
 65.7001953125 684 l 1,7,-1
 65.7001953125 35.099609375 l 1,4,-1
EndSplineSet
Validated: 1
EndChar

StartChar: exclam
Encoding: 33 33 4
Width: 273
VWidth: 1075
GlyphClass: 1
Flags: MW
LayerCount: 2
Fore
SplineSet
426 843 m 0,0,1
 431 835 431 835 430.5 819.5 c 128,-1,2
 430 804 430 804 425.5 785 c 128,-1,3
 421 766 421 766 417 752 c 0,4,5
 406 712 406 712 315 426 c 0,6,7
 281 320 281 320 259 266 c 128,-1,8
 237 212 237 212 221 194 c 0,9,10
 190 161 190 161 174 154 c 0,11,12
 169 152 169 152 165 152 c 0,13,14
 153 152 153 152 136 169 c 0,15,16
 121 184 121 184 123 212 c 0,17,18
 124 228 124 228 130 256 c 0,19,20
 164 405 164 405 235 618 c 0,21,22
 297 806 297 806 315 835 c 0,23,24
 336 867 336 867 372 869 c 2,25,-1
 374 869 l 2,26,27
 376 869 376 869 378 869 c 0,28,29
 410 869 410 869 426 843 c 0,0,1
207 -8 m 0,30,31
 198 -48 198 -48 158 -80 c 5,32,-1
 158 -81 l 1,33,34
 121 -109 121 -109 95 -109 c 0,35,36
 94 -109 94 -109 93 -109 c 0,37,38
 64 -109 64 -109 43 -74 c 0,39,40
 21 -37 21 -37 29 -1 c 0,41,42
 40 46 40 46 94 75 c 0,43,44
 123 90 123 90 147 90 c 0,45,46
 178 90 178 90 197 58 c 1,47,-1
 198 58 l 1,48,49
 215 26 215 26 207 -8 c 0,30,31
EndSplineSet
Validated: 33
EndChar

StartChar: quotedbl
Encoding: 34 34 5
Width: 286
VWidth: 1075
GlyphClass: 1
Flags: MW
LayerCount: 2
Fore
SplineSet
189 691 m 0,0,1
 212 790 212 790 225 822 c 0,2,3
 241 861 241 861 265 864 c 0,4,5
 274 865 274 865 278 864 c 0,6,7
 299 859 299 859 301 818 c 0,8,9
 303 776 303 776 283 688 c 0,10,11
 269 629 269 629 261 606.5 c 128,-1,12
 253 584 253 584 238 572 c 0,13,14
 217 553 217 553 202 553 c 0,15,16
 186 552 186 552 177 580 c 0,17,18
 173 591 173 591 175.5 617 c 128,-1,19
 178 643 178 643 189 691 c 0,0,1
409 865 m 0,20,21
 432 865 432 865 435 837 c 0,22,23
 440 812 440 812 422 714 c 0,24,25
 416 686 416 686 410 660 c 0,26,27
 398 609 398 609 387 590 c 0,28,29
 368 560 368 560 341 561 c 0,30,31
 305 561 305 561 303 596 c 0,32,33
 300 621 300 621 316 692 c 0,34,35
 337 784 337 784 356 817 c 0,36,37
 367 839 367 839 382 852 c 128,-1,38
 397 865 397 865 409 865 c 0,20,21
EndSplineSet
Validated: 33
EndChar

StartChar: numbersign
Encoding: 35 35 6
Width: 683
VWidth: 1075
GlyphClass: 1
Flags: W
LayerCount: 2
Fore
SplineSet
419 621 m 1,0,1
 442 626 442 626 523 645 c 1,2,-1
 533 689 l 2,3,4
 540 721 540 721 549 740 c 0,5,6
 558 760 558 760 576 775 c 0,7,8
 594 791 594 791 607 791 c 0,9,10
 621 791 621 791 629 777 c 0,11,12
 638 762 638 762 636 724 c 0,13,14
 634 685 634 685 636 677 c 1,15,16
 655 684 655 684 702 688 c 0,17,18
 751 691 751 691 752 691 c 0,19,20
 759 691 759 691 765 690 c 0,21,22
 783 688 783 688 791 677 c 0,23,24
 806 658 806 658 799 630 c 0,25,26
 793 604 793 604 776 589 c 0,27,28
 751 565 751 565 662 551 c 0,29,30
 626 545 626 545 619 537 c 0,31,32
 611 529 611 529 610 526 c 0,33,34
 609 522 609 522 609 518 c 0,35,36
 606 505 606 505 605 497 c 2,37,-1
 602 463 l 1,38,-1
 646 458 l 2,39,40
 690 454 690 454 692 452 c 0,41,42
 705 448 705 448 714 428 c 1,43,44
 720 404 720 404 717.5 392 c 128,-1,45
 715 380 715 380 707 368 c 0,46,47
 693 346 693 346 673 339 c 0,48,49
 659 333 659 333 610 326 c 2,50,-1
 575 320 l 1,51,52
 561 246 561 246 553 217 c 0,53,54
 536 143 536 143 495 122 c 0,55,56
 484 117 484 117 473 117 c 0,57,58
 462 116 462 116 448 130 c 0,59,60
 433 146 433 146 435 165 c 0,61,62
 436 174 436 174 448 239 c 2,63,-1
 460 305 l 1,64,-1
 432 302 l 2,65,66
 414 301 414 301 378 293 c 0,67,68
 364 290 364 290 340 286 c 1,69,-1
 328 236 l 2,70,71
 320 200 320 200 312 180 c 0,72,73
 304 162 304 162 292 148 c 1,74,75
 269 130 269 130 253 130 c 0,76,77
 224 130 224 130 225 165 c 0,78,79
 227 214 227 214 232 234 c 2,80,-1
 242 277 l 1,81,-1
 209 277 l 2,82,83
 167 277 167 277 131 311 c 25,84,85
 124 327 124 327 136 341 c 1,86,87
 182 377 182 377 223 387 c 0,88,89
 238 390 238 390 267 400 c 1,90,91
 272 406 272 406 278 436 c 2,92,-1
 285 467 l 1,93,-1
 224 467 l 2,94,95
 171 467 171 467 159 470 c 0,96,97
 139 475 139 475 146 506 c 0,98,99
 157 556 157 556 264 581 c 1,100,-1
 312 595 l 1,101,-1
 331 666 l 2,102,103
 341 705 341 705 355 735 c 0,104,105
 364 757 364 757 390 771 c 0,106,107
 400 777 400 777 403 777 c 0,108,109
 421 777 421 777 428 759 c 0,110,111
 435 741 435 741 427 688 c 0,112,113
 419 634 419 634 419 621 c 1,0,1
372 418 m 1,114,115
 453 436 453 436 484 443 c 1,116,117
 486 452 486 452 487.5 460.5 c 128,-1,118
 489 469 489 469 492 477 c 0,119,120
 493 477 493 477 495.5 488 c 128,-1,121
 498 499 498 499 499 508 c 1,122,123
 459 500 459 500 438 494 c 2,124,-1
 385 481 l 1,125,-1
 377 447 l 2,126,127
 373 428 373 428 372 418 c 1,114,115
EndSplineSet
Validated: 33
EndChar

StartChar: dollar
Encoding: 36 36 7
Width: 504
VWidth: 967
GlyphClass: 1
Flags: W
LayerCount: 2
Fore
SplineSet
225 189 m 1,0,1
 237 222 237 222 242 249 c 0,2,3
 242 249 242 249 255 318 c 1,4,5
 255 318 255 318 238 321 c 0,6,7
 202 330 202 330 175 364 c 0,8,9
 151 393 151 393 142 434 c 0,10,11
 136 464 136 464 141 482 c 0,12,13
 145 500 145 500 156 527 c 0,14,15
 173 565 173 565 213 601 c 0,16,17
 231 617 231 617 295 647 c 0,18,19
 312 655 312 655 330 669 c 1,20,21
 328 669 328 669 348 751 c 0,22,23
 367 827 367 827 421 827 c 0,24,25
 449 827 449 827 463 792 c 0,26,27
 466 785 466 785 437 678 c 0,28,29
 434 667 434 667 435 666 c 1,30,31
 436 665 436 665 441 660 c 0,32,33
 453 649 453 649 464 645 c 0,34,35
 509 630 509 630 529 590 c 0,36,37
 549 550 549 550 540 506 c 0,38,39
 531 469 531 469 522 456 c 0,40,41
 513 443 513 443 503 443 c 0,42,43
 495 443 495 443 488 451 c 0,44,45
 482 459 482 459 477 473 c 0,46,47
 467 506 467 506 452 521 c 0,48,49
 432 541 432 541 421 546 c 1,50,51
 410 517 410 517 390 430 c 1,52,53
 460 430 460 430 488 410 c 0,54,55
 517 390 517 390 529 355 c 0,56,57
 545 303 545 303 536 262 c 0,58,59
 524 212 524 212 504 186 c 0,60,61
 493 172 493 172 442 120 c 0,62,63
 414 91 414 91 349 79 c 0,64,65
 337 77 337 77 330 76 c 1,66,67
 320 65 320 65 290 2 c 0,68,69
 262 -59 262 -59 243 -57 c 0,70,71
 231 -56 231 -56 221 -40 c 0,72,73
 214 -29 214 -29 213 39 c 0,74,75
 212 80 212 80 210 89 c 1,76,77
 205 91 205 91 199 93 c 0,78,79
 168 103 168 103 146 133 c 0,80,81
 111 180 111 180 108 196 c 0,82,83
 102 228 102 228 111 268 c 0,84,85
 117 294 117 294 134 310 c 0,86,87
 143 320 143 320 152 320 c 0,88,89
 153 320 153 320 157 319 c 0,90,91
 164 316 164 316 169 298 c 0,92,93
 191 210 191 210 225 189 c 1,0,1
249 458 m 0,94,95
 267 433 267 433 278 429 c 1,96,97
 284 438 284 438 290 464 c 0,98,99
 305 530 305 530 297 549 c 1,100,101
 283 547 283 547 261 528 c 0,102,103
 235 504 235 504 232 495 c 0,104,105
 230 485 230 485 249 458 c 0,94,95
431 281 m 0,106,107
 419 306 419 306 391 310 c 0,108,-1
 373 313 l 1,109,-1
 370 274 l 24,110,111
 370 274 370 274 358 194 c 1,112,113
 372 194 372 194 386 202 c 0,114,115
 395 206 395 206 407 217 c 0,116,117
 425 233 425 233 428 238 c 0,118,119
 436 248 436 248 437 254 c 0,120,121
 439 261 439 261 431 281 c 0,106,107
EndSplineSet
Validated: 33
EndChar

StartChar: percent
Encoding: 37 37 8
Width: 641
VWidth: 1075
GlyphClass: 1
Flags: W
LayerCount: 2
Fore
SplineSet
537 604 m 0,0,1
 633 696 633 696 666 696 c 0,2,3
 677 696 677 696 681 687 c 0,4,5
 694 662 694 662 686 629 c 0,6,7
 674 578 674 578 612 508 c 1,8,-1
 611 507 l 1,9,10
 594 485 594 485 407 300 c 0,11,12
 363 256 363 256 330 219 c 0,13,14
 316 204 316 204 287 181 c 0,15,16
 256 157 256 157 233 142 c 0,17,18
 178 109 178 109 162 101 c 128,-1,19
 146 93 146 93 137 93 c 128,-1,20
 128 93 128 93 124 100 c 128,-1,21
 120 107 120 107 123 119 c 0,22,23
 127 136 127 136 149 173 c 0,24,25
 176 217 176 217 223 276 c 0,26,27
 303 375 303 375 537 604 c 0,0,1
127 514 m 0,28,29
 130 528 130 528 136 542 c 0,30,31
 156 598 156 598 186 627 c 0,32,33
 216 657 216 657 259 657 c 0,34,35
 303 657 303 657 328 626 c 0,36,37
 350 601 350 601 350 548 c 0,38,39
 350 539 350 539 348 529 c 0,40,41
 341 498 341 498 314 471 c 0,42,43
 282 439 282 439 238 423 c 0,44,45
 221 417 221 417 200 416 c 0,46,47
 184 416 184 416 163 426 c 0,48,49
 132 440 132 440 125 468 c 0,50,51
 122 484 122 484 127 514 c 0,28,29
216 528 m 0,52,53
 220 518 220 518 234 518 c 0,54,55
 242 518 242 518 248 521 c 0,56,57
 255 525 255 525 258 532 c 0,58,59
 262 539 262 539 264 546 c 0,60,61
 265 552 265 552 262 560 c 0,62,63
 257 572 257 572 246 572 c 2,64,-1
 245 572 l 1,65,-1
 244 572 l 2,66,67
 236 572 236 572 231 567 c 0,68,69
 226 563 226 563 222 555 c 0,70,71
 213 539 213 539 216 528 c 0,52,53
590 338 m 128,-1,73
 620 338 620 338 638 323 c 0,74,75
 681 291 681 291 666 227 c 0,76,77
 661 206 661 206 651 184 c 0,78,79
 626 127 626 127 574 100 c 0,80,81
 542 83 542 83 507 82 c 0,82,83
 487 82 487 82 469 88 c 0,84,85
 457 92 457 92 441.5 103.5 c 128,-1,86
 426 115 426 115 417 132 c 0,87,88
 403 158 403 158 410 189 c 0,89,90
 412 196 412 196 414 204 c 0,91,92
 428 240 428 240 458 272 c 0,93,94
 486 303 486 303 526 321 c 0,95,72
 560 338 560 338 590 338 c 128,-1,73
513 179 m 0,96,97
 523 166 523 166 532 166 c 0,98,99
 544 166 544 166 555 186 c 0,100,101
 563 200 563 200 566 212 c 0,102,103
 568 220 568 220 566 228 c 0,104,105
 562 238 562 238 554 238 c 0,106,107
 540 238 540 238 525 224 c 0,108,109
 504 204 504 204 502 197 c 0,110,111
 501 193 501 193 513 179 c 0,96,97
EndSplineSet
Validated: 33
EndChar

StartChar: ampersand
Encoding: 38 38 9
Width: 593
VWidth: 1075
GlyphClass: 1
Flags: MW
LayerCount: 2
Fore
SplineSet
556 593 m 0,0,1
 549 564 549 564 524 548 c 0,2,3
 510 543 510 543 506 542 c 0,4,5
 499 542 499 542 494 545 c 0,6,7
 483 550 483 550 464 576 c 0,8,9
 444 604 444 604 426 604 c 1,10,-1
 425 603 l 1,11,12
 408 603 408 603 371 585 c 1,13,-1
 371 584 l 1,14,15
 317 560 317 560 308 518 c 0,16,17
 306 507 306 507 306 494 c 0,18,19
 306 487 306 487 314.5 464.5 c 128,-1,20
 323 442 323 442 347 399 c 0,21,22
 388 321 388 321 409 302 c 0,23,24
 414 297 414 297 417 295 c 1,25,26
 428 309 428 309 458 368 c 0,27,28
 472 394 472 394 481.5 412 c 128,-1,29
 491 430 491 430 501 439.5 c 128,-1,30
 511 449 511 449 521 449 c 128,-1,31
 531 449 531 449 540 439 c 0,32,33
 554 425 554 425 544 382 c 0,34,35
 531 325 531 325 499 270 c 0,36,37
 480 237 480 237 473 221 c 1,38,39
 482 206 482 206 518 165 c 0,40,41
 566 103 566 103 573 78 c 0,42,43
 578 57 578 57 577 49 c 0,44,45
 575 39 575 39 561 22 c 1,46,47
 545 8 545 8 527 7 c 2,48,-1
 526 7 l 2,49,50
 508 7 508 7 485 21 c 0,51,52
 440 44 440 44 380 106 c 1,53,54
 375 104 375 104 366 96 c 0,55,56
 336 70 336 70 279.5 37.5 c 128,-1,57
 223 5 223 5 192 -3 c 0,58,59
 173 -7 173 -7 157.5 -7 c 128,-1,60
 142 -7 142 -7 131 -4 c 0,61,62
 81 13 81 13 66.5 54.5 c 128,-1,63
 52 96 52 96 68 166 c 0,64,65
 91 264 91 264 177 341 c 2,66,-1
 216 376 l 1,67,-1
 213 409 l 2,68,69
 205 467 205 467 214 510 c 0,70,71
 221 541 221 541 238 572 c 0,72,73
 257 612 257 612 283 637.5 c 128,-1,74
 309 663 309 663 354 685 c 0,75,76
 406 713 406 713 454 714 c 0,77,78
 513 714 513 714 544 662 c 0,79,80
 564 628 564 628 556 593 c 0,0,1
178 99 m 0,81,82
 199 99 199 99 233 117 c 0,83,84
 269 136 269 136 300 159 c 2,85,-1
 323 178 l 1,86,-1
 289 230 l 1,87,-1
 255 286 l 1,88,-1
 231 271 l 2,89,90
 168 227 168 227 153 163 c 0,91,92
 142 115 142 115 161 103 c 0,93,94
 168 99 168 99 178 99 c 0,81,82
EndSplineSet
Validated: 33
EndChar

StartChar: quotesingle
Encoding: 39 39 10
Width: 157
VWidth: 1075
GlyphClass: 1
Flags: MW
LayerCount: 2
Fore
SplineSet
168 557 m 0,0,1
 164 578 164 578 191 701 c 0,2,3
 210 785 210 785 220 811 c 128,-1,4
 230 837 230 837 246.5 851.5 c 128,-1,5
 263 866 263 866 272 868 c 0,6,7
 275 869 275 869 276 869 c 0,8,9
 284 869 284 869 294 860 c 0,10,11
 310 846 310 846 306 799.5 c 128,-1,12
 302 753 302 753 281 659 c 0,13,14
 280 654 280 654 279 649 c 0,15,16
 263 580 263 580 245 558 c 0,17,18
 226 532 226 532 199.5 532 c 128,-1,19
 173 532 173 532 168 557 c 0,0,1
EndSplineSet
Validated: 33
EndChar

StartChar: parenleft
Encoding: 40 40 11
Width: 422
VWidth: 1075
GlyphClass: 1
Flags: MW
LayerCount: 2
Fore
SplineSet
241 356 m 2,0,1
 227 296 227 296 229 237 c 0,2,3
 234 138 234 138 250 110 c 0,4,5
 289 42 289 42 324 24 c 0,6,7
 375 -2 375 -2 378 -22 c 0,8,9
 379 -28 379 -28 376 -41 c 2,10,-1
 376 -43 l 2,11,12
 370 -69 370 -69 347 -92 c 0,13,14
 318 -120 318 -120 284 -120 c 0,15,16
 241 -120 241 -120 195 -85 c 0,17,18
 151 -51 151 -51 121 19 c 128,-1,19
 91 89 91 89 88 164 c 0,20,21
 85 231 85 231 104 314 c 0,22,23
 123 396 123 396 166 500 c 0,24,25
 191 561 191 561 248 638 c 0,26,27
 305 716 305 716 382 793 c 0,28,29
 425 836 425 836 448 850 c 0,30,31
 472 864 472 864 491 862 c 0,32,33
 494 862 494 862 495 862 c 0,34,35
 513 860 513 860 521 850 c 0,36,37
 530 840 530 840 525 817 c 2,38,-1
 525 816 l 2,39,40
 516 775 516 775 451 705 c 1,41,42
 279 473 279 473 241 358 c 1,43,-1
 241 357 l 1,44,-1
 241 356 l 2,0,1
EndSplineSet
Validated: 33
EndChar

StartChar: parenright
Encoding: 41 41 12
Width: 413
VWidth: 1075
GlyphClass: 1
Flags: MW
LayerCount: 2
Fore
SplineSet
63 -39 m 4,0,1
 66 -26 66 -26 73 -13 c 4,2,3
 108 54 108 54 163 84 c 5,4,5
 256 170 256 170 277 220 c 4,6,7
 294 260 294 260 306 312 c 4,8,9
 314 348 314 348 322 393 c 4,10,11
 340 503 340 503 327 574 c 4,12,13
 326 586 326 586 252 698 c 4,14,15
 231 729 231 729 225 753 c 4,16,17
 219 774 219 774 224 789 c 4,18,19
 241 846 241 846 280 858 c 4,20,21
 295 863 295 863 338 836 c 5,22,23
 338 836 338 836 338 836 c 4,24,25
 399 803 399 803 429 757 c 4,26,27
 458 712 458 712 473 628 c 4,28,29
 483 572 483 572 479 522 c 4,30,31
 476 476 476 476 458 379 c 4,32,33
 446 314 446 314 444 310 c 4,34,35
 395 136 395 136 354 79 c 4,36,37
 318 28 318 28 254 -29 c 5,38,39
 164 -102 164 -102 119 -112 c 4,40,41
 110 -115 110 -115 102 -115 c 4,42,43
 75 -114 75 -114 65 -79 c 4,44,45
 58 -59 58 -59 63 -39 c 4,0,1
EndSplineSet
Validated: 33
EndChar

StartChar: asterisk
Encoding: 42 42 13
Width: 356
VWidth: 1075
GlyphClass: 1
Flags: MW
LayerCount: 2
Fore
SplineSet
191 501 m 0,0,1
 181 499 181 499 181 499 c 2,2,-1
 180 499 l 2,3,4
 173 499 173 499 165 506 c 2,5,-1
 160 509 l 1,6,-1
 161 512 l 1,7,8
 157 522 157 522 161 536 c 0,9,10
 168 567 168 567 220 618 c 2,11,-1
 259 656 l 1,12,-1
 233 696 l 2,13,14
 207 735 207 735 206 747 c 128,-1,15
 205 759 205 759 207 768 c 0,16,17
 211 786 211 786 228 796 c 0,18,19
 239 802 239 802 249 802 c 0,20,21
 260 802 260 802 272 796 c 0,22,23
 292 783 292 783 307 764 c 2,24,-1
 313 757 l 1,25,26
 322 794 322 794 338 837 c 0,27,28
 345 857 345 857 351 864 c 0,29,30
 368 884 368 884 389 884 c 0,31,32
 394 884 394 884 398 883 c 0,33,34
 418 879 418 879 418 859 c 0,35,36
 417 823 417 823 409 779 c 2,37,38
 409 778 409 778 406 760 c 1,39,-1
 422 771 l 2,40,41
 461 798 461 798 480 798 c 0,42,43
 500 798 500 798 503 780 c 0,44,45
 505 770 505 770 502 757 c 128,-1,46
 499 744 499 744 487 727 c 0,47,48
 471 704 471 704 434 677 c 2,49,50
 434 676 434 676 402 652 c 1,51,-1
 419 622 l 2,52,53
 443 580 443 580 436 550 c 0,54,55
 431 528 431 528 416 518 c 0,56,57
 404 510 404 510 388 510 c 0,58,59
 374 510 374 510 363 518 c 0,60,61
 361 520 361 520 345 537 c 0,62,63
 324 559 324 559 323 562 c 0,64,65
 318 570 318 570 313 573 c 0,66,67
 308 578 308 578 302 580 c 1,68,69
 291 575 291 575 281 568 c 1,70,71
 280 566 280 566 248 542 c 0,72,73
 244 539 244 539 229 527 c 0,74,75
 198 503 198 503 191 501 c 0,0,1
EndSplineSet
Validated: 33
EndChar

StartChar: plus
Encoding: 43 43 14
Width: 635
VWidth: 1075
GlyphClass: 1
Flags: MW
LayerCount: 2
Fore
SplineSet
446 290 m 2,0,1
 435 242 435 242 427 224 c 0,2,3
 419 205 419 205 405 193 c 0,4,5
 381 174 381 174 369.5 174 c 128,-1,6
 358 174 358 174 341 189 c 0,7,8
 328 200 328 200 329 220 c 0,9,10
 329 238 329 238 339 289 c 2,11,-1
 351 356 l 1,12,-1
 307 356 l 2,13,14
 238 357 238 357 205 373 c 0,15,16
 175 387 175 387 180 409 c 0,17,18
 181 415 181 415 186 421 c 0,19,20
 195 436 195 436 226 447 c 128,-1,21
 257 458 257 458 320 464 c 2,22,-1
 378 469 l 1,23,-1
 391 544 l 2,24,25
 395 573 395 573 401 598 c 0,26,27
 402 601 402 601 402 603 c 0,28,29
 407 625 407 625 415 643 c 0,30,31
 430 680 430 680 455 688 c 0,32,33
 460 690 460 690 467 691 c 0,34,35
 485 691 485 691 493.5 668.5 c 128,-1,36
 502 646 502 646 501 602.5 c 128,-1,37
 500 559 500 559 488 506 c 2,38,-1
 481 476 l 1,39,-1
 537 476 l 2,40,41
 612 476 612 476 637 454 c 0,42,43
 654 440 654 440 648 417 c 0,44,45
 644 401 644 401 634 385 c 0,46,47
 622 368 622 368 604 364 c 0,48,49
 590 360 590 360 533 357 c 2,50,51
 533 358 533 358 461 356 c 1,52,-1
 446 290 l 2,0,1
EndSplineSet
Validated: 33
EndChar

StartChar: comma
Encoding: 44 44 15
Width: 259
VWidth: 1075
GlyphClass: 1
Flags: MW
LayerCount: 2
Fore
SplineSet
258 183 m 0,0,1
 264 173 264 173 264 159 c 128,-1,2
 264 145 264 145 261 132 c 0,3,4
 255 107 255 107 238 75 c 0,5,6
 194 -7 194 -7 106 -80 c 0,7,8
 83 -99 83 -99 69 -107.5 c 128,-1,9
 55 -116 55 -116 45 -116 c 0,10,11
 39 -115 39 -115 33.5 -109.5 c 128,-1,12
 28 -104 28 -104 21 -94 c 0,13,14
 11 -79 11 -79 17 -56 c 0,15,16
 20 -43 20 -43 28 -29 c 0,17,18
 47 5 47 5 119 90 c 0,19,20
 167 146 167 146 192 169 c 0,21,22
 220 195 220 195 235 195.5 c 128,-1,23
 250 196 250 196 258 183 c 0,0,1
EndSplineSet
Validated: 33
EndChar

StartChar: hyphen
Encoding: 45 45 16
Width: 562
VWidth: 1075
GlyphClass: 1
Flags: MW
LayerCount: 2
Fore
SplineSet
134 408 m 0,0,1
 127 424 127 424 131 439 c 0,2,3
 141 486 141 486 205 514 c 0,4,5
 248 533 248 533 373 533 c 0,6,7
 510 533 510 533 554 528 c 0,8,9
 598 524 598 524 617 507 c 0,10,11
 639 487 639 487 635 441 c 0,12,13
 635 436 635 436 634 430 c 0,14,15
 624 396 624 396 586 381 c 0,16,17
 576 377 576 377 499 374 c 0,18,19
 492 373 492 373 403 373 c 0,20,21
 243 373 243 373 206 379 c 0,22,23
 172 384 172 384 154 391 c 0,24,25
 138 397 138 397 134 408 c 0,0,1
EndSplineSet
Validated: 33
EndChar

StartChar: period
Encoding: 46 46 17
Width: 267
VWidth: 1075
GlyphClass: 1
Flags: MW
LayerCount: 2
Fore
SplineSet
71 22 m 1,0,1
 52 61 52 61 62 103 c 128,-1,2
 72 145 72 145 110 174 c 0,3,4
 143 199 143 199 180 200 c 0,5,6
 228 200 228 200 242 160 c 0,7,8
 253 128 253 128 245 94 c 0,9,10
 235 52 235 52 202 19 c 128,-1,11
 169 -14 169 -14 128 -14 c 0,12,13
 93 -14 93 -14 72 21 c 2,14,-1
 71 22 l 1,0,1
EndSplineSet
Validated: 33
EndChar

StartChar: slash
Encoding: 47 47 18
Width: 572
VWidth: 1075
GlyphClass: 1
Flags: MW
LayerCount: 2
Fore
SplineSet
51 93 m 0,0,1
 59 129 59 129 110 200 c 0,2,3
 170 284 170 284 323 443 c 0,4,5
 556 690 556 690 626 747 c 0,6,7
 645 763 645 763 654.5 766.5 c 128,-1,8
 664 770 664 770 673 770 c 0,9,10
 689 770 689 770 699 757 c 0,11,12
 714 739 714 739 706.5 706.5 c 128,-1,13
 699 674 699 674 668 635.5 c 128,-1,14
 637 597 637 597 512 468 c 0,15,16
 391 346 391 346 271 218 c 0,17,18
 150 88 150 88 128 70 c 0,19,20
 102 49 102 49 78 49 c 0,21,22
 66 49 66 49 60 54 c 0,23,24
 50 61 50 61 49 76 c 0,25,26
 49 84 49 84 51 93 c 0,0,1
EndSplineSet
Validated: 33
EndChar

StartChar: zero
Encoding: 48 48 19
Width: 533
VWidth: 1075
GlyphClass: 1
Flags: W
LayerCount: 2
Fore
SplineSet
582 591 m 0,0,1
 600 510 600 510 583 363 c 0,2,3
 578 323 578 323 570 289 c 0,4,5
 559 240 559 240 542 207 c 0,6,7
 508 141 508 141 464 100 c 0,8,9
 416 53 416 53 363 28 c 0,10,11
 302 0 302 0 247 0 c 0,12,13
 193 0 193 0 156 26 c 0,14,15
 87 73 87 73 87 189 c 0,16,17
 87 246 87 246 94 278 c 0,18,19
 102 312 102 312 133 390 c 0,20,21
 175 494 175 494 230 566 c 0,22,23
 289 643 289 643 350 673 c 0,24,25
 390 692 390 692 441 692 c 0,26,27
 558 692 558 692 582 591 c 0,0,1
464 500 m 0,28,29
 449 549 449 549 378 540 c 0,30,31
 328 530 328 530 295 490 c 0,32,33
 256 444 256 444 216 345 c 0,34,35
 196 295 196 295 190 266 c 0,36,37
 185 246 185 246 186 209 c 0,38,39
 189 156 189 156 211 135 c 0,40,41
 230 118 230 118 267 118 c 0,42,43
 300 118 300 118 351 146 c 1,44,45
 442 219 442 219 458 255 c 0,46,47
 467 274 467 274 472 296 c 0,48,49
 484 349 484 349 478 419 c 0,50,51
 475 463 475 463 464 500 c 0,28,29
EndSplineSet
Validated: 33
EndChar

StartChar: one
Encoding: 49 49 20
Width: 290
VWidth: 1075
GlyphClass: 1
Flags: W
LayerCount: 2
Fore
SplineSet
146 503 m 0,0,1
 152 527 152 527 192 570 c 1,2,-1
 326 692 l 1,3,4
 346 703 346 703 362 703 c 0,5,6
 373 703 373 703 382 698 c 0,7,8
 400 688 400 688 404 664 c 0,9,10
 406 637 406 637 344 356 c 0,11,12
 333 309 333 309 324 271 c 0,13,14
 288 114 288 114 272 68 c 0,15,16
 268 57 268 57 264 52 c 0,17,18
 243 22 243 22 222 14 c 0,19,20
 214 11 214 11 207 11 c 0,21,22
 192 10 192 10 181 22 c 0,23,24
 171 34 171 34 177 76 c 0,25,26
 184 123 184 123 217 291 c 0,27,28
 227 340 227 340 243 416 c 128,-1,29
 259 492 259 492 264 514 c 1,30,-1
 246 500 l 2,31,32
 204 467 204 467 180 467 c 0,33,34
 163 466 163 466 154 472 c 0,35,36
 141 480 141 480 146 503 c 0,0,1
EndSplineSet
Validated: 33
EndChar

StartChar: two
Encoding: 50 50 21
Width: 539
VWidth: 1075
GlyphClass: 1
Flags: W
LayerCount: 2
Fore
SplineSet
33 15 m 0,0,1
 35 26 35 26 41 38 c 0,2,3
 57 74 57 74 109 139 c 1,4,5
 306 354 306 354 308 356 c 0,6,7
 342 396 342 396 358 435 c 0,8,9
 378 484 378 484 383 509 c 0,10,11
 388 532 388 532 381 541 c 0,12,13
 380 542 380 542 369 544 c 0,14,15
 366 544 366 544 363 543 c 0,16,17
 343 538 343 538 320 526 c 0,18,19
 303 516 303 516 274 490 c 4,20,21
 250 468 250 468 240 447 c 4,22,23
 225 418 225 418 214 407 c 4,24,25
 203 397 203 397 183 397 c 0,26,27
 157 397 157 397 151 417 c 0,28,29
 147 429 147 429 151 450 c 0,30,31
 156 475 156 475 179 513 c 0,32,33
 207 560 207 560 238 589 c 0,34,35
 308 652 308 652 391 667 c 0,36,37
 403 669 403 669 414 669 c 0,38,39
 441 669 441 669 462 658 c 0,40,41
 527 624 527 624 497 496 c 0,42,43
 479 418 479 418 449 363 c 0,44,45
 415 301 415 301 354 232 c 0,46,47
 336 212 336 212 307 178 c 1,48,-1
 374 178 l 2,49,50
 463 178 463 178 489 168 c 0,51,52
 516 158 516 158 527 134 c 1,53,54
 534 107 534 107 528 80 c 0,55,56
 526 73 526 73 523 66 c 0,57,58
 508 36 508 36 477 26 c 0,59,60
 463 22 463 22 445 22 c 0,61,62
 420 22 420 22 403 26 c 0,63,64
 379 32 379 32 346 32 c 0,65,66
 288 32 288 32 264 24 c 0,67,68
 155 -11 155 -11 78 -23 c 0,69,70
 74 -24 74 -24 71 -24 c 0,71,72
 58 -24 58 -24 47 -16 c 0,73,74
 29 -5 29 -5 33 15 c 0,0,1
EndSplineSet
Validated: 33
EndChar

StartChar: three
Encoding: 51 51 22
Width: 540
VWidth: 1075
GlyphClass: 1
Flags: W
LayerCount: 2
Fore
SplineSet
566 331 m 0,0,1
 579 289 579 289 570 249 c 0,2,3
 567 235 567 235 561 222 c 0,4,5
 544 183 544 183 498.5 132 c 128,-1,6
 453 81 453 81 422 63 c 0,7,8
 366 32 366 32 297 21 c 0,9,10
 260 15 260 15 227 14.5 c 128,-1,11
 194 14 194 14 165 19 c 0,12,13
 97 28 97 28 70 63 c 0,14,15
 50 88 50 88 56 117 c 0,16,17
 59 131 59 131 69 144 c 0,18,19
 83 164 83 164 105 167 c 0,20,21
 109 168 109 168 124 167.5 c 128,-1,22
 139 167 139 167 199 162 c 0,23,24
 258 160 258 160 273.5 160 c 128,-1,25
 289 160 289 160 299 161 c 0,26,27
 322 164 322 164 353 176 c 1,28,-1
 353 176 l 1,29,30
 376 185 376 185 390.5 197.5 c 128,-1,31
 405 210 405 210 418 230 c 0,32,33
 434 251 434 251 438 258 c 1,34,35
 437 262 437 262 432 267 c 0,36,37
 418 284 418 284 379 298 c 0,38,39
 349 308 349 308 323 308 c 0,40,41
 316 308 316 308 308.5 307.5 c 128,-1,42
 301 307 301 307 294 307 c 0,43,44
 267 307 267 307 248 316 c 0,45,46
 221 330 221 330 228 360 c 0,47,48
 230 367 230 367 237 375 c 128,-1,49
 244 383 244 383 256 395 c 0,50,51
 278 414 278 414 310 436 c 0,52,53
 369 477 369 477 406 515 c 0,54,55
 423 532 423 532 430 542 c 128,-1,56
 437 552 437 552 438 556.5 c 128,-1,57
 439 561 439 561 434 564 c 128,-1,58
 429 567 429 567 406 570 c 0,59,60
 392 571 392 571 387 571 c 0,61,62
 356 571 356 571 333 563 c 0,63,64
 302 552 302 552 259 526 c 0,65,66
 207 490 207 490 185 490 c 0,67,68
 177 490 177 490 173 495 c 0,69,70
 163 503 163 503 167.5 522.5 c 128,-1,71
 172 542 172 542 197 579 c 0,72,73
 233 635 233 635 282 664 c 0,74,75
 335 695 335 695 417 706 c 0,76,77
 432 708 432 708 446 707 c 0,78,79
 478 708 478 708 504 698 c 0,80,81
 542 684 542 684 561 654 c 1,82,-1
 560 653 l 1,83,84
 583 610 583 610 573 562 c 0,85,86
 561 509 561 509 507 450 c 0,87,88
 496 439 496 439 478 419 c 1,89,90
 489 413 489 413 500 410 c 0,91,92
 500 408 500 408 501 410 c 0,93,94
 549 387 549 387 566 331 c 0,0,1
EndSplineSet
Validated: 33
EndChar

StartChar: four
Encoding: 52 52 23
Width: 607
VWidth: 1075
GlyphClass: 1
Flags: W
LayerCount: 2
Fore
SplineSet
151 266 m 0,0,1
 133 270 133 270 125 277 c 128,-1,2
 117 284 117 284 111 299 c 128,-1,3
 105 314 105 314 109.5 336 c 128,-1,4
 114 358 114 358 119 383 c 128,-1,5
 124 408 124 408 128.5 429 c 128,-1,6
 133 450 133 450 143 486 c 0,7,8
 160 554 160 554 171 589 c 0,9,10
 194 666 194 666 213 684 c 0,11,12
 224 695 224 695 239 695 c 0,13,14
 240 695 240 695 241 695 c 0,15,16
 259 695 259 695 267 680 c 0,17,18
 274 670 274 670 276 653 c 0,19,20
 279 619 279 619 255 511 c 0,21,22
 240 437 240 437 231 390 c 1,23,-1
 367 390 l 1,24,25
 381 439 381 439 400 513 c 0,26,27
 423 604 423 604 435 633.5 c 128,-1,28
 447 663 447 663 468 680 c 0,29,30
 479 690 479 690 486.5 695.5 c 128,-1,31
 494 701 494 701 500 701 c 0,32,33
 505 701 505 701 512 696 c 0,34,35
 520 690 520 690 526 682 c 0,36,37
 540 664 540 664 539.5 640 c 128,-1,38
 539 616 539 616 518 523 c 0,39,40
 506 459 506 459 496 403 c 1,41,42
 525 398 525 398 554 396 c 0,43,44
 615 390 615 390 636 370 c 0,45,46
 659 348 659 348 649 304 c 0,47,48
 640 267 640 267 611 252 c 0,49,50
 585 238 585 238 521 238 c 2,51,-1
 465 238 l 1,52,53
 462 224 462 224 457 202 c 0,54,55
 441 138 441 138 420 89 c 0,56,57
 397 38 397 38 375 24 c 0,58,59
 354 9 354 9 343 9 c 2,60,-1
 342 9 l 2,61,62
 330 9 330 9 315 26 c 0,63,64
 304 38 304 38 303.5 63 c 128,-1,65
 303 88 303 88 315 151 c 0,66,67
 325 203 325 203 331 245 c 1,68,69
 300 250 300 250 271 250 c 0,70,71
 267 250 267 250 261 250 c 0,72,73
 180 257 180 257 151 266 c 0,0,1
EndSplineSet
Validated: 33
EndChar

StartChar: five
Encoding: 53 53 24
Width: 569
VWidth: 1075
GlyphClass: 1
Flags: W
LayerCount: 2
Fore
SplineSet
115.5 128.5 m 128,-1,1
 121 152 121 152 135 166 c 0,2,3
 147 178 147 178 163 184 c 0,4,5
 174 188 174 188 185 188 c 0,6,7
 208 188 208 188 231 166 c 0,8,9
 247 152 247 152 276 152 c 0,10,11
 320 152 320 152 370 178 c 0,12,13
 439 214 439 214 458 241 c 0,14,15
 462 246 462 246 463 252 c 0,16,17
 467 267 467 267 448 283 c 1,18,-1
 448 284 l 1,19,20
 434 298 434 298 419 300 c 128,-1,21
 404 302 404 302 364 302 c 0,22,23
 354 302 354 302 342 302 c 0,24,25
 253 300 253 300 217 295 c 0,26,27
 209 294 209 294 204 294 c 0,28,29
 186 294 186 294 178 301 c 0,30,31
 173 305 173 305 171 316 c 128,-1,32
 169 327 169 327 169 346 c 0,33,34
 166 392 166 392 168 486.5 c 128,-1,35
 170 581 170 581 172 610 c 0,36,37
 173 614 173 614 174 616 c 128,-1,38
 175 618 175 618 174.5 622 c 128,-1,39
 174 626 174 626 175 631 c 0,40,41
 177 640 177 640 184 646 c 0,42,43
 188 650 188 650 190 653 c 0,44,45
 196 661 196 661 206.5 666.5 c 128,-1,46
 217 672 217 672 226 674.5 c 0,47,48
 235 678 235 678 249 680 c 0,49,50
 280 684 280 684 332 688 c 0,51,52
 391 692 391 692 457 694.5 c 128,-1,53
 523 697 523 697 553.5 697 c 128,-1,54
 584 697 584 697 592 697 c 0,55,56
 624 694 624 694 640 673 c 0,57,58
 662 644 662 644 654 610 c 0,59,60
 647 580 647 580 619 554 c 0,61,62
 598 535 598 535 567 533 c 0,63,64
 535 530 535 530 454.5 530 c 128,-1,65
 374 530 374 530 345 530 c 0,66,67
 305 529 305 529 285 525 c 1,68,69
 285 516 285 516 287 483 c 0,70,71
 288 451 288 451 289 445 c 0,72,73
 290 438 290 438 291 435 c 0,74,75
 295 436 295 436 301 438 c 0,76,77
 332 452 332 452 380 452 c 0,78,79
 394 452 394 452 410 450 c 0,80,81
 479 446 479 446 521 427 c 0,82,83
 582 399 582 399 600 349 c 0,84,85
 613 312 613 312 602 265 c 0,86,87
 598 246 598 246 592 229 c 0,88,89
 576 189 576 189 539 148 c 0,90,91
 468 69 468 69 362 27 c 0,92,93
 307 5 307 5 260 5 c 0,94,95
 258 5 258 5 256 5 c 0,96,97
 215 5 215 5 188 20 c 0,98,99
 157 39 157 39 133 70 c 0,100,0
 110 105 110 105 115.5 128.5 c 128,-1,1
EndSplineSet
Validated: 524321
EndChar

StartChar: six
Encoding: 54 54 25
Width: 533
VWidth: 1075
GlyphClass: 1
Flags: W
LayerCount: 2
Fore
SplineSet
519 678 m 4,0,1
 531 662 531 662 527 642 c 4,2,3
 519 609 519 609 470 580 c 4,4,5
 427 555 427 555 379 511 c 4,6,7
 311 449 311 449 302 436 c 5,8,9
 346 450 346 450 386 450 c 4,10,11
 459 450 459 450 503 421 c 4,12,13
 573 378 573 378 563 274 c 4,14,15
 560 228 560 228 544 184 c 4,16,17
 510 85 510 85 417 31 c 4,18,19
 365 3 365 3 279 3 c 4,20,21
 205 3 205 3 168 25 c 4,22,23
 103 63 103 63 88 155 c 4,24,25
 79 213 79 213 92 270 c 4,26,27
 99 302 99 302 114 335 c 4,28,29
 153 419 153 419 220 504 c 4,30,31
 375 694 375 694 479 694 c 4,32,33
 506 694 506 694 519 678 c 4,0,1
297 287 m 4,34,35
 205 266 205 266 204 230 c 4,36,37
 203 162 203 162 300 156 c 4,38,39
 392 150 392 150 409 223 c 4,40,41
 431 318 431 318 297 287 c 4,34,35
EndSplineSet
Validated: 33
EndChar

StartChar: seven
Encoding: 55 55 26
Width: 574
VWidth: 1075
GlyphClass: 1
Flags: W
LayerCount: 2
Fore
SplineSet
201.5 19 m 128,-1,1
 187 39 187 39 194 66 c 0,2,3
 196 73 196 73 204 89 c 0,4,5
 232 139 232 139 348 314 c 128,-1,6
 464 489 464 489 493 534 c 1,7,8
 454 538 454 538 349 541 c 0,9,10
 246 544 246 544 217 549 c 128,-1,11
 188 554 188 554 177 572 c 128,-1,12
 166 590 166 590 170 608 c 0,13,14
 177 640 177 640 211 656 c 0,15,16
 235 667 235 667 285 673 c 0,17,18
 337 679 337 679 418.5 683.5 c 128,-1,19
 500 688 500 688 526.5 689 c 128,-1,20
 553 690 553 690 569.5 690 c 128,-1,21
 586 690 586 690 610 689 c 0,22,23
 632 688 632 688 645 685 c 128,-1,24
 658 682 658 682 670 674 c 128,-1,25
 682 666 682 666 685 653 c 0,26,27
 688 639 688 639 689 627 c 0,28,29
 689 621 689 621 688 614 c 0,30,31
 683 591 683 591 655.5 546 c 128,-1,32
 628 501 628 501 511 324 c 0,33,34
 458 245 458 245 419 192 c 0,35,36
 332 74 332 74 299 39 c 0,37,38
 278 17 278 17 261.5 8 c 128,-1,39
 245 -1 245 -1 234 -1 c 0,40,0
 216 -1 216 -1 201.5 19 c 128,-1,1
EndSplineSet
Validated: 33
EndChar

StartChar: eight
Encoding: 56 56 27
Width: 561
VWidth: 1075
GlyphClass: 1
Flags: W
LayerCount: 2
Fore
SplineSet
516 613 m 1,0,1
 531 583 531 583 526 548 c 0,2,3
 523 530 523 530 515 506 c 0,4,5
 515 506 515 506 484 434 c 1,6,7
 511 432 511 432 544 394 c 0,8,9
 580 354 580 354 586 324 c 0,10,11
 596 276 596 276 586 230 c 0,12,13
 577 193 577 193 558 158 c 0,14,15
 513 77 513 77 426 36 c 0,16,17
 359 5 359 5 259 3 c 0,18,19
 199 3 199 3 168 21 c 0,20,21
 137 40 137 40 122 62 c 0,22,23
 107 86 107 86 102 127 c 0,24,25
 96 169 96 169 105 209 c 0,26,27
 116 258 116 258 159 310 c 0,28,29
 187 344 187 344 202 357 c 1,30,31
 198 361 198 361 187 369 c 0,32,33
 152 393 152 393 144 421 c 0,34,35
 134 453 134 453 146 503 c 0,36,37
 158 552 158 552 189 599 c 0,38,39
 220 646 220 646 260 670 c 0,40,41
 299 692 299 692 357 695 c 0,42,43
 403 696 403 696 455 670 c 0,44,45
 496 649 496 649 516 614 c 1,46,-1
 516 613 l 1,0,1
378 542 m 0,47,48
 352 558 352 558 322 558 c 0,49,50
 299 558 299 558 292 554 c 0,51,52
 262 534 262 534 256 493 c 0,53,54
 256 486 256 486 297 476 c 0,55,56
 323 469 323 469 341 469 c 0,57,58
 358 469 358 469 373 484 c 0,59,60
 395 503 395 503 398 517 c 0,61,62
 401 528 401 528 378 542 c 0,47,48
264 265 m 0,63,64
 235 236 235 236 229 200 c 0,65,66
 221 159 221 159 284 148 c 0,67,68
 341 139 341 139 371 153 c 0,69,70
 446 189 446 189 456 229 c 0,71,72
 463 258 463 258 437 282 c 0,73,74
 390 323 390 323 351 322 c 0,75,76
 321 321 321 321 264 265 c 0,63,64
EndSplineSet
Validated: 33
EndChar

StartChar: nine
Encoding: 57 57 28
Width: 484
VWidth: 1075
GlyphClass: 1
Flags: W
LayerCount: 2
Fore
SplineSet
396 675 m 0,0,1
 451 695 451 695 505 695 c 0,2,3
 561 695 561 695 577 670 c 0,4,5
 584 659 584 659 582 621.5 c 128,-1,6
 580 584 580 584 565 497 c 128,-1,7
 550 410 550 410 527 310 c 0,8,9
 476 90 476 90 445 41 c 0,10,11
 420 2 420 2 395 3 c 0,12,13
 374 4 374 4 363 32 c 0,14,15
 350 60 350 60 365 148 c 0,16,17
 368 163 368 163 372 189 c 128,-1,18
 376 215 376 215 377 222 c 1,19,-1
 303 222 l 2,20,21
 225 222 225 222 180 244 c 0,22,23
 140 266 140 266 125 316 c 0,24,25
 112 358 112 358 123 405 c 0,26,27
 136 461 136 461 176 517 c 0,28,29
 211 568 211 568 265 608 c 0,30,31
 325 650 325 650 396 675 c 0,0,1
419 392 m 1,32,-1
 441 489 l 2,33,34
 456 553 456 553 457 570 c 0,35,36
 457 574 457 574 458 578 c 1,37,38
 379 555 379 555 315 506 c 0,39,40
 256 461 256 461 245 422 c 0,41,42
 244 418 244 418 244 417 c 0,43,44
 240 402 240 402 242 397 c 0,45,46
 245 392 245 392 264 382 c 0,47,48
 294 368 294 368 313 368.5 c 128,-1,49
 332 369 332 369 378 380 c 2,50,-1
 419 392 l 1,32,-1
EndSplineSet
Validated: 33
EndChar

StartChar: colon
Encoding: 58 58 29
Width: 258
VWidth: 1075
GlyphClass: 1
Flags: MW
LayerCount: 2
Fore
SplineSet
284 650 m 4,0,1
 293 651 293 651 295 651 c 6,2,-1
 297 651 l 6,3,4
 324 651 324 651 341 630 c 4,5,6
 362 604 362 604 350 555 c 4,7,8
 337 498 337 498 304 463 c 132,-1,9
 271 428 271 428 230 428 c 4,10,11
 182 428 182 428 171 469 c 4,12,13
 159 504 159 504 165.5 532 c 132,-1,14
 172 560 172 560 200 593 c 4,15,16
 239 644 239 644 284 650 c 4,0,1
247 199 m 4,17,18
 260 174 260 174 262 156 c 4,19,20
 263 145 263 145 260 133 c 4,21,22
 257 120 257 120 253 110 c 4,23,24
 225 46 225 46 170 16 c 4,25,26
 142 0 142 0 119.5 -0.5 c 132,-1,27
 97 -1 97 -1 80 14 c 4,28,29
 57 34 57 34 52 55 c 132,-1,30
 47 76 47 76 57 121 c 4,31,32
 69 171 69 171 103 204 c 4,33,34
 140 239 140 239 181.5 239 c 132,-1,35
 223 239 223 239 247 199 c 4,17,18
EndSplineSet
Validated: 33
EndChar

StartChar: semicolon
Encoding: 59 59 30
Width: 254
VWidth: 1075
GlyphClass: 1
Flags: MW
LayerCount: 2
Fore
SplineSet
343 497 m 0,0,1
 332 450 332 450 298 419 c 0,2,3
 274 397 274 397 235 396 c 0,4,5
 184 396 184 396 168 426 c 0,6,7
 151 454 151 454 161 494 c 0,8,9
 164 508 164 508 170 525 c 0,10,11
 195 586 195 586 244 607 c 0,12,13
 260 614 260 614 277 615 c 0,14,15
 303 615 303 615 322 594.5 c 128,-1,16
 341 574 341 574 346 545 c 0,17,18
 349 523 349 523 343 497 c 0,0,1
74 159 m 0,19,20
 81 190 81 190 121 219 c 0,21,22
 161 247 161 247 188.5 247 c 128,-1,23
 216 247 216 247 237 221 c 0,24,25
 265 185 265 185 253 134 c 0,26,27
 246 100 246 100 215 44 c 0,28,29
 181 -22 181 -22 146 -55 c 0,30,31
 101 -99 101 -99 75 -110 c 0,32,33
 68 -113 68 -113 61 -113 c 0,34,35
 43 -113 43 -113 33 -91 c 0,36,37
 29 -82 29 -82 31 -71 c 0,38,39
 33 -60 33 -60 40 -49 c 0,40,41
 46 -42 46 -42 87 17 c 0,42,43
 102 39 102 39 118 61 c 1,44,45
 99 62 99 62 83 97 c 0,46,47
 68 131 68 131 74 159 c 0,19,20
EndSplineSet
Validated: 33
EndChar

StartChar: less
Encoding: 60 60 31
Width: 486
VWidth: 1075
GlyphClass: 1
Flags: MW
LayerCount: 2
Fore
SplineSet
350 206 m 0,0,1
 407 128 407 128 419 104 c 0,2,3
 424 94 424 94 415 51 c 0,4,5
 410 28 410 28 397 13 c 0,6,7
 379 -9 379 -9 352 -9 c 0,8,9
 308 -9 308 -9 273 37 c 0,10,11
 117 244 117 244 105 320 c 0,12,13
 104 328 104 328 111 341 c 0,14,15
 140 390 140 390 179 429 c 0,16,17
 227 478 227 478 307 541 c 0,18,19
 458 660 458 660 529 698 c 0,20,21
 561 714 561 714 568 709 c 0,22,23
 568 709 568 709 570 709 c 0,24,25
 585 709 585 709 596 699 c 0,26,27
 615 683 615 683 608 653 c 0,28,29
 605 643 605 643 599 629 c 0,30,31
 597 625 597 625 575 602 c 0,32,33
 547 573 547 573 538 566 c 0,34,35
 398 454 398 454 398 454 c 0,36,37
 306 380 306 380 262 348 c 1,38,39
 258 331 258 331 350 206 c 0,0,1
EndSplineSet
Validated: 33
EndChar

StartChar: equal
Encoding: 61 61 32
Width: 683
VWidth: 1075
GlyphClass: 1
Flags: MW
LayerCount: 2
Fore
SplineSet
215 627 m 0,0,1
 237 646 237 646 260 649 c 0,2,3
 284 652 284 652 338 652.5 c 128,-1,4
 392 653 392 653 480 652 c 0,5,6
 574 650 574 650 630 645 c 0,7,8
 724 638 724 638 730 632 c 0,9,10
 768 602 768 602 756 551 c 0,11,12
 740 479 740 479 697 479 c 0,13,14
 605 478 605 478 557 480 c 0,15,16
 376 492 376 492 310 498 c 0,17,18
 195 511 195 511 192 514 c 0,19,20
 168 534 168 534 175 565 c 0,21,22
 183 601 183 601 215 627 c 0,0,1
715 263 m 0,23,24
 710 241 710 241 694 220 c 0,25,26
 665 180 665 180 605 173 c 0,27,28
 597 172 597 172 577 174 c 0,29,30
 552 175 552 175 364 181 c 0,31,32
 176 188 176 188 141 194 c 0,33,34
 111 200 111 200 97 225 c 0,35,36
 86 245 86 245 92 271 c 0,37,38
 94 283 94 283 101 293 c 0,39,40
 128 342 128 342 161 343 c 0,41,42
 271 346 271 346 277 346 c 0,43,44
 377 342 377 342 472 342 c 0,45,46
 510 342 510 342 579 339 c 0,47,48
 684 334 684 334 707 325 c 0,49,50
 728 317 728 317 715 263 c 0,23,24
EndSplineSet
Validated: 33
EndChar

StartChar: greater
Encoding: 62 62 33
Width: 418
VWidth: 1075
GlyphClass: 1
Flags: MW
LayerCount: 2
Fore
SplineSet
37 32 m 0,0,1
 38 76 38 76 57 94 c 0,2,3
 323 353 323 353 324 353 c 1,4,-1
 253 475 l 24,5,6
 178 595 178 595 180 612 c 0,7,8
 181 623 181 623 181 634 c 0,9,10
 181 640 181 640 183 645 c 0,11,12
 187 662 187 662 203 680 c 0,13,14
 225 705 225 705 243 705 c 0,15,16
 253 705 253 705 272 690 c 0,17,18
 291 676 291 676 321 644 c 0,19,20
 376 586 376 586 425 511 c 1,21,22
 466 438 466 438 471 404 c 0,23,24
 475 367 475 367 470 348 c 0,25,26
 467 335 467 335 465 333 c 0,27,28
 462 329 462 329 456 321 c 0,29,30
 432 286 432 286 384 232 c 0,31,32
 384 232 384 232 226 92 c 0,33,34
 141 17 141 17 121 1 c 0,35,36
 96 -20 96 -20 74 -17 c 0,37,38
 54 -14 54 -14 40 -1 c 0,39,40
 37 4 37 4 37 32 c 0,0,1
EndSplineSet
Validated: 33
EndChar

StartChar: question
Encoding: 63 63 34
Width: 517
VWidth: 1075
GlyphClass: 1
Flags: MW
LayerCount: 2
Fore
SplineSet
472 881 m 2,0,-1
 475 881 l 2,1,2
 569 881 569 881 610 842 c 0,3,4
 667 788 667 788 646 682 c 0,5,6
 644 670 644 670 641 658 c 0,7,8
 620 570 620 570 551 491 c 0,9,10
 468 398 468 398 367 368 c 0,11,12
 328 356 328 356 320 349 c 0,13,14
 317 346 317 346 311 334 c 0,15,16
 306 324 306 324 295 296 c 0,17,18
 277 247 277 247 250 212 c 0,19,20
 219 172 219 172 190 172 c 0,21,22
 171 172 171 172 152 191 c 0,23,24
 136 207 136 207 139 233 c 0,25,26
 141 252 141 252 146 273 c 0,27,28
 152 304 152 304 157 319 c 0,29,30
 169 355 169 355 202 413 c 0,31,32
 223 450 223 450 286 472 c 0,33,34
 286 473 286 473 386 502 c 0,35,36
 414 510 414 510 456 554 c 0,37,38
 488 589 488 589 510 637 c 0,39,40
 521 661 521 661 520 698 c 0,41,42
 519 720 519 720 480.5 733 c 128,-1,43
 442 746 442 746 371 720 c 0,44,45
 305 696 305 696 290 664 c 0,46,47
 267 617 267 617 247 597 c 0,48,49
 235 585 235 585 219 586 c 0,50,51
 180 587 180 587 182 633 c 0,52,53
 184 684 184 684 192 705 c 0,54,55
 220 779 220 779 286 822 c 0,56,57
 376 881 376 881 472 881 c 2,0,-1
173 90 m 0,58,59
 196 90 196 90 216 58 c 128,-1,60
 236 26 236 26 229 -4 c 128,-1,61
 222 -34 222 -34 185.5 -65.5 c 128,-1,62
 149 -97 149 -97 122 -97 c 0,63,64
 111 -97 111 -97 96 -88 c 0,65,66
 82 -79 82 -79 74 -66.5 c 128,-1,67
 66 -54 66 -54 63 -36 c 128,-1,68
 60 -18 60 -18 63 -4 c 128,-1,69
 66 10 66 10 76.5 24 c 128,-1,70
 87 38 87 38 108 56 c 0,71,72
 146 90 146 90 173 90 c 0,58,59
EndSplineSet
Validated: 33
EndChar

StartChar: at
Encoding: 64 64 35
Width: 642
VWidth: 1075
GlyphClass: 1
Flags: MW
LayerCount: 2
Fore
SplineSet
358 678 m 0,0,1
 394 698 394 698 418 702 c 0,2,3
 507 721 507 721 585 703 c 0,4,5
 606 698 606 698 627 683 c 0,6,7
 662 659 662 659 671.5 624.5 c 128,-1,8
 681 590 681 590 669 527 c 0,9,10
 664 499 664 499 624 386 c 1,11,12
 664 437 664 437 705 437 c 0,13,14
 750 437 750 437 727 395 c 0,15,16
 658 263 658 263 568 212 c 0,17,18
 555 205 555 205 532 205 c 0,19,20
 518 204 518 204 511 210 c 0,21,22
 495 222 495 222 502 251 c 0,23,24
 514 304 514 304 521 324 c 1,25,26
 447 263 447 263 402 244 c 0,27,28
 390 240 390 240 365 238 c 0,29,30
 347 238 347 238 318 257 c 0,31,32
 278 283 278 283 295 354 c 0,33,34
 306 400 306 400 346 448 c 0,35,36
 372 480 372 480 443 520 c 0,37,38
 490 547 490 547 558 555 c 1,39,40
 536 601 536 601 485 602 c 0,41,42
 444 603 444 603 395 579 c 0,43,44
 353 559 353 559 311 517 c 0,45,46
 270 476 270 476 250 446 c 0,47,48
 221 404 221 404 209 348 c 0,49,50
 204 325 204 325 213 263 c 0,51,52
 223 189 223 189 263 154 c 0,53,54
 299 121 299 121 387 110 c 0,55,56
 442 103 442 103 457 92 c 0,57,58
 477 78 477 78 471 50 c 0,59,60
 463 16 463 16 418 -1 c 0,61,62
 387 -12 387 -12 348 -12 c 0,63,64
 285 -12 285 -12 236 13 c 0,65,66
 179 41 179 41 154 78 c 0,67,68
 129 117 129 117 116 187 c 0,69,70
 97 294 97 294 112 358 c 0,71,72
 129 434 129 434 186 517 c 0,73,74
 260 624 260 624 358 678 c 0,0,1
379 340 m 0,75,76
 394 310 394 310 503 396 c 0,77,78
 526 414 526 414 546 448 c 1,79,80
 503 460 503 460 478 450 c 0,81,82
 392 420 392 420 379 364 c 0,83,84
 376 350 376 350 379 340 c 0,75,76
EndSplineSet
Validated: 33
EndChar

StartChar: A
Encoding: 65 65 36
Width: 496
VWidth: 1075
GlyphClass: 1
Flags: MW
LayerCount: 2
Fore
SplineSet
117.5 38.5 m 128,-1,1
 95 6 95 6 75 6 c 0,2,3
 53 6 53 6 42 27 c 0,4,5
 38 38 38 38 44 62.5 c 128,-1,6
 50 87 50 87 65 129 c 0,7,8
 94 206 94 206 171 382 c 0,9,10
 247 552 247 552 266 605 c 0,11,12
 281 645 281 645 308 671 c 0,13,14
 335 698 335 698 362 698 c 0,15,16
 375 698 375 698 382 694 c 0,17,18
 396 689 396 689 408 669 c 128,-1,19
 420 649 420 649 432 609 c 0,20,21
 453 539 453 539 477 367 c 1,22,23
 486 271 486 271 490.5 225 c 128,-1,24
 495 179 495 179 494.5 148 c 128,-1,25
 494 117 494 117 491 103 c 0,26,27
 486 82 486 82 467 62 c 0,28,29
 449 44 449 44 433 44 c 0,30,31
 432 44 432 44 431 44 c 0,32,33
 418 44 418 44 410 55 c 0,34,35
 392 75 392 75 374 142 c 2,36,-1
 358 211 l 1,37,38
 346 212 346 212 332 212 c 2,39,-1
 280 207 l 2,40,41
 215 204 215 204 195 202 c 1,42,43
 188 189 188 189 170 145 c 0,44,0
 140 71 140 71 117.5 38.5 c 128,-1,1
301 336 m 4,45,46
 358 342 358 342 359 342 c 5,47,48
 358 360 358 360 351 407 c 4,49,50
 349 419 349 419 328 494 c 1,51,52
 309 466 309 466 287 422 c 0,53,54
 260 368 260 368 247 333 c 1,55,56
 279 334 279 334 301 336 c 4,45,46
EndSplineSet
Validated: 33
EndChar

StartChar: B
Encoding: 66 66 37
Width: 490
VWidth: 1075
GlyphClass: 1
Flags: MW
LayerCount: 2
Fore
SplineSet
429 655 m 0,0,1
 478 614 478 614 463 548 c 0,2,3
 457 521 457 521 431 480 c 0,4,5
 411 449 411 449 396 436 c 1,6,7
 403 431 403 431 439 407 c 0,8,9
 501 363 501 363 513 333 c 0,10,11
 530 291 530 291 514 227 c 0,12,13
 502 181 502 181 471 137 c 0,14,15
 460 121 460 121 385 60 c 0,16,17
 346 29 346 29 265 10 c 0,18,19
 238 4 238 4 212 4 c 0,20,21
 182 4 182 4 154 11 c 0,22,23
 133 16 133 16 122 29 c 0,24,25
 111 40 111 40 106 64 c 0,26,27
 100 88 100 88 102 131 c 0,28,29
 104 166 104 166 132 385 c 4,30,31
 138 433 138 433 140 457 c 0,32,33
 143 482 143 482 149 511 c 0,34,35
 166 592 166 592 176 611 c 0,36,37
 187 630 187 630 231 663 c 0,38,39
 270 692 270 692 313 694 c 0,40,41
 383 696 383 696 429 655 c 0,0,1
360 548 m 0,42,43
 342 592 342 592 245 555 c 1,44,45
 234 504 234 504 233 452 c 1,46,47
 299 458 299 458 319 479 c 0,48,49
 366 531 366 531 360 548 c 0,42,43
363 177 m 0,50,51
 395 203 395 203 401 232 c 0,52,53
 406 254 406 254 396 266 c 0,54,55
 376 290 376 290 341 304 c 0,56,57
 305 320 305 320 273 321 c 0,58,-1
 226 320 l 1,59,60
 201 224 201 224 216 126 c 1,61,62
 249 114 249 114 299 136 c 0,63,64
 324 147 324 147 363 177 c 0,50,51
EndSplineSet
Validated: 33
EndChar

StartChar: C
Encoding: 67 67 38
Width: 494
VWidth: 1075
GlyphClass: 1
Flags: MW
LayerCount: 2
Fore
SplineSet
116 69 m 0,0,1
 78 114 78 114 79 174 c 0,2,3
 79 215 79 215 86 246 c 128,-1,4
 93 277 93 277 122 346 c 0,5,6
 186 502 186 502 320 623 c 0,7,8
 368 664 368 664 393 680 c 0,9,10
 419 698 419 698 441 698 c 0,11,12
 480 698 480 698 487 668 c 0,13,14
 490 655 490 655 487 643.5 c 128,-1,15
 484 632 484 632 477 623 c 0,16,17
 465 606 465 606 406 554 c 0,18,19
 325 484 325 484 282 423 c 128,-1,20
 239 362 239 362 211 284 c 0,21,22
 207 269 207 269 205 261 c 0,23,24
 204 257 204 257 204 255 c 0,25,26
 197 224 197 224 200 209 c 0,27,28
 204 188 204 188 238 170 c 1,29,-1
 238 169 l 1,30,31
 264 153 264 153 295 153 c 0,32,33
 297 153 297 153 298 153 c 0,34,35
 342 153 342 153 394 184 c 0,36,37
 441 213 441 213 468 212 c 0,38,39
 496 212 496 212 503 185 c 0,40,41
 505 170 505 170 499 147 c 0,42,43
 489 105 489 105 442.5 68 c 128,-1,44
 396 31 396 31 333 14 c 0,45,46
 293 4 293 4 260 4 c 0,47,48
 237 4 237 4 220 9 c 0,49,50
 157 24 157 24 116 69 c 0,0,1
EndSplineSet
Validated: 33
EndChar

StartChar: D
Encoding: 68 68 39
Width: 542
VWidth: 1075
GlyphClass: 1
Flags: MW
LayerCount: 2
Fore
SplineSet
269 692 m 0,0,1
 283 692 283 692 316 689 c 0,2,3
 384 683 384 683 444 661 c 0,4,5
 484 645 484 645 504 632 c 0,6,7
 528 614 528 614 553 575 c 0,8,9
 621 468 621 468 592 339 c 0,10,11
 583 297 583 297 563 255 c 0,12,13
 534 196 534 196 448 122 c 1,14,15
 360 50 360 50 282 22 c 0,16,17
 229 4 229 4 179 1 c 0,18,19
 164 0 164 0 153 0 c 0,20,21
 119 0 119 0 107 11 c 0,22,23
 99 18 99 18 97.5 45 c 128,-1,24
 96 72 96 72 102 127 c 0,25,26
 113 228 113 228 145 433 c 2,27,-1
 177 641 l 1,28,29
 179 650 179 650 197 663 c 0,30,31
 224 683 224 683 243 688 c 0,32,33
 256 692 256 692 269 692 c 0,0,1
254 374 m 2,34,35
 227 163 227 163 224 147 c 1,36,37
 323 163 323 163 409 247 c 0,38,39
 425 262 425 262 441 300 c 0,40,41
 444 306 444 306 447 318 c 0,42,43
 449 330 449 330 452 351 c 0,44,45
 465 432 465 432 423 488 c 0,46,47
 376 551 376 551 302 555 c 0,48,49
 289 556 289 556 277 555 c 1,50,51
 271 500 271 500 254 374 c 2,34,35
EndSplineSet
Validated: 33
EndChar

StartChar: E
Encoding: 69 69 40
Width: 515
VWidth: 1075
GlyphClass: 1
Flags: MW
LayerCount: 2
Fore
SplineSet
232 18 m 0,0,1
 157 2 157 2 124 2 c 0,2,3
 87 2 87 2 75 32 c 0,4,5
 65 57 65 57 74 131 c 0,6,7
 78 163 78 163 133 438 c 0,8,9
 151 529 151 529 169 590 c 0,10,11
 180 628 180 628 199 647 c 0,12,13
 247 694 247 694 443 695 c 0,14,15
 476 695 476 695 497 690 c 0,16,17
 540 681 540 681 542 649 c 0,18,19
 543 634 543 634 540 622 c 0,20,21
 530 577 530 577 492 565 c 0,22,23
 476 560 476 560 350 550 c 0,24,-1
 269 543 l 1,25,26
 250 434 250 434 243 382 c 1,27,28
 346 395 346 395 387 397 c 0,29,30
 434 400 434 400 450 378 c 0,31,32
 464 358 464 358 460 344 c 0,33,34
 457 334 457 334 450 322 c 0,35,36
 431 293 431 293 396 281 c 0,37,38
 365 270 365 270 295 260 c 0,39,-1
 218 251 l 1,40,41
 213 230 213 230 205 196 c 0,42,43
 197 160 197 160 193 145 c 1,44,45
 321 158 321 158 421 184 c 0,46,47
 449 192 449 192 470 160 c 0,48,49
 486 135 486 135 480 111 c 0,50,51
 476 93 476 93 461 78 c 0,52,53
 426 44 426 44 384 40 c 0,54,55
 307 32 307 32 232 18 c 0,0,1
EndSplineSet
Validated: 33
EndChar

StartChar: F
Encoding: 70 70 41
Width: 446
VWidth: 1075
GlyphClass: 1
Flags: MW
LayerCount: 2
Fore
SplineSet
214 652 m 0,0,1
 258 680 258 680 391 690 c 0,2,3
 522 701 522 701 544 675 c 0,4,5
 560 657 560 657 552 626 c 0,6,7
 538 575 538 575 494 557 c 1,8,9
 494 557 494 557 272 537 c 1,10,11
 257 448 257 448 255 376 c 1,12,13
 434 381 434 381 444 379 c 0,14,15
 465 376 465 376 477 356 c 0,16,17
 493 330 493 330 489 307 c 0,18,19
 484 287 484 287 463 266 c 0,20,21
 441 246 441 246 420 243 c 0,22,23
 282 228 282 228 235 228 c 1,24,-1
 217 125 l 1,25,26
 189 -1 189 -1 134 1 c 0,27,28
 77 3 77 3 94 126 c 0,29,30
 97 148 97 148 126 371 c 0,31,32
 138 463 138 463 155 542 c 0,33,34
 172 626 172 626 214 652 c 0,0,1
EndSplineSet
Validated: 33
EndChar

StartChar: G
Encoding: 71 71 42
Width: 576
VWidth: 1075
GlyphClass: 1
Flags: MW
LayerCount: 2
Fore
SplineSet
386.5 278 m 128,-1,1
 359 278 359 278 343 288 c 0,2,3
 319 302 319 302 325 333 c 0,4,5
 335 376 335 376 387 400 c 0,6,7
 433 422 433 422 528 433 c 0,8,9
 546 435 546 435 562 435 c 0,10,11
 577 435 577 435 584 434 c 0,12,13
 599 431 599 431 616 413 c 0,14,15
 629 394 629 394 632 380 c 0,16,17
 633 371 633 371 630 359.5 c 128,-1,18
 627 348 627 348 624 338 c 0,19,20
 599 267 599 267 506 165 c 128,-1,21
 413 63 413 63 335 24 c 0,22,23
 296 5 296 5 248.5 5 c 128,-1,24
 201 5 201 5 163 29 c 0,25,26
 99 65 99 65 86 136 c 0,27,28
 75 198 75 198 97 292 c 0,29,30
 100 304 100 304 102 315 c 2,31,-1
 102 316 l 2,32,33
 117 370 117 370 130.5 399.5 c 0,34,35
 144 428 144 428 175 472 c 0,36,37
 214 531 214 531 275 590 c 0,38,39
 339 648 339 648 390 673 c 0,40,41
 438 696 438 696 482 697 c 0,42,43
 499 697 499 697 515 693 c 0,44,45
 577 681 577 681 589 631 c 0,46,47
 597 599 597 599 592 576 c 0,48,49
 585 547 585 547 558 533 c 1,50,51
 557 528 557 528 557 532 c 1,52,53
 537 523 537 523 528 523 c 0,54,55
 525 523 525 523 524 524 c 0,56,57
 518 525 518 525 511 532 c 128,-1,58
 504 539 504 539 493 554 c 0,59,60
 476 578 476 578 453 579 c 0,61,62
 446 579 446 579 440 577 c 0,63,64
 404 568 404 568 335 507 c 0,65,66
 278 455 278 455 248.5 408 c 128,-1,67
 219 361 219 361 205 299 c 0,68,69
 204 295 204 295 203 291 c 0,70,71
 191 237 191 237 195 204 c 128,-1,72
 199 171 199 171 222 154 c 0,73,74
 247 135 247 135 271 135 c 0,75,76
 304 135 304 135 356 176 c 1,77,78
 358 185 358 185 356 176 c 1,79,80
 410 216 410 216 462 279 c 0,81,82
 466 283 466 283 469 288 c 1,83,0
 414 278 414 278 386.5 278 c 128,-1,1
EndSplineSet
Validated: 524329
EndChar

StartChar: H
Encoding: 72 72 43
Width: 644
VWidth: 1075
GlyphClass: 1
Flags: MW
LayerCount: 2
Fore
SplineSet
237 154 m 2,0,1
 223 96 223 96 206 63 c 0,2,3
 190 35 190 35 171 24 c 0,4,5
 154 18 154 18 149 17 c 0,6,7
 136 17 136 17 126 26 c 0,8,9
 117 37 117 37 110 60 c 0,10,11
 107 67 107 67 107 72 c 0,12,13
 102 115 102 115 121 301 c 0,14,15
 142 490 142 490 162 573 c 0,16,17
 173 623 173 623 194 645 c 0,18,19
 210 659 210 659 232 660 c 0,20,21
 240 660 240 660 250 657 c 0,22,23
 277 649 277 649 284 610 c 0,24,25
 289 570 289 570 279 463 c 0,26,27
 277 431 277 431 274 410 c 0,28,29
 271 380 271 380 274 363 c 1,30,31
 297 367 297 367 416 374 c 2,32,-1
 528 380 l 1,33,-1
 531 400 l 2,34,35
 535 426 535 426 537 535 c 0,36,37
 540 603 540 603 549 642 c 0,38,39
 551 653 551 653 555 661 c 0,40,41
 563 678 563 678 581 687 c 0,42,43
 594 694 594 694 611 695 c 0,44,45
 615 696 615 696 620 696 c 0,46,47
 650 696 650 696 669 665 c 0,48,49
 686 631 686 631 688 559 c 0,50,51
 691 416 691 416 664 237 c 0,52,53
 652 161 652 161 642 116 c 0,54,55
 632 73 632 73 624 51 c 0,56,57
 615 31 615 31 607 24 c 0,58,59
 587 6 587 6 561 5 c 0,60,61
 527 5 527 5 512 34 c 0,62,63
 500 64 500 64 505 152 c 1,64,65
 513 204 513 204 516 238 c 1,66,67
 510 243 510 243 503 243 c 2,68,-1
 482 234 l 1,69,70
 419 228 419 228 337 220 c 1,71,72
 322 224 322 224 306 224 c 2,73,-1
 251 214 l 1,74,-1
 237 154 l 2,0,1
EndSplineSet
Validated: 33
EndChar

StartChar: I
Encoding: 73 73 44
Width: 510
VWidth: 1075
GlyphClass: 1
Flags: MW
LayerCount: 2
Fore
SplineSet
74 45 m 0,0,1
 75 51 75 51 75 58 c 0,2,3
 81 83 81 83 103 102 c 0,4,5
 128 124 128 124 169 131 c 1,6,-1
 169 131 l 2,7,8
 172 131 172 131 180 132 c 0,9,10
 218 138 218 138 231 143 c 0,11,12
 231 144 231 144 232 147.5 c 128,-1,13
 233 151 233 151 233 159 c 0,14,15
 233 162 233 162 233 166 c 0,16,17
 234 204 234 204 264 385 c 0,18,19
 277 462 277 462 293 554 c 1,20,-1
 265 554 l 2,21,22
 210 554 210 554 187 575 c 0,23,24
 167 593 167 593 172 618 c 0,25,26
 174 628 174 628 181 639 c 0,27,28
 197 671 197 671 241 679 c 0,29,30
 278 686 278 686 392 691 c 0,31,32
 446 693 446 693 477.5 693 c 128,-1,33
 509 693 509 693 524 691 c 0,34,35
 557 688 557 688 568 678 c 0,36,37
 591 656 591 656 582 615 c 0,38,39
 574 582 574 582 547 566 c 0,40,41
 528 556 528 556 453 554 c 1,42,43
 450 540 450 540 452 554 c 1,44,-1
 397 554 l 1,45,46
 393 532 393 532 395 532 c 1,47,48
 373 366 373 366 348 204 c 2,49,-1
 339 145 l 1,50,-1
 403 145 l 2,51,52
 448 145 448 145 465 141.5 c 128,-1,53
 482 138 482 138 490 122 c 0,54,55
 504 97 504 97 499.5 75.5 c 128,-1,56
 495 54 495 54 469 31 c 0,57,58
 450 13 450 13 430 9.5 c 128,-1,59
 410 6 410 6 340 6 c 0,60,61
 269 6 269 6 189 2 c 0,62,63
 161 1 161 1 136 1 c 0,64,65
 108 1 108 1 98 4 c 0,66,67
 73 11 73 11 74 45 c 0,0,1
EndSplineSet
Validated: 33
EndChar

StartChar: J
Encoding: 74 74 45
Width: 496
VWidth: 1075
GlyphClass: 1
Flags: MW
LayerCount: 2
Fore
SplineSet
101 272 m 0,0,1
 122 294 122 294 139 293 c 0,2,3
 149 293 149 293 156 289 c 0,4,5
 176 278 176 278 197 229 c 0,6,7
 212 193 212 193 222 180 c 0,8,9
 232 168 232 168 251 166 c 0,10,11
 262 164 262 164 273 165 c 0,12,13
 305 165 305 165 326 182 c 0,14,15
 357 211 357 211 386 297 c 0,16,17
 402 344 402 344 417 409 c 0,18,19
 417 409 417 409 452 588 c 0,20,21
 466 647 466 647 483 672 c 0,22,23
 501 694 501 694 529 694 c 0,24,25
 562 694 562 694 575 662 c 0,26,27
 586 633 586 633 585 579 c 0,28,29
 583 503 583 503 561 404 c 0,30,31
 554 374 554 374 545 342 c 0,32,33
 524 264 524 264 509.5 229 c 128,-1,34
 495 194 495 194 461 141 c 0,35,36
 402 54 402 54 329 21 c 0,37,38
 286 1 286 1 241 1 c 0,39,40
 208 1 208 1 177 12 c 0,41,42
 136 26 136 26 109 75 c 0,43,44
 83 124 83 124 81 180 c 0,45,46
 81 224 81 224 85 240 c 0,47,48
 90 258 90 258 101 272 c 0,0,1
EndSplineSet
Validated: 33
EndChar

StartChar: K
Encoding: 75 75 46
Width: 601
VWidth: 1075
GlyphClass: 1
Flags: MW
LayerCount: 2
Fore
SplineSet
585 51 m 0,0,1
 578 21 578 21 557 5 c 0,2,3
 537 -9 537 -9 506 -9 c 0,4,5
 483 -9 483 -9 452 15 c 0,6,7
 442 23 442 23 355 114 c 0,8,9
 293 178 293 178 241 220 c 1,10,11
 238 211 238 211 222 147 c 0,12,13
 222 145 222 145 221 143 c 0,14,15
 207 84 207 84 196 59 c 0,16,17
 187 38 187 38 168 25 c 0,18,19
 146 8 146 8 133 8 c 0,20,21
 125 8 125 8 111 16 c 0,22,23
 90 28 90 28 88 51 c 0,24,25
 84 92 84 92 94 148 c 0,26,27
 113 257 113 257 130 366 c 2,28,-1
 177 641 l 2,29,30
 183 659 183 659 208 672 c 0,31,32
 227 679 227 679 244 682 c 0,33,34
 245 682 245 682 246 682 c 0,35,36
 259 682 259 682 267 673 c 0,37,38
 290 648 290 648 293 614 c 0,39,40
 294 565 294 565 273 411 c 1,41,42
 333 456 333 456 397 520 c 1,43,44
 514 624 514 624 558 647 c 0,45,46
 589 663 589 663 609 663 c 0,47,48
 610 663 610 663 612 663 c 0,49,50
 628 663 628 663 638 657 c 0,51,52
 661 644 661 644 657 626 c 0,53,54
 648 587 648 587 591 527 c 0,55,56
 560 495 560 495 502 444 c 0,57,58
 379 336 379 336 376 333 c 1,59,-1
 437 276 l 2,60,61
 535 186 535 186 554 158 c 0,62,63
 577 125 577 125 583 98 c 0,64,65
 590 71 590 71 585 51 c 0,0,1
EndSplineSet
Validated: 33
EndChar

StartChar: L
Encoding: 76 76 47
Width: 502
VWidth: 1075
GlyphClass: 1
Flags: MW
LayerCount: 2
Fore
SplineSet
197 647 m 4,0,1
 218 666 218 666 238 666 c 4,2,3
 239 666 239 666 239 666 c 4,4,5
 267 666 267 666 271 638 c 4,6,7
 275 607 275 607 231 394 c 4,8,9
 227 377 227 377 224 364 c 6,10,-1
 170 122 l 5,11,12
 215 129 215 129 307 145 c 4,13,14
 401 159 401 159 419 159 c 4,15,16
 468 159 468 159 483.5 135 c 132,-1,17
 499 111 499 111 495 89 c 4,18,19
 489 63 489 63 455 38.5 c 132,-1,20
 421 14 421 14 398 14 c 4,21,22
 373 14 373 14 244 -6 c 4,23,24
 118 -25 118 -25 90 -25 c 4,25,26
 57 -25 57 -25 49 10 c 4,27,28
 45 26 45 26 57 101 c 4,29,30
 71 180 71 180 108 340 c 4,31,32
 168 598 168 598 190 637 c 4,33,34
 193 643 193 643 197 647 c 4,0,1
EndSplineSet
Validated: 33
EndChar

StartChar: M
Encoding: 77 77 48
Width: 790
VWidth: 1087
GlyphClass: 1
Flags: MW
LayerCount: 2
Fore
SplineSet
99 18 m 0,0,1
 78 18 78 18 70 27 c 0,2,3
 64 34 64 34 64 46 c 0,4,5
 65 57 65 57 70 87 c 0,6,7
 83 167 83 167 129 363 c 0,8,9
 156 478 156 478 169 525 c 0,10,11
 181 567 181 567 192 585 c 0,12,13
 206 608 206 608 234 617 c 0,14,15
 248 621 248 621 261 622 c 0,16,17
 277 622 277 622 293 616 c 0,18,19
 304 612 304 612 320 593 c 0,20,21
 338 573 338 573 365 534 c 0,22,23
 414 462 414 462 450 389 c 0,24,25
 458 371 458 371 465 361 c 1,26,27
 478 376 478 376 500 407 c 0,28,29
 560 489 560 489 627 566 c 0,30,31
 670 616 670 616 694 636 c 0,32,33
 716 657 716 657 734 662 c 0,34,35
 744 666 744 666 755 666 c 0,36,37
 775 666 775 666 791 657 c 0,38,39
 814 644 814 644 818 620 c 0,40,41
 827 576 827 576 804 345 c 0,42,43
 789 194 789 194 767 93 c 0,44,45
 761 66 761 66 750 50 c 0,46,47
 742 38 742 38 732 32 c 0,48,49
 723 27 723 27 706 24 c 0,50,51
 696 23 696 23 695 23 c 0,52,53
 658 23 658 23 647 70 c 0,54,55
 635 123 635 123 659 350 c 24,56,57
 659 350 659 350 664 410 c 1,58,59
 644 388 644 388 614 349 c 0,60,61
 553 270 553 270 517 238 c 0,62,63
 474 198 474 198 433 198 c 0,64,65
 404 198 404 198 381 219 c 0,66,67
 354 243 354 243 314 316 c 0,68,69
 307 328 307 328 294 353 c 0,70,71
 269 399 269 399 256 425 c 1,72,-1
 216 281 l 2,73,74
 155 61 155 61 146 44 c 0,75,76
 143 39 143 39 140 35 c 0,77,78
 126 18 126 18 101 18 c 0,79,80
 101 18 101 18 99 18 c 0,0,1
EndSplineSet
Validated: 33
EndChar

StartChar: N
Encoding: 78 78 49
Width: 682
VWidth: 1075
GlyphClass: 1
Flags: MW
LayerCount: 2
Fore
SplineSet
578 0 m 0,0,1
 556 0 556 0 526 24 c 0,2,3
 498 49 498 49 399 186 c 0,4,5
 340 267 340 267 261 362 c 0,6,-1
 240 387 l 1,7,-1
 209 239 l 0,8,9
 176 80 176 80 161 50 c 0,10,11
 149 26 149 26 137 18 c 0,12,13
 123 10 123 10 104 9 c 0,14,15
 73 9 73 9 68 48 c 0,16,17
 65 82 65 82 85 168 c 0,18,19
 104 252 104 252 129 400 c 0,20,21
 143 482 143 482 156 548 c 0,22,23
 163 580 163 580 184 598 c 0,24,25
 209 620 209 620 242 621 c 0,26,27
 261 621 261 621 274 614 c 0,28,29
 307 594 307 594 329 567 c 24,30,31
 436 430 436 430 534 285 c 0,32,33
 544 270 544 270 559 249 c 1,34,-1
 594 497 l 0,35,36
 601 539 601 539 608 568 c 0,37,38
 618 610 618 610 627 625 c 0,39,40
 652 662 652 662 680 668 c 0,41,42
 710 674 710 674 729 646 c 0,43,44
 747 620 747 620 743 585 c 0,45,46
 714 328 714 328 677 108 c 0,47,48
 672 79 672 79 636 28 c 0,49,50
 616 0 616 0 578 0 c 0,0,1
EndSplineSet
Validated: 33
EndChar

StartChar: O
Encoding: 79 79 50
Width: 652
VWidth: 1075
GlyphClass: 1
Flags: W
LayerCount: 2
Fore
SplineSet
363 671 m 0,0,1
 409 693 409 693 458 694 c 0,2,3
 620 694 620 694 693 508 c 0,4,5
 708 469 708 469 711 439 c 0,6,7
 714 410 714 410 701 336 c 0,8,9
 688 279 688 279 657 222 c 0,10,11
 619 152 619 152 568 104 c 1,12,13
 501 47 501 47 393 19 c 0,14,15
 331 3 331 3 282 3 c 0,16,17
 244 3 244 3 218 12 c 0,18,19
 170 29 170 29 132 90 c 0,20,21
 97 151 97 151 95.5 215.5 c 128,-1,22
 94 280 94 280 108 342 c 0,23,24
 141 483 141 483 256 592 c 0,25,26
 317 649 317 649 363 671 c 0,0,1
224 374 m 0,27,28
 197 295 197 295 214 238 c 0,29,30
 234 174 234 174 279 156 c 0,31,32
 298 148 298 148 323 148 c 0,33,34
 357 148 357 148 403 162 c 0,35,36
 470 184 470 184 516 245 c 0,37,38
 562 304 562 304 561 366 c 0,39,40
 561 407 561 407 528.5 465 c 128,-1,41
 496 523 496 523 468 535 c 0,42,43
 442 546 442 546 412 545 c 0,44,45
 384 545 384 545 354 535 c 0,46,47
 323 524 323 524 301 502 c 0,48,49
 250 453 250 453 224 374 c 0,27,28
EndSplineSet
Validated: 33
EndChar

StartChar: P
Encoding: 80 80 51
Width: 494
VWidth: 1075
GlyphClass: 1
Flags: MW
LayerCount: 2
Fore
SplineSet
567 580 m 0,0,1
 588 520 588 520 572 462 c 0,2,3
 552 389 552 389 499 332 c 0,4,5
 442 269 442 269 380 247 c 0,6,7
 323 226 323 226 235 223 c 1,8,9
 235 223 235 223 223 115 c 1,10,11
 212 65 212 65 185 31 c 0,12,13
 166 7 166 7 143 6 c 0,14,15
 116 5 116 5 109 42 c 0,16,17
 105 65 105 65 105 110 c 0,18,19
 106 203 106 203 120 317 c 0,20,21
 141 488 141 488 151 527 c 0,22,23
 161 572 161 572 179 598 c 0,24,25
 243 693 243 693 378 699 c 0,26,27
 444 698 444 698 491 670 c 0,28,29
 545 638 545 638 567 580 c 0,0,1
433 445 m 0,30,31
 434 448 434 448 436 453 c 0,32,33
 451 520 451 520 400 546 c 0,34,35
 344 575 344 575 269 546 c 1,36,37
 264 524 264 524 263 509 c 0,38,39
 261 483 261 483 253 399 c 0,40,41
 251 377 251 377 251 352 c 1,42,43
 321 351 321 351 332 354 c 0,44,45
 404 372 404 372 433 445 c 0,30,31
EndSplineSet
Validated: 33
EndChar

StartChar: Q
Encoding: 81 81 52
Width: 544
VWidth: 1075
GlyphClass: 1
Flags: MW
LayerCount: 2
Fore
SplineSet
577 436 m 24,0,1
 577 381 577 381 563 325 c 0,2,3
 537 221 537 221 520 195 c 0,4,5
 520 195 520 195 485 142 c 1,6,7
 494 128 494 128 521 35 c 0,8,9
 522 31 522 31 518 11 c 0,10,11
 510 -21 510 -21 483 -37 c 0,12,13
 455 -55 455 -55 435 -34 c 0,14,15
 435 -34 435 -34 377 31 c 1,16,17
 329 3 329 3 270 4 c 0,18,19
 214 4 214 4 166 30 c 0,20,21
 123 53 123 53 101 104 c 0,22,23
 69 173 69 173 70 212 c 0,24,25
 74 320 74 320 132 450 c 0,26,27
 155 502 155 502 217 582 c 0,28,29
 289 677 289 677 382 677 c 0,30,31
 406 677 406 677 447 668 c 0,32,33
 483 660 483 660 498 644 c 0,34,35
 529 614 529 614 552 549 c 0,36,37
 576 480 576 480 577 436 c 24,38,-1
 577 436 l 24,0,1
387 539 m 0,39,40
 311 539 311 539 263 464 c 0,41,42
 229 412 229 412 220 393 c 0,43,44
 184 318 184 318 188 260 c 0,45,46
 189 250 189 250 199 214 c 0,47,48
 204 197 204 197 215 179 c 0,49,50
 223 166 223 166 237 155 c 0,51,52
 257 139 257 139 288 136 c 0,53,54
 308 134 308 134 318 137 c 1,55,56
 317 147 317 147 313 157 c 0,57,58
 291 203 291 203 299 238 c 0,59,60
 304 258 304 258 316 272 c 0,61,62
 336 295 336 295 358 295 c 0,63,64
 381 295 381 295 397 270 c 0,65,66
 421 232 421 232 421 232 c 1,67,68
 466 351 466 351 464 418 c 0,69,70
 463 447 463 447 441 490 c 0,71,72
 414 539 414 539 387 539 c 0,39,40
EndSplineSet
Validated: 37
EndChar

StartChar: R
Encoding: 82 82 53
Width: 570
VWidth: 1075
GlyphClass: 1
Flags: MW
LayerCount: 2
Fore
SplineSet
293 688 m 0,0,1
 317 694 317 694 365 694 c 0,2,3
 468 694 468 694 524 636 c 0,4,5
 581 576 581 576 562 490 c 0,6,7
 551 446 551 446 530 416 c 0,8,9
 508 387 508 387 447 331 c 1,10,11
 447 332 447 332 446 331 c 0,12,13
 407 297 407 297 393 283 c 1,14,15
 404 275 404 275 455 237 c 0,16,17
 521 187 521 187 539 167 c 0,18,19
 559 144 559 144 563 122 c 0,20,21
 566 106 566 106 564 95 c 0,22,23
 560 79 560 79 541 56 c 0,24,25
 517 27 517 27 487 27 c 0,26,27
 450 27 450 27 367 89 c 0,28,29
 287 148 287 148 276 153 c 0,30,31
 231 175 231 175 220 177 c 1,32,33
 216 160 216 160 209 127 c 0,34,35
 194 62 194 62 167 32 c 4,36,37
 142 4 142 4 127 3 c 4,38,39
 112 4 112 4 99 27 c 4,40,41
 90 46 90 46 93 104 c 0,42,43
 95 162 95 162 111 280 c 0,44,45
 136 456 136 456 160 567 c 0,46,47
 174 634 174 634 228 666 c 0,48,49
 248 678 248 678 293 688 c 0,0,1
412 494 m 0,50,51
 416 516 416 516 395 537 c 0,52,53
 370 562 370 562 330 562 c 0,54,55
 322 562 322 562 278 560 c 1,56,-1
 268 500 l 0,57,58
 252 402 252 402 249 342 c 1,59,60
 259 346 259 346 272 353 c 0,61,62
 314 375 314 375 363 426 c 0,63,64
 408 475 408 475 412 494 c 0,50,51
EndSplineSet
Validated: 33
EndChar

StartChar: S
Encoding: 83 83 54
Width: 550
VWidth: 1075
GlyphClass: 1
Flags: MW
LayerCount: 2
Fore
SplineSet
579 351 m 0,0,1
 589 301 589 301 577 245 c 0,2,3
 571 218 571 218 560 191 c 0,4,5
 525 112 525 112 451 65 c 0,6,7
 415 42 415 42 351 21 c 0,8,9
 294 2 294 2 261 2 c 0,10,11
 228 2 228 2 184 25 c 0,12,13
 121 60 121 60 98 110 c 0,14,15
 75 160 75 160 88 215 c 0,16,17
 99 263 99 263 125 278 c 0,18,19
 135 284 135 284 145 284 c 0,20,21
 160 284 160 284 172 263 c 0,22,23
 207 203 207 203 220 191 c 0,24,25
 241 170 241 170 259 162 c 0,26,27
 284 151 284 151 295 151 c 0,28,29
 309 151 309 151 337 162 c 0,30,31
 394 183 394 183 415 202 c 0,32,33
 437 221 437 221 444 249 c 0,34,35
 449 271 449 271 447 285 c 0,36,37
 446 296 446 296 433 316 c 0,38,39
 417 342 417 342 391 355 c 0,40,41
 365 368 365 368 290 385 c 0,42,43
 226 399 226 399 183 427 c 0,44,45
 169 435 169 435 149 472 c 0,46,47
 141 486 141 486 155 542 c 2,48,-1
 155 543 l 2,49,50
 173 621 173 621 259 665 c 0,51,52
 307 689 307 689 362 695 c 0,53,54
 389 698 389 698 415.5 698 c 128,-1,55
 442 698 442 698 466 692 c 0,56,57
 523 676 523 676 543 638 c 0,58,59
 555 616 555 616 550 590 c 0,60,61
 546 572 546 572 531 554 c 0,62,63
 505 525 505 525 466 540 c 0,64,65
 416 562 416 562 359 562 c 0,66,67
 345 562 345 562 282 534 c 1,68,69
 340 511 340 511 354 508 c 0,70,71
 430 490 430 490 507 451 c 0,72,73
 565 422 565 422 579 351 c 0,0,1
EndSplineSet
Validated: 33
EndChar

StartChar: T
Encoding: 84 84 55
Width: 646
VWidth: 1075
GlyphClass: 1
Flags: MW
LayerCount: 2
Fore
SplineSet
351.5 229.5 m 128,-1,1
 379 400 379 400 399 486 c 0,2,3
 403 504 403 504 410 536 c 1,4,5
 377 528 377 528 347 527 c 0,6,7
 335 527 335 527 324 528 c 0,8,9
 291 525 291 525 265 526 c 0,10,11
 215 526 215 526 197 536 c 0,12,13
 158 557 158 557 166 592 c 0,14,15
 174 625 174 625 219 646 c 0,16,17
 245 658 245 658 388 676 c 0,18,19
 532 694 532 694 630 696 c 0,20,21
 654 697 654 697 672 697 c 0,22,23
 704 697 704 697 717 695 c 0,24,25
 738 691 738 691 751 673 c 0,26,27
 769 651 769 651 761.5 619.5 c 128,-1,28
 754 588 754 588 728 566 c 0,29,30
 706 549 706 549 672 544 c 0,31,32
 637 540 637 540 542 536 c 0,33,34
 534 536 534 536 531 536 c 1,35,36
 511 424 511 424 492 320 c 0,37,38
 482 265 482 265 470 204 c 0,39,40
 461 159 461 159 452.5 122.5 c 128,-1,41
 444 86 444 86 437.5 65.5 c 128,-1,42
 431 45 431 45 419.5 29 c 128,-1,43
 408 13 408 13 395 8 c 0,44,45
 384 4 384 4 370 3 c 0,46,47
 329 4 329 4 325 38 c 0,48,0
 324 59 324 59 351.5 229.5 c 128,-1,1
EndSplineSet
Validated: 33
EndChar

StartChar: U
Encoding: 85 85 56
Width: 583
VWidth: 1075
GlyphClass: 1
Flags: MW
LayerCount: 2
Fore
SplineSet
270 18 m 0,0,1
 122 64 122 64 121 315 c 0,2,3
 123 406 123 406 145 499 c 0,4,5
 150 521 150 521 155 542 c 0,6,7
 172 603 172 603 191 634 c 0,8,9
 213 668 213 668 244 668 c 0,10,11
 277 668 277 668 271 590 c 0,12,13
 268 557 268 557 258 504 c 0,14,15
 220 286 220 286 290 201 c 0,16,17
 325 162 325 162 357 162 c 0,18,19
 395 162 395 162 441 225 c 0,20,21
 465 258 465 258 477 293 c 0,22,23
 491 331 491 331 522 467 c 0,24,25
 553 601 553 601 565 635 c 0,26,27
 576 667 576 667 598 680 c 0,28,29
 623 695 623 695 635 696 c 0,30,31
 688 696 688 696 681 581 c 4,32,33
 676 527 676 527 654 431 c 0,34,35
 650 412 650 412 645 392 c 0,36,37
 620 292 620 292 605 251 c 0,38,39
 590 212 590 212 566 177 c 0,40,41
 528 114 528 114 480 71 c 0,42,43
 430 26 430 26 386 14 c 0,44,45
 347 3 347 3 330 3.5 c 128,-1,46
 313 4 313 4 270 18 c 0,0,1
EndSplineSet
Validated: 33
EndChar

StartChar: V
Encoding: 86 86 57
Width: 682
VWidth: 1075
GlyphClass: 1
Flags: MW
LayerCount: 2
Fore
SplineSet
442 19.5 m 128,-1,1
 408 -1 408 -1 388 -1 c 0,2,3
 381 -1 381 -1 371 5 c 0,4,5
 362 11 362 11 347 25 c 0,6,7
 314 51 314 51 290.5 96 c 128,-1,8
 267 141 267 141 212 290 c 0,9,10
 161 431 161 431 153 490 c 0,11,12
 149 521 149 521 155 543 c 0,13,14
 161 570 161 570 179 586 c 0,15,16
 201 607 201 607 218 607 c 0,17,18
 225 607 225 607 230 604 c 0,19,20
 242 598 242 598 261 566 c 0,21,22
 281 534 281 534 309 464 c 0,23,24
 335 406 335 406 394 261 c 0,25,26
 409 234 409 234 421 199 c 1,27,28
 476 296 476 296 531 391 c 0,29,30
 654 606 654 606 685 643 c 0,31,32
 712 676 712 676 742 680 c 0,33,34
 749 682 749 682 756 681 c 0,35,36
 777 681 777 681 788 664 c 0,37,38
 802 644 802 644 793 608 c 0,39,40
 788 586 788 586 724 465 c 128,-1,41
 660 344 660 344 588 219 c 0,42,43
 515 94 515 94 493 66 c 0,44,0
 476 40 476 40 442 19.5 c 128,-1,1
EndSplineSet
Validated: 33
EndChar

StartChar: W
Encoding: 87 87 58
Width: 682
VWidth: 1075
GlyphClass: 1
Flags: MW
LayerCount: 2
Fore
SplineSet
172 616 m 0,0,1
 176 632 176 632 185 643 c 0,2,3
 197 654 197 654 216 656 c 0,4,5
 220 657 220 657 222 657 c 0,6,7
 233 657 233 657 240 652 c 0,8,9
 249 646 249 646 256 636 c 1,10,11
 276 537 276 537 276 532 c 0,12,13
 278 474 278 474 268 264 c 1,14,-1
 269 213 l 1,15,-1
 293 242 l 1,16,17
 361 336 361 336 412 336 c 0,18,19
 435 336 435 336 459 314 c 0,20,21
 476 297 476 297 507 241 c 0,22,23
 527 206 527 206 548 184 c 1,24,25
 558 200 558 200 570 239 c 0,26,27
 615 389 615 389 616 392 c 0,28,29
 658 539 658 539 674 576 c 0,30,31
 687 608 687 608 710 627 c 128,-1,32
 733 646 733 646 740 647 c 0,33,34
 742 647 742 647 744 647 c 0,35,36
 753 647 753 647 767 638 c 0,37,38
 789 623 789 623 785 577 c 0,39,40
 783 560 783 560 774 524 c 0,41,42
 761 468 761 468 734 379 c 0,43,44
 669 158 669 158 642 102 c 0,45,46
 612 37 612 37 571 20 c 0,47,48
 548 10 548 10 530 10 c 0,49,50
 505 10 505 10 495 17 c 0,51,52
 455 52 455 52 419 106 c 2,53,-1
 373 178 l 1,54,55
 356 156 356 156 335 118 c 1,56,57
 281 42 281 42 248 22 c 0,58,59
 225 8 225 8 204 8 c 0,60,61
 196 8 196 8 177 14 c 0,62,63
 165 18 165 18 160 31 c 0,64,65
 153 50 153 50 151 76 c 0,66,67
 147 131 147 131 147 310 c 0,68,69
 147 509 147 509 172 616 c 0,0,1
EndSplineSet
Validated: 33
EndChar

StartChar: X
Encoding: 88 88 59
Width: 617
VWidth: 1075
GlyphClass: 1
Flags: MW
LayerCount: 2
Fore
SplineSet
176 48 m 0,0,1
 133 11 133 11 103 11 c 0,2,3
 74 11 74 11 61 30 c 0,4,5
 47 50 47 50 54 76 c 0,6,7
 56 82 56 82 63 93.5 c 128,-1,8
 70 105 70 105 93 133 c 0,9,10
 116 160 116 160 155 203 c 0,11,-1
 260 314 l 1,12,13
 260 323 260 323 249 346 c 0,14,15
 247 351 247 351 213 411 c 0,16,17
 163 500 163 500 159 536 c 0,18,19
 157 552 157 552 160 566 c 0,20,21
 166 592 166 592 189 611 c 0,22,23
 212 629 212 629 231 629 c 0,24,25
 243 629 243 629 255 622 c 0,26,27
 281 606 281 606 334 536 c 0,28,29
 377 479 377 479 394 461 c 1,30,31
 430 493 430 493 494 560 c 0,32,33
 536 604 536 604 566 633 c 0,34,35
 597 662 597 662 609.5 671.5 c 128,-1,36
 622 681 622 681 628 683 c 0,37,38
 668 698 668 698 687 690 c 0,39,40
 716 679 716 679 714 646 c 0,41,42
 712 607 712 607 688 582 c 0,43,44
 675 568 675 568 569 456 c 0,45,46
 499 381 499 381 470 350 c 1,47,48
 501 298 501 298 531 246 c 0,49,50
 577 165 577 165 593 123 c 0,51,52
 609 78 609 78 599 49 c 0,53,54
 591 24 591 24 577 14 c 0,55,56
 569 8 569 8 538 4 c 0,57,58
 507 0 507 0 486 18 c 0,59,60
 451 47 451 47 413 112 c 0,61,62
 367 190 367 190 344 213 c 1,63,64
 339 209 339 209 295 162 c 0,65,66
 237 99 237 99 176 48 c 0,0,1
EndSplineSet
Validated: 33
EndChar

StartChar: Y
Encoding: 89 89 60
Width: 659
VWidth: 1075
GlyphClass: 1
Flags: MW
LayerCount: 2
Fore
SplineSet
372 0 m 0,0,1
 354 0 354 0 335 15 c 0,2,3
 319 27 319 27 320 51 c 0,4,5
 321 75 321 75 336 149 c 0,6,7
 352 227 352 227 352 246 c 0,8,9
 351 264 351 264 337 282 c 0,10,11
 318 306 318 306 240 454 c 0,12,13
 210 508 210 508 195 540 c 0,14,15
 170 612 170 612 178 644 c 0,16,17
 182 661 182 661 209 671 c 0,18,19
 220 676 220 676 232 677 c 0,20,21
 254 677 254 677 276 657 c 0,22,23
 307 626 307 626 370 522 c 1,24,-1
 442 418 l 1,25,-1
 548 532 l 2,26,27
 642 637 642 637 679 667 c 0,28,29
 714 693 714 693 744 693 c 0,30,31
 771 693 771 693 779 681 c 0,32,33
 782 674 782 674 779 648 c 0,34,35
 780 647 780 647 779 646 c 0,36,37
 778 643 778 643 778 642 c 0,38,39
 772 614 772 614 747 577 c 0,40,41
 724 545 724 545 639 447 c 2,42,-1
 506 294 l 1,43,-1
 478 179 l 2,44,45
 455 84 455 84 438 46 c 0,46,47
 419 9 419 9 381 1 c 0,48,49
 376 0 376 0 372 0 c 0,0,1
EndSplineSet
Validated: 33
EndChar

StartChar: Z
Encoding: 90 90 61
Width: 658
VWidth: 1075
GlyphClass: 1
Flags: MW
LayerCount: 2
Fore
SplineSet
501 164 m 0,0,1
 579 164 579 164 603 158.5 c 128,-1,2
 627 153 627 153 639 137 c 0,3,4
 654 116 654 116 647 85 c 0,5,6
 635 32 635 32 585 20 c 0,7,8
 568 16 568 16 535 14 c 0,9,10
 488 10 488 10 462 9 c 0,11,12
 380 7 380 7 358 6 c 0,13,14
 321 5 321 5 216 4 c 0,15,16
 153 4 153 4 145 5 c 0,17,18
 71 22 71 22 102 88 c 0,19,20
 142 173 142 173 538 548 c 1,21,22
 460 545 460 545 281 545 c 0,23,24
 177 545 177 545 193 613 c 0,25,26
 205 665 205 665 276 681 c 0,27,28
 318 691 318 691 365 692 c 0,29,30
 523 695 523 695 581 694 c 0,31,32
 643 693 643 693 681 683 c 0,33,34
 703 677 703 677 715.5 657.5 c 128,-1,35
 728 638 728 638 730 624 c 0,36,37
 735 572 735 572 601 439 c 0,38,39
 490 327 490 327 342 161 c 1,40,41
 422 164 422 164 501 164 c 0,0,1
EndSplineSet
Validated: 33
EndChar

StartChar: backslash
Encoding: 92 92 62
Width: 503
VWidth: 1075
GlyphClass: 1
Flags: MW
LayerCount: 2
Fore
SplineSet
212 728 m 4,0,1
 226 735 226 735 238 735 c 4,2,3
 251 735 251 735 259 728 c 4,4,5
 273 718 273 718 278 702 c 4,6,7
 357 532 357 532 427 356 c 4,8,9
 445 311 445 311 465 251 c 4,10,11
 477 211 477 211 486 174 c 4,12,13
 497 130 497 130 497 116 c 4,14,15
 499 90 499 90 495 68 c 4,16,17
 491 54 491 54 483 41 c 4,18,19
 475 28 475 28 463 16 c 4,20,21
 447 2 447 2 437 -5 c 4,22,23
 425 -14 425 -14 418 -14 c 4,24,25
 408 -14 408 -14 388 4 c 4,26,27
 374 17 374 17 351 71 c 4,28,29
 302 186 302 186 262 313 c 4,30,31
 197 510 197 510 195 520 c 4,32,33
 166 636 166 636 173 683 c 4,34,35
 174 689 174 689 176 694 c 4,36,37
 186 717 186 717 212 728 c 4,0,1
EndSplineSet
Validated: 33
EndChar

StartChar: underscore
Encoding: 95 95 63
Width: 683
VWidth: 1075
GlyphClass: 1
Flags: MW
LayerCount: 2
Fore
SplineSet
33 17 m 0,0,1
 39 44 39 44 76 66 c 0,2,3
 103 83 103 83 155 89 c 0,4,5
 208 95 208 95 438 110 c 0,6,7
 510 115 510 115 555 115 c 0,8,9
 587 114 587 114 606 112 c 0,10,11
 657 104 657 104 664 72 c 0,12,13
 667 56 667 56 663 38 c 0,14,15
 661 27 661 27 656 16 c 0,16,17
 642 -16 642 -16 619 -28 c 0,18,19
 609 -33 609 -33 552 -37 c 0,20,21
 492 -41 492 -41 378 -44 c 128,-1,22
 264 -47 264 -47 184.5 -47 c 128,-1,23
 105 -47 105 -47 83 -41 c 0,24,25
 36 -29 36 -29 33 3 c 0,26,27
 31 10 31 10 33 17 c 0,0,1
EndSplineSet
Validated: 33
EndChar

StartChar: a
Encoding: 97 97 64
Width: 535
VWidth: 1075
GlyphClass: 1
Flags: MW
LayerCount: 2
Fore
SplineSet
117 38.7001953125 m 128,-1,1
 100.799804688 6.2998046875 100.799804688 6.2998046875 80.099609375 6.2998046875 c 0,2,3
 56.7001953125 6.2998046875 56.7001953125 6.2998046875 39.599609375 27 c 0,4,5
 32.400390625 37.7998046875 32.400390625 37.7998046875 32.400390625 62.5498046875 c 128,-1,6
 32.400390625 87.2998046875 32.400390625 87.2998046875 38.7001953125 127.799804688 c 0,7,8
 50.400390625 204.299804688 50.400390625 204.299804688 90 380.700195312 c 0,9,10
 129.599609375 549.900390625 129.599609375 549.900390625 136.799804688 602.099609375 c 0,11,12
 143.099609375 644.400390625 143.099609375 644.400390625 165.599609375 671.400390625 c 128,-1,13
 188.099609375 698.400390625 188.099609375 698.400390625 216.900390625 698.400390625 c 0,14,15
 231.299804688 698.400390625 231.299804688 698.400390625 239.400390625 693.900390625 c 0,16,17
 255.599609375 687.599609375 255.599609375 687.599609375 273.599609375 667.349609375 c 128,-1,18
 291.599609375 647.099609375 291.599609375 647.099609375 314.099609375 605.700195312 c 0,19,20
 353.700195312 535.5 353.700195312 535.5 422.099609375 364.5 c 1,21,22
 455.400390625 269.099609375 455.400390625 269.099609375 472.049804688 223.650390625 c 128,-1,23
 488.700195312 178.200195312 488.700195312 178.200195312 495.900390625 147.599609375 c 128,-1,24
 503.099609375 117 503.099609375 117 503.099609375 102.599609375 c 0,25,26
 503.099609375 81.900390625 503.099609375 81.900390625 486.900390625 62.099609375 c 0,27,28
 470.700195312 44.099609375 470.700195312 44.099609375 453.599609375 44.099609375 c 0,29,30
 440.099609375 44.099609375 440.099609375 44.099609375 427.5 54 c 0,31,32
 403.200195312 73.7998046875 403.200195312 73.7998046875 367.200195312 141.299804688 c 2,33,-1
 333 209.700195312 l 1,34,35
 320.400390625 210.599609375 320.400390625 210.599609375 307.799804688 210.599609375 c 2,36,-1
 250.200195312 206.099609375 l 2,37,38
 180.900390625 203.400390625 180.900390625 203.400390625 160.200195312 200.700195312 c 1,39,40
 155.700195312 188.099609375 155.700195312 188.099609375 147.599609375 144 c 0,41,0
 133.200195312 71.099609375 133.200195312 71.099609375 117 38.7001953125 c 128,-1,1
231.299804688 337.5 m 0,42,43
 269.099609375 342 269.099609375 342 281.700195312 343.799804688 c 1,44,45
 275.400390625 363.599609375 275.400390625 363.599609375 257.400390625 409.049804688 c 128,-1,46
 239.400390625 454.5 239.400390625 454.5 228.599609375 477.900390625 c 1,47,48
 222.299804688 458.099609375 222.299804688 458.099609375 214.200195312 422.099609375 c 0,49,50
 198.900390625 351.900390625 198.900390625 351.900390625 193.5 333 c 1,51,52
 202.5 333.900390625 202.5 333.900390625 231.299804688 337.5 c 0,42,43
EndSplineSet
Validated: 1
EndChar

StartChar: i
Encoding: 105 105 72
Width: 232
VWidth: 1075
GlyphClass: 1
Flags: W
LayerCount: 2
Fore
SplineSet
251 690 m 0,0,1
 269 690 269 690 280 676 c 0,2,3
 296 652 296 652 292 593 c 0,4,5
 286 517 286 517 261 369 c 0,6,7
 226 170 226 170 210 119 c 0,8,9
 195 60 195 60 185 38 c 0,10,11
 164 -1 164 -1 128 -1 c 0,12,13
 112 -1 112 -1 100 20 c 0,14,15
 88 37 88 37 88 59 c 0,16,17
 88 83 88 83 95 136 c 0,18,19
 100 173 100 173 130 342 c 0,20,21
 160 512 160 512 177 592 c 0,22,23
 189 646 189 646 197 661 c 0,24,25
 214 690 214 690 251 690 c 0,0,1
EndSplineSet
Validated: 33
EndChar

StartChar: braceleft
Encoding: 123 123 90
Width: 631
VWidth: 1075
GlyphClass: 1
Flags: MW
LayerCount: 2
Fore
SplineSet
386 709 m 4,0,1
 410 815 410 815 440 863 c 4,2,3
 472 914 472 914 541 942 c 4,4,5
 601 967 601 967 641 967 c 4,6,7
 688 967 688 967 708 934 c 4,8,9
 723 908 723 908 718 886 c 4,10,11
 708 841 708 841 625 831 c 4,12,13
 588 826 588 826 582 825 c 4,14,15
 569 822 569 822 557 815 c 4,16,17
 544 808 544 808 538 801 c 4,18,19
 533 795 533 795 524 772 c 4,20,21
 516 750 516 750 509 726 c 4,22,23
 501 702 501 702 491 660 c 4,24,25
 477 600 477 600 469 571 c 4,26,27
 461 543 461 543 450 527 c 4,28,29
 436 507 436 507 413 490 c 4,30,31
 406 486 406 486 323 444 c 5,32,33
 388 376 388 376 366 232 c 29,34,35
 358 195 358 195 354 173 c 4,36,37
 351 154 351 154 353 141 c 4,38,39
 356 127 356 127 361 121 c 4,40,41
 369 114 369 114 382 109 c 4,42,43
 398 104 398 104 418 102 c 4,44,45
 438 100 438 100 476 98 c 4,46,47
 539 95 539 95 563 88 c 4,48,49
 586 81 586 81 599 58 c 4,50,51
 611 35 611 35 606 16 c 4,52,53
 605 9 605 9 590 -14 c 4,54,55
 575 -39 575 -39 516 -61 c 4,56,57
 497 -68 497 -68 437 -66 c 4,58,59
 422 -66 422 -66 406 -64 c 4,60,61
 324 -58 324 -58 246 -15 c 4,62,63
 220 0 220 0 215 15 c 4,64,65
 211 31 211 31 214 83 c 4,66,67
 217 126 217 126 226 193 c 4,68,-1
 230 232 l 4,69,70
 232 248 232 248 232 273 c 4,71,72
 232 296 232 296 231 303 c 4,73,74
 229 310 229 310 219 323 c 4,75,76
 209 335 209 335 199 344 c 4,77,78
 173 367 173 367 169 370 c 4,79,80
 122 405 122 405 132 445 c 4,81,82
 139 479 139 479 185 511 c 4,83,84
 225 540 225 540 357 587 c 5,85,-1
 386 709 l 4,0,1
EndSplineSet
Validated: 33
EndChar

StartChar: braceright
Encoding: 125 125 91
Width: 528
VWidth: 967
GlyphClass: 1
Flags: MW
LayerCount: 2
Fore
SplineSet
31 22 m 0,0,1
 35 36 35 36 45 48 c 0,2,3
 70 82 70 82 128 83 c 0,4,5
 148 83 148 83 175 89 c 0,6,7
 201 95 201 95 223 103 c 2,8,-1
 244 112 l 2,9,10
 246 113 246 113 253 118 c 0,11,12
 259 122 259 122 260 125 c 0,13,14
 263 132 263 132 265 139 c 128,-1,15
 267 146 267 146 267 152 c 0,16,17
 268 167 268 167 270 178 c 0,18,19
 282 282 282 282 286 318 c 0,20,21
 292 376 292 376 336 404 c 1,22,23
 336 404 336 404 422 458 c 1,24,25
 339 475 339 475 315 494 c 0,26,27
 297 509 297 509 298 538 c 0,28,29
 298 544 298 544 300 558 c 0,30,31
 301 563 301 563 305 583 c 0,32,33
 309 602 309 602 311 614 c 0,34,35
 314 625 314 625 321 654 c 0,36,37
 329 688 329 688 334 710 c 0,38,39
 339 732 339 732 339 750 c 0,40,41
 340 768 340 768 337 777 c 0,42,43
 335 786 335 786 327 793 c 0,44,45
 320 801 320 801 308 805 c 0,46,47
 298 809 298 809 276 816 c 0,48,49
 254 823 254 823 243 839 c 0,50,51
 229 857 229 857 234 879 c 0,52,53
 237 894 237 894 250 910 c 0,54,55
 262 925 262 925 285 935 c 0,56,57
 307 944 307 944 331 944 c 0,58,59
 431 944 431 944 468 868 c 0,60,61
 496 810 496 810 477 725 c 0,62,63
 476 721 476 721 459 669 c 0,64,65
 449 637 449 637 447 628 c 0,66,67
 441 601 441 601 446 592 c 0,68,69
 449 587 449 587 463 582 c 0,70,71
 477 578 477 578 509 578 c 0,72,73
 569 578 569 578 596 555 c 0,74,75
 626 531 626 531 616 488 c 0,76,77
 609 455 609 455 576 426 c 0,78,79
 538 391 538 391 463 361 c 0,80,81
 426 346 426 346 417 336 c 0,82,83
 414 332 414 332 412 327 c 0,84,85
 411 321 411 321 410 315 c 0,86,87
 408 233 408 233 390 155 c 0,88,89
 377 96 377 96 359 67 c 0,90,91
 329 17 329 17 271 -13 c 0,92,93
 213 -43 213 -43 142 -50 c 0,94,95
 112 -52 112 -52 96 -52 c 0,96,97
 81 -52 81 -52 73 -51 c 0,98,99
 53 -48 53 -48 42 -30 c 0,100,101
 25 -4 25 -4 31 22 c 0,0,1
EndSplineSet
Validated: 33
EndChar

StartChar: asciitilde
Encoding: 126 126 92
Width: 459
VWidth: 1075
GlyphClass: 1
Flags: MW
LayerCount: 2
Fore
SplineSet
289 478 m 0,0,1
 283 477 283 477 272 471 c 0,2,3
 241 456 241 456 235 451 c 0,4,5
 202 427 202 427 174 429 c 0,6,7
 166 430 166 430 162 435 c 0,8,9
 154 445 154 445 160 457 c 0,10,11
 161 459 161 459 168 481 c 0,12,13
 171 489 171 489 196 515 c 0,14,15
 209 528 209 528 234 546 c 0,16,17
 297 588 297 588 332 588 c 0,18,19
 343 588 343 588 350 583 c 0,20,21
 372 570 372 570 384 545 c 0,22,23
 391 530 391 530 399 523 c 0,24,25
 406 517 406 517 422 515 c 0,26,27
 431 514 431 514 436 514 c 0,28,29
 453 514 453 514 458 516 c 0,30,31
 466 519 466 519 486 536 c 0,32,33
 509 555 509 555 512 556 c 0,34,35
 514 557 514 557 517 557 c 0,36,37
 523 557 523 557 529 550 c 0,38,39
 538 542 538 542 532 510 c 0,40,41
 525 480 525 480 511 463 c 0,42,43
 487 434 487 434 447 420 c 0,44,45
 411 408 411 408 391 411 c 0,46,47
 359 416 359 416 326 463 c 0,48,49
 313 481 313 481 289 478 c 0,0,1
EndSplineSet
Validated: 33
EndChar

StartChar: sterling
Encoding: 163 163 94
Width: 599
VWidth: 870
GlyphClass: 1
Flags: MW
LayerCount: 2
Fore
SplineSet
524 39 m 0,0,1
 544 57 544 57 560 57 c 0,2,3
 568 57 568 57 574 54 c 0,4,5
 591 43 591 43 586 16 c 0,6,7
 576 -24 576 -24 528 -48 c 0,8,9
 492 -66 492 -66 452 -66 c 0,10,11
 404 -66 404 -66 376 -40 c 0,12,13
 355 -20 355 -20 342 14 c 0,14,15
 334 36 334 36 305 52 c 0,16,17
 277 69 277 69 244 69 c 0,18,19
 177 69 177 69 97 2 c 0,20,21
 71 -19 71 -19 55.5 -29 c 128,-1,22
 40 -39 40 -39 31 -39 c 0,23,24
 22 -39 22 -39 18 -34 c 0,25,26
 11 -26 11 -26 15 -11 c 0,27,28
 22 18 22 18 86 99 c 0,29,30
 100 116 100 116 116 134 c 0,31,32
 194 220 194 220 245 301 c 0,33,34
 280 358 280 358 287 389 c 1,35,36
 273 387 273 387 262 383 c 0,37,38
 233 374 233 374 195 349 c 0,39,40
 157 324 157 324 144 320 c 0,41,42
 137 318 137 318 131 324 c 0,43,44
 126 328 126 328 127 344 c 0,45,46
 129 368 129 368 147 386 c 0,47,48
 161 402 161 402 189 424 c 0,49,50
 236 460 236 460 273 469 c 0,51,52
 292 473 292 473 297 477.5 c 128,-1,53
 302 482 302 482 305.5 496 c 128,-1,54
 309 510 309 510 306 529 c 0,55,56
 304 542 304 542 296 559 c 0,57,58
 263 623 263 623 279 692 c 0,59,60
 292 746 292 746 329 785 c 0,61,62
 362 820 362 820 404 832 c 0,63,64
 422 838 422 838 442 838 c 0,65,66
 462 838 462 838 483 829 c 0,67,68
 505 820 505 820 516 801 c 0,69,70
 528 780 528 780 534 744 c 0,71,72
 541 709 541 709 543 698 c 0,73,74
 546 686 546 686 553 680 c 17,75,76
 557 682 557 682 575 687 c 0,77,78
 600 694 600 694 606 682 c 0,79,80
 609 676 609 676 605 667 c 0,81,82
 580 603 580 603 527 600 c 0,83,84
 502 599 502 599 490 609 c 1,85,86
 466 628 466 628 458 674 c 0,87,88
 448 729 448 729 427 733 c 0,89,90
 405 736 405 736 387 719 c 0,91,92
 360 695 360 695 384 605 c 0,93,94
 388 590 388 590 402 497 c 0,95,96
 406 470 406 470 415 454 c 0,97,98
 424 438 424 438 443 424 c 0,99,100
 480 400 480 400 491 405 c 0,101,102
 499 409 499 409 514 427 c 0,103,104
 545 461 545 461 571 461 c 0,105,106
 592 461 592 461 595 434 c 0,107,108
 596 429 596 429 594 424 c 0,109,110
 588 398 588 398 544 357 c 0,111,112
 511 326 511 326 494 319 c 0,113,114
 483 315 483 315 471 315 c 0,115,116
 459 315 459 315 443 317 c 0,117,118
 428 319 428 319 410 329 c 0,119,120
 389 340 389 340 384 352 c 1,121,122
 363 310 363 310 356 297 c 0,123,124
 335 247 335 247 307 199 c 1,125,126
 318 195 318 195 335 191 c 0,127,128
 380 182 380 182 404 154 c 0,129,130
 431 122 431 122 436 74 c 0,131,132
 437 62 437 62 445 51 c 0,133,134
 451 43 451 43 463 37 c 0,135,136
 487 25 487 25 498 25 c 128,-1,137
 509 25 509 25 524 39 c 0,0,1
EndSplineSet
Validated: 33
EndChar

StartChar: yen
Encoding: 165 165 96
Width: 491
VWidth: 870
GlyphClass: 1
Flags: MW
LayerCount: 2
Fore
SplineSet
351 166 m 2,0,1
 344 126 344 126 331 68 c 0,2,3
 324 36 324 36 320 24 c 0,4,5
 310 -7 310 -7 285 -44 c 0,6,7
 256 -84 256 -84 236 -94 c 0,8,9
 228 -98 228 -98 221 -98 c 0,10,11
 204 -98 204 -98 196 -78 c 0,12,13
 179 -41 179 -41 182 13 c 0,14,15
 186 55 186 55 198 106 c 0,16,17
 201 118 201 118 204 130 c 0,18,19
 213 170 213 170 214 173 c 2,20,-1
 237 257 l 1,21,-1
 215 264 l 2,22,23
 206 268 206 268 195 266 c 0,24,25
 185 266 185 266 175 260 c 0,26,27
 161 251 161 251 149.5 251 c 128,-1,28
 138 251 138 251 133 262 c 0,29,30
 129 270 129 270 131 278 c 0,31,32
 133 285 133 285 136 292 c 0,33,34
 144 303 144 303 167 319 c 0,35,36
 189 335 189 335 205 338 c 0,37,38
 213 340 213 340 222 340 c 128,-1,39
 231 340 231 340 242 338 c 0,40,41
 252 335 252 335 259 335 c 1,42,43
 261 342 261 342 275 397 c 0,44,45
 278 410 278 410 277 417 c 1,46,47
 273 418 273 418 270 418 c 0,48,49
 266 418 266 418 265 418 c 0,50,51
 246 418 246 418 212 405 c 0,52,53
 189 396 189 396 175 396 c 128,-1,54
 161 396 161 396 158 409 c 0,55,56
 158 413 158 413 159 417 c 0,57,58
 161 426 161 426 171 436 c 0,59,60
 181 448 181 448 200 464 c 0,61,62
 243 500 243 500 279 501 c 0,63,64
 290 501 290 501 297 504 c 1,65,66
 301 512 301 512 307 536 c 128,-1,67
 313 560 313 560 309 581 c 128,-1,68
 305 602 305 602 288 645 c 0,69,70
 259 716 259 716 230 735 c 0,71,72
 211 748 211 748 204 757 c 0,73,74
 194 770 194 770 197 780 c 0,75,76
 198 784 198 784 201 788 c 0,77,78
 213 807 213 807 235 806 c 0,79,80
 241 806 241 806 247 805 c 0,81,82
 270 801 270 801 294 787 c 0,83,84
 319 773 319 773 341 751 c 0,85,86
 363 728 363 728 370 703 c 0,87,88
 375 690 375 690 380 682 c 1,89,90
 387 688 387 688 405 691 c 0,91,92
 408 690 408 690 423 688 c 0,93,94
 434 686 434 686 439 688 c 128,-1,95
 444 690 444 690 452 700 c 0,96,97
 478 734 478 734 537 764 c 0,98,99
 586 789 586 789 612 789 c 0,100,101
 620 790 620 790 625 788 c 0,102,103
 641 783 641 783 647 776 c 0,104,105
 652 768 652 768 650 760 c 0,106,107
 647 748 647 748 632 740 c 0,108,109
 622 735 622 735 604 728 c 0,110,111
 585 723 585 723 550 695 c 128,-1,112
 515 667 515 667 478 624 c 0,113,114
 461 605 461 605 451.5 586.5 c 128,-1,115
 442 568 442 568 436 543 c 2,116,117
 436 542 436 542 428 508 c 1,118,119
 469 512 469 512 476 512 c 0,120,121
 494 512 494 512 504 506 c 0,122,123
 515 501 515 501 532 476 c 0,124,125
 541 462 541 462 545 445 c 0,126,127
 549 429 549 429 547 419 c 0,128,129
 546 415 546 415 544 413 c 0,130,131
 539 402 539 402 532 396 c 0,132,133
 521 386 521 386 509 386 c 0,134,135
 485 386 485 386 468 417 c 0,136,137
 460 432 460 432 453 435 c 0,138,139
 451 436 451 436 446 436 c 0,140,141
 442 436 442 436 433 434 c 0,142,143
 418 430 418 430 412 427 c 0,144,145
 408 423 408 423 404 401 c 2,146,-1
 388 334 l 1,147,-1
 415 339 l 2,148,149
 427 342 427 342 440 342 c 0,150,151
 451 342 451 342 459 339 c 0,152,153
 472 334 472 334 487 312 c 0,154,155
 505 287 505 287 500 267 c 0,156,157
 499 261 499 261 495 255 c 0,158,159
 485 238 485 238 473 238 c 0,160,161
 470 238 470 238 468 239 c 0,162,163
 448 246 448 246 439 248 c 2,164,-1
 390 261 l 1,165,-1
 368 261 l 1,166,-1
 351 166 l 2,0,1
EndSplineSet
Validated: 33
EndChar

StartChar: copyright
Encoding: 169 169 97
Width: 639
VWidth: 1075
GlyphClass: 1
Flags: MW
LayerCount: 2
Fore
SplineSet
719 419 m 0,0,1
 714 398 714 398 707 374 c 0,2,3
 649 179 649 179 464 81 c 0,4,5
 429 62 429 62 406 57 c 0,6,7
 378 50 378 50 329.5 50 c 128,-1,8
 281 50 281 50 259 58 c 0,9,10
 209 75 209 75 170 116 c 0,11,12
 128 159 128 159 112 208 c 0,13,14
 102 240 102 240 101.5 302 c 128,-1,15
 101 364 101 364 110 401 c 0,16,17
 133 499 133 499 177 567 c 0,18,19
 228 644 228 644 289 697 c 0,20,21
 330 731 330 731 399 752 c 0,22,23
 431 762 431 762 531 765 c 0,24,25
 534 765 534 765 537 765 c 0,26,27
 610 765 610 765 658 736 c 0,28,29
 678 724 678 724 699 680 c 0,30,31
 721 633 721 633 727 597 c 0,32,33
 742 519 742 519 719 419 c 0,0,1
208 421 m 0,34,35
 207 415 207 415 205 409 c 0,36,37
 195 367 195 367 194 350 c 0,38,39
 193 334 193 334 199 302 c 0,40,41
 210 246 210 246 232 220 c 0,42,43
 263 183 263 183 308 170 c 0,44,45
 328 165 328 165 349 165 c 0,46,47
 393 165 393 165 439 190 c 0,48,49
 509 228 509 228 543 269 c 0,50,51
 581 318 581 318 601 392 c 0,52,53
 605 405 605 405 607 415 c 0,54,55
 620 472 620 472 618 509 c 0,56,57
 616 557 616 557 593.5 593.5 c 128,-1,58
 571 630 571 630 547 644 c 128,-1,59
 523 658 523 658 468 661 c 0,60,61
 457 662 457 662 448 662 c 128,-1,62
 439 662 439 662 418 660 c 1,63,-1
 418 661 l 1,64,65
 370 656 370 656 339 628 c 0,66,67
 301 596 301 596 256 528 c 0,68,69
 233 492 233 492 224.5 473 c 128,-1,70
 216 454 216 454 208 421 c 0,34,35
458 605 m 0,71,72
 499 605 499 605 522 578 c 0,73,74
 541 556 541 556 536 531 c 0,75,76
 534 523 534 523 529 515 c 0,77,78
 518 495 518 495 498 495 c 0,79,80
 490 495 490 495 479 498 c 0,81,82
 441 504 441 504 432.5 504 c 128,-1,83
 424 504 424 504 419 503 c 0,84,85
 403 500 403 500 382 477 c 0,86,87
 349 442 349 442 342 414 c 0,88,89
 338 398 338 398 342 382 c 0,90,91
 351 343 351 343 388 334 c 0,92,93
 393 333 393 333 397 333 c 128,-1,94
 401 333 401 333 405 335 c 0,95,96
 414 339 414 339 438 354 c 0,97,98
 478 382 478 382 494 382 c 0,99,100
 513 382 513 382 518 358 c 0,101,102
 521 344 521 344 518 329 c 0,103,104
 511 297 511 297 473 265 c 0,105,106
 422 220 422 220 365 220 c 0,107,108
 344 220 344 220 310 242 c 0,109,110
 281 262 281 262 268 286 c 0,111,112
 258 305 258 305 252 351 c 0,113,114
 248 377 248 377 254 404 c 2,115,-1
 255 405 l 2,116,117
 259 421 259 421 266 438 c 0,118,119
 285 483 285 483 314 520 c 128,-1,120
 343 557 343 557 382.5 581 c 128,-1,121
 422 605 422 605 458 605 c 0,71,72
EndSplineSet
Validated: 33
EndChar

StartChar: degree
Encoding: 176 176 98
Width: 295
VWidth: 1075
GlyphClass: 1
Flags: MW
LayerCount: 2
Fore
SplineSet
182 715 m 0,0,1
 184 723 184 723 188 731 c 0,2,3
 216 796 216 796 261 830 c 0,4,5
 307 864 307 864 352 864 c 0,6,7
 389 864 389 864 420 842 c 0,8,9
 450 820 450 820 451 772 c 0,10,11
 452 750 452 750 447 726 c 0,12,13
 442 703 442 703 429 678 c 0,14,15
 404 629 404 629 362 603 c 0,16,17
 334 586 334 586 295 586 c 0,18,19
 202 586 202 586 183 661 c 4,20,21
 176 690 176 690 182 715 c 0,0,1
308 760 m 0,22,23
 296 760 296 760 289 755 c 0,24,25
 275 743 275 743 271.5 727 c 128,-1,26
 268 711 268 711 277 703 c 0,27,28
 297 693 297 693 305 693 c 0,29,30
 317 693 317 693 328 699 c 0,31,32
 342 707 342 707 347 727 c 0,33,34
 350 740 350 740 344 746 c 0,35,36
 335 758 335 758 317 760 c 0,37,38
 311 760 311 760 308 760 c 0,22,23
EndSplineSet
Validated: 33
EndChar

StartChar: quotedblleft
Encoding: 8220 8220 105
Width: 429
VWidth: 1075
GlyphClass: 1
Flags: MW
LayerCount: 2
Fore
SplineSet
556 878 m 0,0,1
 592 876 592 876 599 830 c 0,2,3
 601 811 601 811 597 792 c 0,4,5
 592 770 592 770 577 746 c 0,6,7
 548 699 548 699 515 699 c 2,8,-1
 514 699 l 2,9,10
 508 700 508 700 506 698 c 0,11,12
 506 697 506 697 505 696 c 0,13,14
 502 682 502 682 508 636.5 c 0,15,16
 514 592 514 592 509 572 c 0,17,18
 507 565 507 565 504 559 c 0,19,20
 490 532 490 532 466 532 c 0,21,22
 450 532 450 532 439 546 c 0,23,24
 422 566 422 566 411 613 c 128,-1,25
 400 660 400 660 405 699 c 0,26,27
 407 714 407 714 410 730 c 0,28,29
 420 774 420 774 445 811 c 0,30,31
 479 862 479 862 526 873 c 0,32,33
 545 877 545 877 549 877.5 c 128,-1,34
 553 878 553 878 556 878 c 0,0,1
310 859 m 0,35,36
 343 859 343 859 359 837 c 128,-1,37
 375 815 375 815 367 780 c 0,38,39
 360 750 360 750 329 719 c 128,-1,40
 298 688 298 688 272 688 c 0,41,42
 269 688 269 688 269 687 c 0,43,44
 268 685 268 685 267 684 c 0,45,46
 262 664 262 664 269 624 c 0,47,48
 277 584 277 584 271 560 c 2,49,-1
 271 559 l 2,50,51
 267 542 267 542 256 529 c 0,52,53
 244 517 244 517 233 517.5 c 128,-1,54
 222 518 222 518 213.5 525.5 c 128,-1,55
 205 533 205 533 196 549 c 0,56,57
 175 588 175 588 172 623 c 128,-1,58
 169 658 169 658 179 700 c 0,59,60
 196 774 196 774 232 816.5 c 128,-1,61
 268 859 268 859 310 859 c 0,35,36
EndSplineSet
Validated: 524321
EndChar

StartChar: quotedblright
Encoding: 8221 8221 106
Width: 429
VWidth: 1075
GlyphClass: 1
Flags: MW
LayerCount: 2
Fore
SplineSet
482 872 m 0,0,1
 485 872 485 872 486 872 c 0,2,3
 501 872 501 872 516 858 c 0,4,5
 534 842 534 842 543 806 c 0,6,7
 556 758 556 758 553 688 c 0,8,9
 551 648 551 648 545 622 c 0,10,11
 540 602 540 602 533 590 c 0,12,13
 502 531 502 531 464 519 c 0,14,15
 456 518 456 518 449 518 c 0,16,17
 421 518 421 518 406 550 c 0,18,19
 391 580 391 580 398.5 612.5 c 128,-1,20
 406 645 406 645 434 672 c 0,21,22
 455 691 455 691 459.5 710 c 128,-1,23
 464 729 464 729 453 787 c 0,24,25
 448 818 448 818 453 837 c 0,26,27
 455 842 455 842 456 847 c 0,28,29
 465 869 465 869 482 872 c 0,0,1
244 847 m 0,30,31
 247 847 247 847 249 847 c 0,32,33
 261 847 261 847 276 841 c 0,34,35
 300 830 300 830 317 796 c 128,-1,36
 334 762 334 762 337 721 c 0,37,38
 339 679 339 679 331 635 c 0,39,40
 329 628 329 628 328 623 c 0,41,42
 320 588 320 588 303 562 c 0,43,44
 282 532 282 532 263 520 c 0,45,46
 243 509 243 509 217 509 c 0,47,48
 216 509 216 509 212 509 c 0,49,50
 182 510 182 510 177 526 c 0,51,52
 168 542 168 542 174 569 c 0,53,54
 175 575 175 575 178 581 c 0,55,56
 190 617 190 617 214 645 c 0,57,58
 237 670 237 670 242 691 c 0,59,60
 243 694 243 694 243 697 c 0,61,62
 246 719 246 719 227 763 c 0,63,64
 213 797 213 797 218 822 c 0,65,66
 223 845 223 845 244 847 c 0,30,31
EndSplineSet
Validated: 33
EndChar

StartChar: quoteright
Encoding: 8217 8217 107
Width: 130
VWidth: 1075
GlyphClass: 1
Flags: MW
LayerCount: 2
Fore
SplineSet
235.5 863.5 m 128,-1,1
 252 878 252 878 259 880 c 0,2,3
 263 881 263 881 266 881 c 0,4,5
 274 881 274 881 283 871 c 0,6,7
 297 858 297 858 293.5 816 c 128,-1,8
 290 774 290 774 273 689 c 0,9,10
 272 684 272 684 270 680 c 0,11,12
 255 617 255 617 240 596 c 0,13,14
 220 571 220 571 194 571 c 128,-1,15
 168 571 168 571 164 596 c 0,16,17
 160 615 160 615 185 727 c 0,18,19
 202 803 202 803 210.5 826 c 128,-1,0
 219 849 219 849 235.5 863.5 c 128,-1,1
EndSplineSet
Validated: 33
EndChar

StartChar: ordfeminine
Encoding: 170 170 118
Width: 255
VWidth: 1075
Flags: W
LayerCount: 2
Fore
SplineSet
307 853 m 128,-1,1
 310 853 310 853 322 851 c 0,2,3
 345 842 345 842 351 814 c 0,4,5
 359 774 359 774 362 716 c 0,6,7
 366 653 366 653 367 644 c 0,8,9
 370 621 370 621 368 611 c 0,10,11
 366 604 366 604 361 594 c 0,12,13
 354 578 354 578 340 564 c 0,14,15
 329 554 329 554 320 554 c 128,-1,16
 311 554 311 554 306 559 c 0,17,18
 302 562 302 562 284 588 c 1,19,20
 272 587 272 587 261 587 c 1,21,22
 245 587 245 587 235 586 c 0,23,24
 234 584 234 584 232 581 c 0,25,26
 224 564 224 564 216 556 c 0,27,28
 206 546 206 546 192 545 c 0,29,30
 172 544 172 544 167 562 c 0,31,32
 162 578 162 578 165 593 c 2,33,34
 165 593 165 593 211 707 c 0,35,36
 226 747 226 747 250 798 c 0,37,38
 265 830 265 830 276 842 c 0,39,40
 280 846 280 846 285 848 c 0,41,0
 304 853 304 853 307 853 c 128,-1,1
290 664 m 5,42,43
 286 687 286 687 282 710 c 1,44,45
 270 685 270 685 258 659 c 5,46,47
 271 658 271 658 290 664 c 5,42,43
EndSplineSet
Validated: 33
EndChar

StartChar: exclamdown
Encoding: 161 161 120
Width: 244
VWidth: 1075
Flags: MW
LayerCount: 2
Fore
SplineSet
119 334 m 0,0,1
 179 527 179 527 211 566 c 0,2,3
 242 600 242 600 259 607 c 0,4,5
 264 609 264 609 269 608 c 0,6,7
 284 608 284 608 299 590 c 0,8,9
 314 576 314 576 313 549 c 0,10,11
 312 535 312 535 305 502 c 0,12,13
 303 494 303 494 301 485 c 0,14,15
 271 355 271 355 203 142 c 0,16,17
 142 -51 142 -51 126 -75 c 0,18,19
 105 -108 105 -108 65 -110 c 0,20,21
 63 -110 63 -110 60 -110 c 0,22,23
 26 -110 26 -110 11 -84 c 0,24,25
 2 -67 2 -67 13 -18 c 128,-1,26
 24 31 24 31 119 334 c 0,0,1
224 769 m 0,27,28
 233 808 233 808 271 840 c 1,29,-1
 272 840 l 1,30,31
 311 870 311 870 338 869 c 0,32,33
 368 869 368 869 390 834 c 0,34,35
 413 798 413 798 404 761 c 0,36,37
 393 714 393 714 340 686 c 0,38,39
 309 670 309 670 286 670 c 0,40,41
 282 670 282 670 277 670 c 0,42,43
 252 674 252 674 234 702 c 0,44,45
 216 735 216 735 224 769 c 0,27,28
EndSplineSet
Validated: 33
EndChar

StartChar: uni042A
Encoding: 1066 1066 122
Width: 724
VWidth: 911
Flags: MW
LayerCount: 2
Fore
SplineSet
449 364 m 1,0,1
 438 322 438 322 418 237 c 2,2,-1
 389 111 l 1,3,-1
 396 112 l 2,4,5
 427 116 427 116 453.5 125.5 c 128,-1,6
 480 135 480 135 517.5 157.5 c 128,-1,7
 555 180 555 180 573 196 c 0,8,9
 615 236 615 236 637 291 c 0,10,11
 642 304 642 304 643 307 c 128,-1,12
 644 310 644 310 645 311 c 0,13,14
 645 316 645 316 642 329.5 c 128,-1,15
 639 343 639 343 635.5 348 c 128,-1,16
 632 353 632 353 617 362 c 0,17,18
 588 380 588 380 548 380 c 0,19,20
 520 380 520 380 489.5 373 c 128,-1,21
 459 366 459 366 449 364 c 1,0,1
257 723 m 0,22,23
 388 740 388 740 435 740 c 1,24,25
 431 718 431 718 437 740 c 1,26,27
 484 740 484 740 503.5 724.5 c 128,-1,28
 523 709 523 709 520 670 c 0,29,30
 519 654 519 654 513 631 c 0,31,32
 512 626 512 626 511 619 c 0,33,34
 504 588 504 588 484 512 c 1,35,36
 512 521 512 521 561 524 c 0,37,38
 578 525 578 525 593 525 c 0,39,40
 626 525 626 525 647 520 c 0,41,42
 676 514 676 514 710 492 c 0,43,44
 741 471 741 471 754.5 450.5 c 128,-1,45
 768 430 768 430 774 395 c 0,46,47
 778 371 778 371 777 359 c 128,-1,48
 776 347 776 347 773 334.5 c 128,-1,49
 770 322 770 322 766 307 c 0,50,51
 744 225 744 225 688 158.5 c 128,-1,52
 632 92 632 92 545 50 c 0,53,54
 489 23 489 23 457.5 14 c 128,-1,55
 426 5 426 5 379 2 c 0,56,57
 362 1 362 1 342 1 c 0,58,59
 322 0 322 0 304 4 c 0,60,61
 276 8 276 8 266 22 c 0,62,63
 255 32 255 32 255 58 c 0,64,65
 254 82 254 82 321 374 c 0,66,67
 358 535 358 535 373 586 c 1,68,-1
 373 585 l 1,69,70
 374 585 374 585 382 615 c 1,71,72
 274 606 274 606 247 606 c 0,73,74
 215 606 215 606 200 616 c 0,75,76
 176 634 176 634 183 664 c 0,77,78
 188 686 188 686 208.5 702.5 c 128,-1,79
 229 719 229 719 257 723 c 0,22,23
EndSplineSet
Validated: 33
EndChar

StartChar: uni0419
Encoding: 1049 1049 123
Width: 737
VWidth: 911
Flags: MW
LayerCount: 2
Fore
SplineSet
339 703 m 0
 317 761 317 761 328 814 c 0
 336 850 336 850 345 858 c 0
 368 880 368 880 389 879 c 0
 405 879 405 879 410 873 c 0
 411 872 411 872 419 847 c 0
 423 836 423 836 425 810 c 0
 427 784 427 784 430 776 c 0
 433 769 433 769 444 761 c 0
 455 754 455 754 469 754 c 0
 477 754 477 754 484 756 c 0
 509 761 509 761 527 779 c 0
 542 793 542 793 546 800 c 0
 559 822 559 822 563 840 c 0
 568 860 568 860 587 877 c 0
 606 895 606 895 628 895 c 0
 650 895 650 895 661 879 c 0
 669 868 669 868 671 850 c 0
 674 832 674 832 669 814 c 0
 666 800 666 800 657 778 c 0
 640 738 640 738 612 708 c 0
 592 688 592 688 560 670 c 0
 507 641 507 641 420 639 c 1
 359 647 359 647 339 703 c 0
EndSplineSet
Refer: 156 886 S 1 0 0 1 0 0 2
Validated: 98337
EndChar

StartChar: uni042B
Encoding: 1067 1067 125
Width: 670
VWidth: 911
Flags: MW
LayerCount: 2
Fore
SplineSet
214 282 m 1,0,1
 209 268 209 268 192 194 c 2,2,-1
 173 112 l 1,3,-1
 208 114 l 2,4,5
 266 117 266 117 294 124.5 c 128,-1,6
 322 132 322 132 357 153 c 128,-1,7
 392 174 392 174 406 190.5 c 128,-1,8
 420 207 420 207 423 217 c 0,9,10
 425 225 425 225 410 243 c 0,11,12
 389 271 389 271 371 277 c 128,-1,13
 353 283 353 283 296 283 c 0,14,15
 285 284 285 284 276 284 c 0,16,17
 235 284 235 284 214 282 c 1,0,1
244 441 m 2,18,-1
 238 415 l 1,19,20
 265 421 265 421 320 421 c 0,21,22
 400 421 400 421 446.5 404.5 c 128,-1,23
 493 388 493 388 527 347 c 0,24,25
 549 319 549 319 557.5 294 c 128,-1,26
 566 269 566 269 559 236 c 0,27,28
 555 217 555 217 545 197 c 0,29,30
 519 141 519 141 467 99 c 0,31,32
 432 70 432 70 377.5 46 c 128,-1,33
 323 22 323 22 276 15 c 0,34,35
 234 8 234 8 166 8 c 0,36,37
 122 8 122 8 95 12 c 0,38,39
 55 17 55 17 52 46 c 0,40,41
 50 65 50 65 69 160.5 c 128,-1,42
 88 256 88 256 134.5 455.5 c 128,-1,43
 181 655 181 655 193 684 c 0,44,45
 207 719 207 719 233 724 c 0,46,47
 237 724 237 724 244 724 c 0,48,49
 267 724 267 724 276 704 c 0,50,51
 283 690 283 690 281.5 663 c 128,-1,52
 280 636 280 636 268 565.5 c 128,-1,53
 256 495 256 495 244 441 c 2,18,-1
585.5 -2 m 128,-1,55
 563 -2 563 -2 553 21 c 0,56,57
 548 31 548 31 549 51 c 0,58,59
 549 72 549 72 557.5 119 c 128,-1,60
 566 166 566 166 612.5 368.5 c 128,-1,61
 659 571 659 571 672 618.5 c 128,-1,62
 685 666 685 666 697 688 c 0,63,64
 710 710 710 710 725 720 c 0,65,66
 736 728 736 728 749 728 c 128,-1,67
 762 728 762 728 770 716 c 0,68,69
 792 689 792 689 770 577 c 0,70,71
 759 520 759 520 711 310 c 0,72,73
 683 186 683 186 650 38 c 1,74,75
 651 55 651 55 644 32 c 1,76,77
 642 46 642 46 630 20 c 1,78,54
 608 -2 608 -2 585.5 -2 c 128,-1,55
EndSplineSet
Validated: 33
EndChar

StartChar: uni041C
Encoding: 1052 1052 129
Width: 790
VWidth: 1087
Flags: MW
LayerCount: 2
Fore
SplineSet
99 18 m 0,0,1
 78 18 78 18 70 27 c 0,2,3
 64 34 64 34 64 46 c 0,4,5
 65 57 65 57 70 87 c 0,6,7
 83 167 83 167 129 363 c 0,8,9
 156 478 156 478 169 525 c 0,10,11
 181 567 181 567 192 585 c 0,12,13
 206 608 206 608 234 617 c 0,14,15
 248 621 248 621 261 622 c 0,16,17
 277 622 277 622 293 616 c 0,18,19
 304 612 304 612 320 593 c 0,20,21
 338 573 338 573 365 534 c 0,22,23
 414 462 414 462 450 389 c 0,24,25
 458 371 458 371 465 361 c 1,26,27
 478 376 478 376 500 407 c 0,28,29
 560 489 560 489 627 566 c 0,30,31
 670 616 670 616 694 636 c 0,32,33
 716 657 716 657 734 662 c 0,34,35
 744 666 744 666 755 666 c 0,36,37
 775 666 775 666 791 657 c 0,38,39
 814 644 814 644 818 620 c 0,40,41
 827 576 827 576 804 345 c 0,42,43
 789 194 789 194 767 93 c 0,44,45
 761 66 761 66 750 50 c 0,46,47
 742 38 742 38 732 32 c 0,48,49
 723 27 723 27 706 24 c 0,50,51
 696 23 696 23 695 23 c 0,52,53
 659 23 659 23 647 70 c 0,54,55
 635 123 635 123 659 350 c 0,56,57
 665 400 665 400 664 410 c 1,58,-1
 664 410 l 1,59,60
 644 388 644 388 614 349 c 0,61,62
 553 270 553 270 517 238 c 0,63,64
 474 198 474 198 433 198 c 0,65,66
 404 198 404 198 381 219 c 0,67,68
 354 243 354 243 314 316 c 0,69,70
 307 328 307 328 294 353 c 0,71,72
 269 399 269 399 256 425 c 1,73,-1
 216 281 l 2,74,75
 155 61 155 61 146 44 c 0,76,77
 143 39 143 39 140 35 c 0,78,79
 126 18 126 18 101 18 c 0,80,81
 101 18 101 18 99 18 c 0,0,1
EndSplineSet
Validated: 33
EndChar

StartChar: uni03FA
Encoding: 1018 1018 134
Width: 790
VWidth: 1087
Flags: MW
LayerCount: 2
Fore
SplineSet
99 18 m 0,0,1
 78 18 78 18 70 27 c 0,2,3
 64 34 64 34 64 46 c 0,4,5
 65 57 65 57 70 87 c 0,6,7
 83 167 83 167 129 363 c 0,8,9
 156 478 156 478 169 525 c 0,10,11
 181 567 181 567 192 585 c 0,12,13
 206 608 206 608 234 617 c 0,14,15
 248 621 248 621 261 622 c 0,16,17
 277 622 277 622 293 616 c 0,18,19
 304 612 304 612 320 593 c 0,20,21
 338 573 338 573 365 534 c 0,22,23
 414 462 414 462 450 389 c 0,24,25
 458 371 458 371 465 361 c 1,26,27
 478 376 478 376 500 407 c 0,28,29
 560 489 560 489 627 566 c 0,30,31
 670 616 670 616 694 636 c 0,32,33
 716 657 716 657 734 662 c 0,34,35
 744 666 744 666 755 666 c 0,36,37
 775 666 775 666 791 657 c 0,38,39
 814 644 814 644 818 620 c 0,40,41
 827 576 827 576 804 345 c 0,42,43
 789 194 789 194 767 93 c 0,44,45
 761 66 761 66 750 50 c 0,46,47
 742 38 742 38 732 32 c 0,48,49
 723 27 723 27 706 24 c 0,50,51
 696 23 696 23 695 23 c 0,52,53
 659 23 659 23 647 70 c 0,54,55
 635 123 635 123 659 350 c 0,56,57
 665 400 665 400 664 410 c 1,58,-1
 664 410 l 1,59,60
 644 388 644 388 614 349 c 0,61,62
 553 270 553 270 517 238 c 0,63,64
 474 198 474 198 433 198 c 0,65,66
 404 198 404 198 381 219 c 0,67,68
 354 243 354 243 314 316 c 0,69,70
 307 328 307 328 294 353 c 0,71,72
 269 399 269 399 256 425 c 1,73,-1
 216 281 l 2,74,75
 155 61 155 61 146 44 c 0,76,77
 143 39 143 39 140 35 c 0,78,79
 126 18 126 18 101 18 c 0,80,81
 101 18 101 18 99 18 c 0,0,1
EndSplineSet
Validated: 33
EndChar

StartChar: uni0424
Encoding: 1060 1060 146
Width: 551
VWidth: 911
Flags: MW
LayerCount: 2
Fore
SplineSet
441 756 m 0,0,1
 478 756 478 756 483 737 c 4,2,3
 484 725 484 725 478 696 c 0,4,5
 467 647 467 647 462 621 c 1,6,7
 467 620 467 620 472 619 c 0,8,9
 503 615 503 615 524 608 c 0,10,11
 545 600 545 600 570 583 c 0,12,13
 593 566 593 566 604 552 c 0,14,15
 614 538 614 538 620 510 c 0,16,17
 626 482 626 482 625.5 460.5 c 128,-1,18
 625 439 625 439 617 406 c 0,19,20
 606 359 606 359 590 325 c 128,-1,21
 574 291 574 291 545 253 c 1,22,23
 483 184 483 184 380 154 c 1,24,25
 382 175 382 175 373 152 c 1,26,-1
 353 63 l 2,27,28
 340 8 340 8 335 -10 c 0,29,30
 331 -24 331 -24 323 -32 c 0,31,32
 304 -47 304 -47 280 -47 c 0,33,34
 264 -47 264 -47 255 -43 c 0,35,36
 246 -36 246 -36 244 -23 c 0,37,38
 243 -6 243 -6 247 19 c 0,39,40
 257 75 257 75 265 145 c 0,41,42
 262 145 262 145 261 146 c 0,43,44
 163 161 163 161 116 254 c 1,45,46
 107 284 107 284 106 306 c 0,47,48
 106 329 106 329 113 364 c 0,49,50
 131 440 131 440 204 516 c 0,51,52
 252 566 252 566 315 590 c 0,53,54
 342 602 342 602 358 609 c 1,55,56
 390 714 390 714 397 734 c 0,57,58
 402 745 402 745 412 751 c 0,59,60
 424 756 424 756 441 756 c 0,0,1
504 339 m 0,61,62
 521 368 521 368 528 400 c 0,63,64
 529 403 529 403 529 405 c 0,65,66
 535 433 535 433 529 462 c 0,67,68
 524 476 524 476 516 482 c 0,69,70
 507 491 507 491 487 500 c 0,71,72
 467 511 467 511 441 516 c 1,73,74
 437 494 437 494 422 418 c 0,75,76
 396 289 396 289 388 238 c 1,77,78
 389 238 389 238 391 238 c 0,79,80
 463 270 463 270 504 339 c 0,61,62
282 245 m 1,81,82
 286 272 286 272 297 334 c 0,83,84
 313 412 313 412 323 457 c 0,85,86
 330 489 330 489 333 504 c 1,87,88
 274 482 274 482 230 434 c 1,89,90
 189 374 189 374 192 329 c 0,91,92
 197 256 197 256 282 245 c 1,81,82
EndSplineSet
Validated: 33
EndChar

StartChar: uni042C
Encoding: 1068 1068 149
Width: 536
VWidth: 911
Flags: MW
LayerCount: 2
Fore
SplineSet
245 441 m 2,0,-1
 239 415 l 1,1,2
 267 421 267 421 325 421 c 0,3,4
 410 421 410 421 460 405 c 0,5,6
 507 389 507 389 537 347 c 0,7,8
 557 319 557 319 563.5 294 c 128,-1,9
 570 269 570 269 562 236 c 0,10,11
 558 217 558 217 549 197 c 0,12,13
 524 141 524 141 478 99 c 0,14,15
 446 70 446 70 392 47 c 0,16,17
 334 23 334 23 284 15 c 0,18,19
 240 8 240 8 168 8 c 0,20,21
 123 8 123 8 95 12 c 0,22,23
 55 17 55 17 52 46 c 0,24,25
 50 65 50 65 69 160.5 c 128,-1,26
 88 256 88 256 134.5 455.5 c 128,-1,27
 181 655 181 655 193 684 c 0,28,29
 207 719 207 719 233 724 c 0,30,31
 237 724 237 724 244 724 c 0,32,33
 267 724 267 724 276 704 c 0,34,35
 283 690 283 690 281.5 663 c 128,-1,36
 280 636 280 636 268.5 565.5 c 128,-1,37
 257 495 257 495 245 441 c 2,0,-1
215 282 m 1,38,39
 210 268 210 268 193 194 c 2,40,-1
 174 112 l 1,41,-1
 212 114 l 2,42,43
 273 117 273 117 302.5 124.5 c 128,-1,44
 332 132 332 132 368.5 153 c 128,-1,45
 405 174 405 174 420 190.5 c 128,-1,46
 435 207 435 207 437 217 c 0,47,48
 439 225 439 225 424 243 c 0,49,50
 401 271 401 271 381.5 277 c 128,-1,51
 362 283 362 283 302 283 c 0,52,53
 290 284 290 284 280 284 c 0,54,55
 237 284 237 284 215 282 c 1,38,39
EndSplineSet
Validated: 33
EndChar

StartChar: uni0423
Encoding: 1059 1059 154
Width: 617
VWidth: 911
Flags: MW
LayerCount: 2
Fore
SplineSet
90 64 m 1,0,1
 103 65 103 65 119 63 c 1,2,3
 122 63 122 63 123.5 63 c 128,-1,4
 125 63 125 63 131 64 c 128,-1,5
 137 65 137 65 141 66.5 c 128,-1,6
 145 68 145 68 156 76 c 0,7,8
 168 86 168 86 178 97 c 0,9,10
 211 132 211 132 266 202 c 0,11,12
 306 249 306 249 354 306 c 1,13,14
 299 416 299 416 278 460 c 0,15,16
 258 508 258 508 241 547 c 0,17,18
 226 589 226 589 222 610 c 0,19,20
 220 632 220 632 224 652 c 0,21,22
 228 667 228 667 250 675 c 0,23,24
 262 679 262 679 273 679 c 0,25,26
 279 679 279 679 285 678 c 0,27,28
 298 675 298 675 320 653 c 1,29,30
 341 627 341 627 358.5 597.5 c 128,-1,31
 376 568 376 568 406 503 c 1,32,33
 439 448 439 448 453 426 c 1,34,35
 477 452 477 452 538 518 c 1,36,37
 601 593 601 593 624 616 c 0,38,39
 644 637 644 637 664 651 c 0,40,41
 684 662 684 662 701.5 662 c 128,-1,42
 719 662 719 662 729 653 c 0,43,44
 738 647 738 647 736 641 c 0,45,46
 734 631 734 631 727 612 c 0,47,48
 714 580 714 580 695 548 c 0,49,50
 677 519 677 519 631 460 c 1,51,52
 474 279 474 279 398 190 c 0,53,54
 320 94 320 94 280 49 c 0,55,56
 241 7 241 7 217 -13 c 0,57,58
 180 -39 180 -39 153 -47 c 0,59,60
 139 -51 139 -51 125 -50 c 0,61,62
 122 -50 122 -50 119 -50 c 0,63,64
 55 -50 55 -50 35 -17 c 0,65,66
 27 -10 27 -10 28 -4 c 0,67,68
 31 10 31 10 42 28 c 0,69,70
 57 55 57 55 72 61 c 0,71,72
 78 64 78 64 90 64 c 1,0,1
EndSplineSet
Validated: 33
EndChar

StartChar: uni0376
Encoding: 886 886 156
Width: 684
VWidth: 911
Flags: MW
LayerCount: 2
Fore
SplineSet
121.5 7 m 128,-1,1
 113 5 113 5 106 5 c 0,2,3
 86 5 86 5 75 20 c 0,4,5
 62 38 62 38 65 70 c 0,6,7
 73 137 73 137 117 359 c 0,8,9
 144 493 144 493 155.5 545 c 128,-1,10
 167 597 167 597 172 608 c 0,11,12
 186 639 186 639 212 651 c 0,13,14
 222 655 222 655 231 655 c 0,15,16
 249 655 249 655 258 640 c 0,17,18
 263 631 263 631 264 612 c 128,-1,19
 265 593 265 593 259 552 c 0,20,21
 253 510 253 510 231 386 c 128,-1,22
 209 262 209 262 202 227 c 1,23,24
 362 393 362 393 415.5 446.5 c 128,-1,25
 469 500 469 500 536.5 561.5 c 128,-1,26
 604 623 604 623 628.5 646 c 128,-1,27
 653 669 653 669 665.5 675.5 c 128,-1,28
 678 682 678 682 698 682 c 0,29,30
 716 682 716 682 727 674 c 0,31,32
 741 663 741 663 743 642 c 0,33,34
 744 615 744 615 728.5 483.5 c 128,-1,35
 713 352 713 352 708.5 307 c 128,-1,36
 704 262 704 262 693 192 c 0,37,38
 680 105 680 105 676 87 c 0,39,40
 666 42 666 42 650 26 c 0,41,42
 641 16 641 16 625 7.5 c 128,-1,43
 609 -1 609 -1 595 -1 c 128,-1,44
 581 -1 581 -1 570 5 c 0,45,46
 550 16 550 16 548 47 c 0,47,48
 547 69 547 69 559 150 c 128,-1,49
 571 231 571 231 575 276 c 128,-1,50
 579 321 579 321 587 380 c 128,-1,51
 595 439 595 439 599 461 c 1,52,53
 525 393 525 393 390 255 c 1,54,55
 345 225 345 225 289 150 c 1,56,57
 233 92 233 92 189 54 c 0,58,59
 164 32 164 32 147 21 c 0,60,0
 130 9 130 9 121.5 7 c 128,-1,1
EndSplineSet
Validated: 33
EndChar

StartChar: uni0426
Encoding: 1062 1062 162
Width: 668
VWidth: 911
Flags: MW
LayerCount: 2
Fore
SplineSet
525 -27 m 128,-1,1
 511 -8 511 -8 520 32 c 2,2,-1
 545 115 l 2,3,4
 548 122 548 122 550 130 c 1,5,6
 459 126 459 126 408 120.5 c 0,7,8
 357 114 357 114 281 112 c 0,9,10
 205 109 205 109 178 110 c 0,11,12
 151 110 151 110 141 112.5 c 128,-1,13
 131 115 131 115 123 120 c 0,14,15
 113 126 113 126 107.5 139.5 c 128,-1,16
 102 153 102 153 101 167 c 0,17,18
 99 197 99 197 108 265 c 0,19,20
 134 452 134 452 156 550 c 0,21,22
 173 623 173 623 189 647 c 0,23,24
 194 656 194 656 201 662 c 0,25,26
 218 680 218 680 235 680 c 0,27,28
 243 680 243 680 249 677 c 0,29,30
 268 668 268 668 270 639 c 0,31,32
 271 627 271 627 257 552.5 c 128,-1,33
 243 478 243 478 230 385 c 128,-1,34
 217 292 217 292 208 220 c 1,35,36
 230 223 230 223 329 230 c 128,-1,37
 428 237 428 237 474 245 c 1,38,39
 485 280 485 280 497 329 c 0,40,41
 519 415 519 415 542 510 c 0,42,43
 565 606 565 606 571 624 c 0,44,45
 576 641 576 641 581 651 c 128,-1,46
 586 661 586 661 594 667 c 0,47,48
 612 684 612 684 637 684 c 0,49,50
 663 684 663 684 674 666 c 0,51,52
 682 654 682 654 677 625 c 0,53,54
 674 611 674 611 666 576 c 0,55,56
 617 364 617 364 594 293 c 0,57,58
 585 266 585 266 581 249 c 1,59,60
 589 250 589 250 603 251 c 0,61,62
 618 253 618 253 624.5 253 c 128,-1,63
 631 253 631 253 634 253 c 0,64,65
 647 252 647 252 660 245 c 128,-1,66
 673 238 673 238 679 226 c 0,67,68
 688 209 688 209 679 168 c 0,69,70
 673 144 673 144 655 94 c 0,71,72
 626 12 626 12 619 -1 c 0,73,74
 600 -34 600 -34 573 -43 c 0,75,76
 565 -46 565 -46 557 -46 c 0,77,0
 539 -46 539 -46 525 -27 c 128,-1,1
EndSplineSet
Validated: 524321
EndChar

StartChar: uni0416
Encoding: 1046 1046 166
Width: 753
VWidth: 911
Flags: MW
LayerCount: 2
Fore
SplineSet
366 529 m 1,0,-1
 369 523 l 1,1,-1
 381 510 l 1,2,3
 407 611 407 611 417 640 c 0,4,5
 439 708 439 708 483 707 c 0,6,7
 504 707 504 707 514 690 c 0,8,9
 522 676 522 676 516 608 c 0,10,11
 512 567 512 567 497 482 c 1,12,13
 678 612 678 612 678 612 c 0,14,15
 789 692 789 692 815 693 c 0,16,17
 816 693 816 693 817 693 c 0,18,19
 847 693 847 693 852 662 c 0,20,21
 855 646 855 646 852 631 c 128,-1,22
 849 616 849 616 839 602 c 0,23,24
 830 590 830 590 805 567 c 0,25,26
 772 535 772 535 731 507 c 0,27,28
 681 471 681 471 510 349 c 1,29,30
 578 268 578 268 628 194 c 0,31,32
 675 120 675 120 681 84 c 0,33,34
 686 57 686 57 681 36 c 0,35,36
 672 -1 672 -1 634 -17 c 0,37,38
 623 -21 623 -21 610 -22 c 0,39,40
 582 -22 582 -22 558 10 c 0,41,42
 543 30 543 30 506 85 c 0,43,44
 470 141 470 141 432 193 c 1,45,46
 411 111 411 111 404 87 c 0,47,48
 392 47 392 47 379 30 c 0,49,50
 362 8 362 8 334 7 c 0,51,52
 320 7 320 7 310 17 c 0,53,54
 297 30 297 30 296 62 c 0,55,56
 295 96 295 96 310 189 c 0,57,58
 311 194 311 194 312 200 c 1,59,60
 288 181 288 181 252 151 c 0,61,62
 188 99 188 99 119 48 c 0,63,64
 79 17 79 17 53 17 c 0,65,66
 41 17 41 17 33 23 c 0,67,68
 17 36 17 36 22 58 c 0,69,70
 24 65 24 65 27 75 c 0,71,72
 30 82 30 82 43 100 c 0,73,74
 61 125 61 125 136 193 c 0,75,76
 208 259 208 259 288 323 c 2,77,-1
 316 346 l 1,78,-1
 185 544 l 2,79,80
 173 566 173 566 156 607 c 0,81,82
 155 610 155 610 156 614 c 0,83,84
 158 625 158 625 177 642 c 0,85,86
 195 656 195 656 212 656 c 0,87,88
 225 656 225 656 249 644 c 0,89,90
 275 632 275 632 302 606 c 0,91,92
 324 585 324 585 366 529 c 1,0,-1
EndSplineSet
Validated: 33
EndChar

StartChar: uni0428
Encoding: 1064 1064 169
Width: 753
VWidth: 911
Flags: MW
LayerCount: 2
Fore
SplineSet
192 655 m 0,0,1
 209 672 209 672 226 672 c 0,2,3
 236 672 236 672 244 666 c 0,4,5
 260 653 260 653 259 622 c 0,6,7
 260 578 260 578 204 309 c 0,8,9
 179 186 179 186 169 140 c 1,10,11
 196 142 196 142 260 146 c 128,-1,12
 324 150 324 150 348 151 c 1,13,14
 352 184 352 184 376 312 c 0,15,16
 402 444 402 444 421 526 c 0,17,18
 423 533 423 533 423 541 c 0,19,20
 439 610 439 610 448 631 c 0,21,22
 462 666 462 666 490 680 c 0,23,24
 501 685 501 685 511.5 684.5 c 128,-1,25
 522 684 522 684 531 681 c 0,26,27
 549 674 549 674 553 654 c 0,28,29
 556 645 556 645 552 621 c 128,-1,30
 548 597 548 597 533 531.5 c 128,-1,31
 518 466 518 466 454 157 c 1,32,-1
 643 157 l 1,33,34
 645 175 645 175 660 239 c 0,35,36
 682 347 682 347 700 430 c 0,37,38
 704 446 704 446 708 463 c 0,39,40
 730 557 730 557 737 581 c 128,-1,41
 744 605 744 605 748 614 c 0,42,43
 757 637 757 637 776 651 c 0,44,45
 791 663 791 663 809 662 c 0,46,47
 839 662 839 662 851 633 c 0,48,49
 857 618 857 618 850.5 584 c 128,-1,50
 844 550 844 550 805.5 371 c 128,-1,51
 767 192 767 192 758 141 c 0,52,53
 755 123 755 123 750.5 105.5 c 128,-1,54
 746 88 746 88 741 77 c 0,55,56
 731 55 731 55 707 38 c 0,57,58
 691 25 691 25 658 23 c 0,59,60
 632 21 632 21 465.5 21.5 c 128,-1,61
 299 22 299 22 230 19.5 c 128,-1,62
 161 17 161 17 131 17 c 0,63,64
 103 17 103 17 95 20 c 0,65,66
 67 26 67 26 57 50 c 0,67,68
 53 59 53 59 56 82.5 c 128,-1,69
 59 106 59 106 71 167 c 0,70,71
 85 238 85 238 123 404 c 128,-1,72
 161 570 161 570 168 595 c 0,73,74
 177 632 177 632 184 645 c 0,75,76
 188 651 188 651 192 655 c 0,0,1
EndSplineSet
Validated: 33
EndChar

StartChar: uni0429
Encoding: 1065 1065 180
Width: 951
VWidth: 911
Flags: MW
LayerCount: 2
Fore
SplineSet
215 238 m 2,0,-1
 211 217 l 1,1,2
 298 227 298 227 334 227 c 0,3,4
 361 227 361 227 362 221 c 1,5,-1
 416 221 l 1,6,7
 450 403 450 403 492 586 c 0,8,9
 509 660 509 660 515 673 c 0,10,11
 535 715 535 715 566 726 c 0,12,13
 574 729 574 729 582 729 c 0,14,15
 609 729 609 729 616 697 c 0,16,17
 620 680 620 680 610 617 c 0,18,19
 600 554 600 554 569 423 c 0,20,21
 560 386 560 386 549 338 c 0,22,23
 537 290 537 290 531 263 c 0,24,25
 525 235 525 235 524 228 c 0,26,27
 523 222 523 222 522 220 c 2,28,-1
 522 219 l 1,29,30
 556 218 556 218 686 216 c 0,31,32
 704 216 704 216 716 217 c 1,33,34
 725 264 725 264 752 382 c 0,35,36
 772 474 772 474 787 536 c 0,37,38
 808 629 808 629 815 653 c 0,39,40
 830 705 830 705 864 714 c 0,41,42
 873 717 873 717 881 716 c 0,43,44
 899 716 899 716 910 706 c 0,45,46
 918 699 918 699 922 686 c 0,47,48
 925 674 925 674 919 631 c 0,49,50
 918 622 918 622 901 549 c 0,51,52
 884 477 884 477 824 217 c 1,53,54
 826 217 826 217 828.5 217 c 128,-1,55
 831 217 831 217 833 217 c 0,56,57
 877 217 877 217 890 213 c 0,58,59
 910 210 910 210 920 194 c 0,60,61
 935 170 935 170 930 130 c 0,62,63
 927 111 927 111 920 80 c 0,64,65
 913 48 913 48 895 -17 c 0,66,67
 879 -81 879 -81 868 -106 c 0,68,69
 853 -141 853 -141 824 -153 c 0,70,71
 812 -158 812 -158 804 -158 c 0,72,73
 781 -158 781 -158 769 -133 c 0,74,75
 761 -119 761 -119 766 -97 c 0,76,77
 767 -91 767 -91 770 -80 c 0,78,79
 775 -58 775 -58 785 -17 c 0,80,81
 801 44 801 44 806 59 c 0,82,83
 810 73 810 73 811 78 c 128,-1,84
 812 83 812 83 812 85 c 1,85,-1
 741 85 l 2,86,87
 593 85 593 85 413 90 c 0,88,89
 255 96 255 96 204 99 c 0,90,91
 154 102 154 102 144 104 c 0,92,93
 99 116 99 116 97 152 c 0,94,95
 96 168 96 168 123 335 c 0,96,97
 150 486 150 486 173 592 c 0,98,99
 182 632 182 632 185 644 c 0,100,101
 193 666 193 666 202 678 c 0,102,103
 220 702 220 702 242 702 c 0,104,105
 265 702 265 702 272 680 c 0,106,107
 277 661 277 661 273 632 c 0,108,109
 272 625 272 625 250 465 c 0,110,111
 228 320 228 320 215 238 c 2,0,-1
EndSplineSet
Validated: 33
EndChar

StartChar: uni042D
Encoding: 1069 1069 182
Width: 650
VWidth: 911
Flags: MW
LayerCount: 2
Fore
SplineSet
177 182 m 0,0,1
 205 155 205 155 230 140 c 0,2,3
 245 131 245 131 251 130.5 c 128,-1,4
 257 130 257 130 265 130 c 0,5,6
 271 130 271 130 287 131 c 0,7,8
 330 134 330 134 386 153 c 128,-1,9
 442 172 442 172 478 196 c 0,10,11
 498 210 498 210 520 239 c 128,-1,12
 542 268 542 268 555 300 c 1,13,14
 546 308 546 308 533 301 c 1,15,16
 488 305 488 305 368.5 308.5 c 128,-1,17
 249 312 249 312 219 315 c 0,18,19
 191 318 191 318 181 319 c 128,-1,20
 171 320 171 320 164 324 c 1,21,22
 165 330 165 330 162 326 c 1,23,24
 145 341 145 341 150 364 c 2,25,-1
 150 364 l 2,26,27
 155 386 155 386 174 402 c 0,28,29
 187 412 187 412 206 418 c 0,30,31
 265 433 265 433 331 434 c 0,32,33
 333 434 333 434 334 434 c 2,34,-1
 335 434 l 2,35,36
 403 433 403 433 475 433 c 0,37,38
 512 433 512 433 550 433 c 2,39,-1
 576 433 l 1,40,-1
 577 433 l 1,41,-1
 578 433 l 1,42,43
 572 474 572 474 562 500 c 0,44,45
 538 565 538 565 491 591 c 0,46,47
 472 601 472 601 463.5 603 c 128,-1,48
 455 605 455 605 434.5 605 c 128,-1,49
 414 605 414 605 406 605 c 0,50,51
 353 605 353 605 326 598 c 0,52,53
 302 592 302 592 274 574 c 0,54,55
 242 552 242 552 223.5 552 c 128,-1,56
 205 552 205 552 197 568 c 0,57,58
 190 581 190 581 192 592 c 2,59,-1
 192 593 l 2,60,61
 194 601 194 601 203 616 c 0,62,63
 235 669 235 669 315 701 c 0,64,65
 387 731 387 731 460 731 c 0,66,67
 555 731 555 731 618 680 c 0,68,69
 671 639 671 639 694 564 c 0,70,71
 708 515 708 515 711 482 c 0,72,73
 715 447 715 447 712 414 c 128,-1,74
 709 381 709 381 702 352 c 0,75,76
 688 292 688 292 654.5 228 c 128,-1,77
 621 164 621 164 579.5 124 c 128,-1,78
 538 84 538 84 466 52 c 0,79,80
 404 26 404 26 362 15 c 0,81,82
 308 1 308 1 241 1 c 0,83,84
 199 1 199 1 181 9 c 0,85,86
 140 26 140 26 107 66 c 0,87,88
 77 106 77 106 70 140 c 0,89,90
 66 160 66 160 70 177 c 0,91,92
 75 199 75 199 92 212 c 0,93,94
 103 221 103 221 117 221 c 0,95,96
 127 221 127 221 139.5 215 c 128,-1,97
 152 209 152 209 177 182 c 0,0,1
EndSplineSet
Validated: 33
EndChar

StartChar: uni042E
Encoding: 1070 1070 183
Width: 906
VWidth: 911
Flags: MW
LayerCount: 2
Fore
SplineSet
564 616 m 0,0,1
 591 638 591 638 634 656 c 0,2,3
 699 686 699 686 750 686 c 0,4,5
 769 686 769 686 787 681 c 0,6,7
 821 674 821 674 859 649 c 0,8,9
 912 615 912 615 935.5 560 c 128,-1,10
 959 505 959 505 959.5 429.5 c 128,-1,11
 960 354 960 354 947 297 c 128,-1,12
 934 240 934 240 909 197 c 0,13,14
 868 126 868 126 811 76 c 0,15,16
 752 26 752 26 689 9 c 0,17,18
 658 1 658 1 612 1 c 128,-1,19
 566 1 566 1 536 9 c 0,20,21
 444 31 444 31 407 90 c 0,22,23
 386 123 386 123 378 179 c 128,-1,24
 370 235 370 235 380 279 c 0,25,26
 380 281 380 281 381 283 c 0,27,28
 352 285 352 285 320 285 c 128,-1,29
 288 285 288 285 210 287 c 1,30,31
 204 252 204 252 193 205 c 0,32,33
 187 170 187 170 182 149 c 0,34,35
 168 88 168 88 155.5 69.5 c 128,-1,36
 143 51 143 51 120 42 c 0,37,38
 107 37 107 37 99 37 c 128,-1,39
 91 37 91 37 85 40.5 c 128,-1,40
 79 44 79 44 74 50 c 0,41,42
 53 72 53 72 60 120 c 0,43,44
 66 162 66 162 114 368.5 c 128,-1,45
 162 575 162 575 176 618 c 0,46,47
 184 646 184 646 194 662 c 0,48,49
 205 680 205 680 220 689 c 0,50,51
 230 694 230 694 240 695 c 0,52,53
 256 695 256 695 266 683 c 0,54,55
 272 675 272 675 274 665.5 c 128,-1,56
 276 656 276 656 276 642 c 0,57,58
 273 598 273 598 244 446 c 0,59,60
 233 395 233 395 233 391 c 1,61,62
 276 395 276 395 353 395 c 1,63,64
 365 384 365 384 379 383.5 c 128,-1,65
 393 383 393 383 409 395 c 1,66,67
 407 380 407 380 414 410 c 1,68,69
 437 466 437 466 479.5 524 c 128,-1,70
 522 582 522 582 564 616 c 0,0,1
555.5 460 m 0,71,72
 523 413 523 413 512 382 c 0,73,74
 508 370 508 370 504 353 c 128,-1,75
 500 336 500 336 496 312 c 0,76,77
 490 267 490 267 492 239.5 c 128,-1,78
 494 212 494 212 505 183.5 c 128,-1,79
 516 155 516 155 529.5 142.5 c 128,-1,80
 543 130 543 130 556 125 c 128,-1,81
 569 120 569 120 596 115.5 c 128,-1,82
 623 111 623 111 632 111 c 128,-1,83
 641 111 641 111 664 115 c 0,84,85
 700 122 700 122 728.5 144 c 128,-1,86
 757 166 757 166 788 214 c 0,87,88
 805 240 805 240 809.5 251 c 128,-1,89
 814 262 814 262 817.5 277 c 128,-1,90
 821 292 821 292 821 294 c 0,91,92
 832 340 832 340 832 384 c 0,93,94
 832 446 832 446 818 482 c 128,-1,95
 804 518 804 518 769 549 c 0,96,97
 752 564 752 564 745 567 c 0,98,99
 739 569 739 569 709 569 c 0,100,101
 707 569 707 569 707 570 c 0,102,103
 679 571 679 571 660 562 c 0,104,105
 640 552 640 552 611 526 c 0,106,107
 588 506 588 506 555.5 460 c 0,71,72
EndSplineSet
Validated: 524321
EndChar

StartChar: uni041B
Encoding: 1051 1051 187
Width: 753
VWidth: 911
Flags: MW
LayerCount: 2
Fore
SplineSet
43 50 m 0,0,1
 43 59 43 59 45 67 c 0,2,3
 49 83 49 83 62 95 c 0,4,5
 80 113 80 113 106 113 c 0,6,7
 129 113 129 113 162 143 c 0,8,9
 198 173 198 173 233 216.5 c 128,-1,10
 268 260 268 260 289 303.5 c 128,-1,11
 310 347 310 347 339 426.5 c 128,-1,12
 368 506 368 506 389 580 c 0,13,14
 394 598 394 598 398 608 c 128,-1,15
 402 618 402 618 407.5 627.5 c 128,-1,16
 413 637 413 637 418 643 c 0,17,18
 427 653 427 653 440 657 c 0,19,20
 459 664 459 664 481 665 c 0,21,22
 491 665 491 665 529 665.5 c 128,-1,23
 567 666 567 666 693 670 c 0,24,25
 751 673 751 673 758 672 c 0,26,27
 829 672 829 672 845 659 c 0,28,29
 856 649 856 649 860 622 c 0,30,31
 863 605 863 605 859 583 c 0,32,33
 855 560 855 560 836.5 479 c 128,-1,34
 818 398 818 398 780 253 c 128,-1,35
 742 108 742 108 731 80 c 0,36,37
 706 16 706 16 662 16 c 0,38,39
 639 16 639 16 629 32 c 0,40,41
 620 46 620 46 620 72 c 0,42,43
 621 96 621 96 665 284.5 c 128,-1,44
 709 473 709 473 721 517 c 0,45,46
 726 534 726 534 727 539 c 1,47,48
 714 550 714 550 698 549 c 0,49,50
 681 549 681 549 661 537 c 1,51,52
 570 536 570 536 523 534 c 1,53,54
 519 544 519 544 513 544 c 1,55,-1
 495 532 l 1,56,57
 497 544 497 544 488 510 c 0,58,59
 472 460 472 460 438 373.5 c 128,-1,60
 404 287 404 287 385 251 c 128,-1,61
 366 215 366 215 350 191.5 c 128,-1,62
 334 168 334 168 304 133 c 0,63,64
 241 60 241 60 175 26 c 0,65,66
 133 4 133 4 103 4 c 0,67,68
 82 4 82 4 66 15 c 0,69,70
 46 28 46 28 43 50 c 0,0,1
EndSplineSet
Validated: 33
EndChar

StartChar: uni0427
Encoding: 1063 1063 192
Width: 601
VWidth: 911
Flags: MW
LayerCount: 2
Fore
SplineSet
473 340 m 0,0,1
 503 344 503 344 504 347 c 2,2,-1
 533 466 l 2,3,4
 555 560 555 560 564 585 c 0,5,6
 573 614 573 614 586 628 c 0,7,8
 607 654 607 654 632 654 c 0,9,10
 653 654 653 654 664 638 c 0,11,12
 671 625 671 625 672 600 c 0,13,14
 673 580 673 580 648 450 c 0,15,16
 616 284 616 284 581 131 c 0,17,18
 568 75 568 75 556 20 c 1,19,-1
 549 13 l 1,20,-1
 535 -1 l 2,21,22
 512 -23 512 -23 490 -23 c 0,23,24
 479 -23 479 -23 469 -18 c 0,25,26
 451 -8 451 -8 452 31 c 0,27,28
 452 61 452 61 461.5 115.5 c 128,-1,29
 471 170 471 170 476 197 c 1,30,31
 468 196 468 196 460 194 c 0,32,33
 413 183 413 183 330 183 c 0,34,35
 278 183 278 183 256 185 c 0,36,37
 196 191 196 191 135 236 c 0,38,39
 98 262 98 262 92 283 c 0,40,41
 87 296 87 296 93 337 c 0,42,43
 98 377 98 377 110 434 c 0,44,45
 121 491 121 491 130 529 c 0,46,47
 149 613 149 613 165 641 c 0,48,49
 184 673 184 673 209 679 c 0,50,51
 215 680 215 680 220 680 c 0,52,53
 234 680 234 680 242 669 c 128,-1,54
 250 658 250 658 248 639 c 0,55,56
 247 635 247 635 223 515 c 2,57,-1
 197 383 l 1,58,59
 197 382 197 382 194 364 c 1,60,-1
 226 352 l 2,61,62
 293 326 293 326 359 326 c 0,63,64
 376 326 376 326 473 340 c 0,0,1
EndSplineSet
Validated: 33
EndChar

StartChar: uni0411
Encoding: 1041 1041 196
Width: 551
VWidth: 911
Flags: MW
LayerCount: 2
Fore
SplineSet
301 485 m 1,0,1
 334 492 334 492 368.5 492 c 128,-1,2
 403 492 403 492 436 485 c 0,3,4
 484 475 484 475 514 457 c 0,5,6
 542 443 542 443 565 415 c 1,7,8
 585 375 585 375 587.5 333 c 128,-1,9
 590 291 590 291 578 235 c 0,10,11
 557 144 557 144 494 77 c 0,12,13
 450 30 450 30 388 11 c 0,14,15
 352 0 352 0 317 0 c 0,16,17
 314 0 314 0 312 0 c 0,18,19
 286 0 286 0 261 5 c 0,20,21
 227 13 227 13 191 36 c 128,-1,22
 155 59 155 59 135 89 c 0,23,24
 88 160 88 160 91 250 c 0,25,26
 92 274 92 274 103 321 c 128,-1,27
 114 368 114 368 125 397 c 0,28,29
 152 466 152 466 198 523.5 c 128,-1,30
 244 581 244 581 310 619 c 0,31,32
 361 647 361 647 411 662 c 0,33,34
 462 677 462 677 528 686 c 0,35,36
 556 690 556 690 570 693 c 1,37,38
 577 705 577 705 588 717 c 0,39,40
 597 724 597 724 605 729 c 0,41,42
 612 730 612 730 622 730 c 0,43,44
 639 730 639 730 649 719 c 0,45,46
 656 711 656 711 655 702 c 0,47,48
 653 695 653 695 649 684 c 0,49,50
 629 622 629 622 590 598 c 0,51,52
 571 587 571 587 512 576 c 0,53,54
 430 563 430 563 382 543 c 0,55,56
 342 523 342 523 301 485 c 1,0,1
350 397 m 2,57,-1
 348 397 l 2,58,59
 311 397 311 397 295 391 c 128,-1,60
 279 385 279 385 251 366 c 0,61,62
 230 352 230 352 219.5 335.5 c 128,-1,63
 209 319 209 319 202 287 c 0,64,65
 194 252 194 252 193 240 c 0,66,67
 194 236 194 236 199 224 c 0,68,69
 212 180 212 180 249 148 c 0,70,71
 291 112 291 112 335 112 c 0,72,73
 358 112 358 112 384 121 c 0,74,75
 416 134 416 134 442 161 c 0,76,77
 470 193 470 193 477 229 c 0,78,79
 486 269 486 269 480 306 c 0,80,81
 474 328 474 328 456 352.5 c 0,82,83
 438 376 438 376 424 382 c 0,84,85
 391 396 391 396 350 397 c 2,57,-1
EndSplineSet
Validated: 524321
EndChar

StartChar: uni0414
Encoding: 1044 1044 197
Width: 667
VWidth: 911
Flags: W
LayerCount: 2
Fore
SplineSet
665 690 m 0,0,1
 685 681 685 681 678 647 c 0,2,3
 671 618 671 618 667 594 c 0,4,5
 666 586 666 586 663 578 c 0,6,7
 650 520 650 520 650 520 c 2,8,-1
 645 500 l 2,9,10
 642 490 642 490 636 464 c 0,11,12
 619 392 619 392 602 321 c 1,13,14
 605 321 605 321 607 320 c 0,15,16
 652 317 652 317 660 308 c 0,17,18
 667 297 667 297 656 211 c 0,19,20
 651 175 651 175 647 160 c 0,21,22
 646 156 646 156 646 153 c 0,23,24
 638 107 638 107 631 85 c 0,25,26
 626 68 626 68 626 63 c 0,27,28
 613 11 613 11 580 11 c 0,29,30
 529 11 529 11 521 23 c 0,31,32
 516 31 516 31 515 49 c 0,33,34
 514 68 514 68 534 179 c 1,35,36
 479 179 479 179 365 186 c 0,37,38
 291 191 291 191 217 194 c 1,39,40
 201 157 201 157 167 61 c 0,41,42
 159 39 159 39 136 -8 c 0,43,44
 123 -35 123 -35 63 -35 c 0,45,46
 24 -35 24 -35 35 8 c 2,47,48
 35 8 35 8 67 123 c 5,49,50
 93 233 93 233 116 270 c 1,51,52
 188 328 188 328 239 460 c 0,53,54
 246 477 246 477 290 574 c 0,55,56
 327 654 327 654 332 662 c 0,57,58
 341 675 341 675 421 685 c 0,59,60
 479 692 479 692 542 694 c 0,61,62
 595 695 595 695 599 695 c 0,63,64
 664 691 664 691 665 690 c 0,0,1
568 582 m 1,65,-1
 507 582 l 1,66,-1
 400 578 l 1,67,68
 365 491 365 491 340 441 c 0,69,70
 297 351 297 351 271 314 c 1,71,72
 310 310 310 310 360 310 c 0,73,74
 434 310 434 310 510 320 c 1,75,76
 515 342 515 342 519 364 c 0,77,78
 544 472 544 472 568 582 c 1,65,-1
EndSplineSet
Validated: 33
EndChar

StartChar: uni0454
Encoding: 1108 1108 199
Width: 602
VWidth: 911
Flags: W
LayerCount: 2
Fore
SplineSet
594 544 m 0,0,1
 566 566 566 566 542 577 c 0,2,3
 527 584 527 584 521.5 584 c 128,-1,4
 516 584 516 584 510 584 c 0,5,6
 505 584 505 584 489 582 c 0,7,8
 449 577 449 577 398 557.5 c 128,-1,9
 347 538 347 538 315 514 c 0,10,11
 297 501 297 501 278 473.5 c 128,-1,12
 259 446 259 446 249 419 c 1,13,14
 257 412 257 412 268 418 c 1,15,16
 276 418 276 418 288 418 c 0,17,18
 333 418 333 418 422.5 420.5 c 128,-1,19
 512 423 512 423 547 423 c 0,20,21
 556 423 556 423 562 423 c 0,22,23
 588 422 588 422 597.5 421 c 128,-1,24
 607 420 607 420 614 418 c 1,25,26
 614 412 614 412 616 417 c 1,27,28
 632 403 632 403 628 380 c 2,29,-1
 628 379 l 2,30,31
 624 357 624 357 607 340 c 0,32,33
 595 328 595 328 577 322 c 0,34,35
 523 303 523 303 461 300 c 0,36,37
 459 300 459 300 459 299 c 0,38,39
 364 295 364 295 257 287 c 2,40,-1
 233 286 l 1,41,-1
 233 286 l 1,42,-1
 232 286 l 1,43,44
 241 250 241 250 250 227 c 0,45,46
 275 170 275 170 322 149 c 0,47,48
 341 140 341 140 348 140 c 0,49,50
 351 140 351 140 354 140 c 0,51,52
 362 140 362 140 375 141 c 0,53,54
 394 142 394 142 401 143 c 0,55,56
 449 146 449 146 475 153 c 0,57,58
 497 159 497 159 521 177 c 0,59,60
 549 197 549 197 567 199 c 0,61,62
 569 199 569 199 570 200 c 0,63,64
 586 200 586 200 594 187 c 0,65,66
 601 178 601 178 600 168 c 1,67,68
 601 175 601 175 600 167 c 2,69,-1
 599 165 l 1,70,-1
 599 164 l 2,71,72
 598 156 598 156 590 141 c 0,73,74
 562 88 562 88 488 52 c 0,75,76
 422 19 422 19 355 15 c 0,77,78
 346 14 346 14 336 14 c 0,79,80
 259 14 259 14 206 54 c 0,81,82
 154 89 154 89 130 159 c 0,83,84
 115 204 115 204 111 234 c 0,85,86
 106 267 106 267 106.5 298.5 c 128,-1,87
 107 330 107 330 113 357 c 0,88,89
 115 367 115 367 117 377 c 0,90,91
 128 425 128 425 152 476 c 0,92,93
 180 538 180 538 217 578 c 128,-1,94
 254 618 254 618 319 651 c 0,95,96
 376 679 376 679 415 693 c 0,97,98
 465 709 465 709 527 713 c 0,99,100
 538 714 538 714 546 714 c 0,101,102
 571 714 571 714 584 709 c 0,103,104
 623 695 623 695 654 659 c 0,105,106
 684 624 684 624 692 591 c 0,107,108
 697 572 697 572 693 553.5 c 128,-1,109
 689 535 689 535 675 522 c 0,110,111
 665 512 665 512 652 511 c 0,112,113
 643 510 643 510 631 516 c 128,-1,114
 619 522 619 522 594 544 c 0,0,1
EndSplineSet
Validated: 37
EndChar

StartChar: uni042F
Encoding: 1071 1071 200
Width: 588
VWidth: 911
Flags: MW
LayerCount: 2
Fore
SplineSet
508 265 m 1,0,1
 475 261 475 261 440 260 c 0,2,3
 379 260 379 260 345 270 c 0,4,5
 344 269 344 269 336 258 c 0,6,7
 328 248 328 248 266.5 179 c 128,-1,8
 205 110 205 110 176.5 75 c 128,-1,9
 148 40 148 40 134 25 c 0,10,11
 121 11 121 11 110 5 c 0,12,13
 89 -6 89 -6 79 -5 c 0,14,15
 68 -6 68 -6 56 4 c 0,16,17
 43 13 43 13 40.5 26 c 128,-1,18
 38 39 38 39 43 59 c 0,19,20
 49 87 49 87 107 166.5 c 128,-1,21
 165 246 165 246 226 309 c 0,22,23
 235 317 235 317 243 325 c 1,24,25
 238 329 238 329 231 333 c 0,26,27
 203 356 203 356 196 384 c 0,28,29
 187 417 187 417 199 473 c 0,30,31
 202 486 202 486 207 499 c 128,-1,32
 212 512 212 512 227 539 c 0,33,34
 252 584 252 584 283 611 c 0,35,36
 316 639 316 639 373 665 c 0,37,38
 430 693 430 693 471.5 703.5 c 128,-1,39
 513 714 513 714 587 720 c 0,40,41
 628 724 628 724 643 724 c 0,42,43
 665 724 665 724 678 716 c 0,44,45
 695 703 695 703 698 685 c 0,46,47
 703 665 703 665 691 590.5 c 128,-1,48
 679 516 679 516 643 361 c 0,49,50
 635 327 635 327 626 289 c 0,51,52
 585 114 585 114 573 76 c 0,53,54
 558 28 558 28 531 14 c 0,55,56
 520 8 520 8 508 7 c 0,57,58
 482 7 482 7 475 39 c 0,59,60
 472 54 472 54 481 121 c 0,61,62
 491 188 491 188 504 248 c 2,63,-1
 508 265 l 1,0,1
403 406 m 128,-1,65
 425 401 425 401 454 401 c 0,66,67
 464 401 464 401 493.5 402.5 c 128,-1,68
 523 404 523 404 541 408 c 1,69,-1
 549 440 l 2,70,71
 560 490 560 490 569 559 c 2,72,-1
 576 607 l 1,73,74
 519 602 519 602 487 594.5 c 128,-1,75
 455 587 455 587 415 570.5 c 128,-1,76
 375 554 375 554 356.5 538.5 c 128,-1,77
 338 523 338 523 323 495 c 0,78,79
 315 479 315 479 314 474 c 128,-1,80
 313 469 313 469 314.5 461 c 128,-1,81
 316 453 316 453 320 448.5 c 128,-1,82
 324 444 324 444 344 433 c 0,83,64
 381 411 381 411 403 406 c 128,-1,65
EndSplineSet
Validated: 33
EndChar

StartChar: bar
Encoding: 124 124 204
Width: 201
VWidth: 1075
Flags: MW
LayerCount: 2
Fore
SplineSet
156 525 m 2,0,1
 156 524 156 524 181 634 c 2,2,3
 218 796 218 796 243 834 c 0,4,5
 265 869 265 869 295 870 c 0,6,7
 300 870 300 870 305 869 c 0,8,9
 345 861 345 861 352 826 c 0,10,11
 355 813 355 813 345 753 c 0,12,13
 343 731 343 731 325 656 c 0,14,15
 323 645 323 645 320 633 c 0,16,17
 303 558 303 558 269 427 c 0,18,19
 187 95 187 95 147 2 c 0,20,21
 136 -23 136 -23 127 -33 c 0,22,23
 97 -66 97 -66 80 -73 c 0,24,25
 75 -75 75 -75 72 -74 c 0,26,27
 57 -74 57 -74 42 -57 c 0,28,29
 26 -41 26 -41 29 -14 c 0,30,31
 31 5 31 5 37 31.5 c 128,-1,32
 43 58 43 58 49 80 c 0,33,34
 110 327 110 327 156 525 c 2,0,1
EndSplineSet
Validated: 33
EndChar

StartChar: macron
Encoding: 175 175 206
Width: 565
VWidth: 1075
Flags: MW
LayerCount: 2
Fore
SplineSet
214 789.5 m 128,-1,1
 220 815 220 815 284 844 c 0,2,3
 326 863 326 863 493 863 c 0,4,5
 670 863 670 863 691 838 c 0,6,7
 719 804 719 804 713 780 c 0,8,9
 710 765 710 765 677 743 c 0,10,11
 659 729 659 729 611 728 c 0,12,13
 531 724 531 724 292 738 c 0,14,15
 265 740 265 740 240 751 c 0,16,0
 208 764 208 764 214 789.5 c 128,-1,1
EndSplineSet
Validated: 33
EndChar

StartChar: asciicircum
Encoding: 94 94 207
Width: 459
VWidth: 1075
Flags: MW
LayerCount: 2
Fore
SplineSet
239 784 m 0,0,1
 383 962 383 962 428 962 c 4,2,3
 493 962 493 962 550 788 c 0,4,5
 556 768 556 768 553 755 c 0,6,7
 545 719 545 719 518 712 c 0,8,9
 478 702 478 702 402 839 c 1,10,11
 304 713 304 713 247 713 c 2,12,-1
 246 713 l 2,13,14
 211 713 211 713 218 742 c 0,15,16
 222 764 222 764 239 784 c 0,0,1
EndSplineSet
Validated: 33
EndChar

StartChar: uni00B2
Encoding: 178 178 209
Width: 299
VWidth: 1075
Flags: W
LayerCount: 2
Fore
SplineSet
257 709 m 0,0,1
 246 698 246 698 228 698 c 0,2,3
 204 698 204 698 197 716 c 0,4,5
 190 738 190 738 214 779 c 0,6,7
 227 802 227 802 247 821 c 0,8,9
 287 859 287 859 332 866 c 0,10,11
 338 867 338 867 346 868 c 1,12,-1
 346 868 l 2,13,14
 363 868 363 868 376 859 c 0,15,16
 415 836 415 836 397 759 c 0,17,18
 397 759 397 759 396 759 c 0,19,20
 387 719 387 719 373 692 c 128,-1,21
 359 665 359 665 326 624 c 1,22,23
 371 623 371 623 384 618 c 0,24,25
 403 611 403 611 410 589 c 0,26,27
 415 573 415 573 412 558 c 0,28,29
 410 551 410 551 408 545 c 0,30,31
 398 523 398 523 379 512 c 0,32,33
 365 504 365 504 347 504 c 0,34,35
 335 504 335 504 324 507 c 128,-1,36
 313 510 313 510 299 510 c 0,37,38
 256 510 256 510 183 496 c 1,39,40
 175 495 175 495 174 494.5 c 128,-1,41
 173 494 173 494 173 494 c 0,42,43
 164 494 164 494 152 501 c 1,44,45
 136 514 136 514 141 536.5 c 128,-1,46
 146 559 146 559 183 601 c 1,47,48
 261 688 261 688 275.5 705 c 128,-1,49
 290 722 290 722 297.5 740 c 128,-1,50
 305 758 305 758 308 768 c 1,51,52
 300 765 300 765 287 753 c 0,53,54
 279 745 279 745 272.5 731.5 c 128,-1,55
 266 718 266 718 257 709 c 0,0,1
EndSplineSet
Validated: 37
EndChar

StartChar: uni00B3
Encoding: 179 179 210
Width: 300
VWidth: 1075
Flags: W
LayerCount: 2
Fore
SplineSet
318 760 m 1,0,1
 317 760 317 760 317 760 c 0,2,3
 307 760 307 760 298.5 757 c 128,-1,4
 290 754 290 754 271 742 c 0,5,6
 240 721 240 721 224 720 c 0,7,8
 215 720 215 720 208 725 c 0,9,10
 196 735 196 735 200 754 c 0,11,12
 204 769 204 769 218 791 c 0,13,14
 240 824 240 824 268 842 c 0,15,16
 298 861 298 861 340 866 c 2,17,18
 345 854 345 854 356 868 c 1,19,20
 353 856 353 856 357 868 c 1,21,-1
 357 868 l 2,22,23
 375 868 375 868 390 862 c 0,24,25
 413 853 413 853 423 833 c 0,26,27
 436 808 436 808 429.5 778.5 c 128,-1,28
 423 749 423 749 395 717 c 1,29,30
 418 703 418 703 427 674 c 0,31,32
 434 650 434 650 430 627 c 2,33,34
 431 630 431 630 429 626 c 2,35,36
 422 597 422 597 389 559 c 0,37,38
 362 529 362 529 344 520 c 0,39,40
 314 504 314 504 279 497 c 0,41,42
 259 493 259 493 242 493 c 0,43,44
 179 493 179 493 157 525 c 0,45,46
 143 544 143 544 148 566 c 0,47,48
 151 578 151 578 157 588 c 0,49,50
 171 610 171 610 194 612 c 0,51,52
 196 612 196 612 205 613 c 2,53,-1
 205 613 l 2,54,55
 213 613 213 613 242 609 c 0,56,57
 260 609 260 609 268 608.5 c 128,-1,58
 276 608 276 608 279 608 c 0,59,60
 289 608 289 608 300 613 c 0,61,62
 311 617 311 617 315 620 c 0,63,64
 318 623 318 623 321 627.5 c 128,-1,65
 324 632 324 632 325 633 c 0,66,67
 321 636 321 636 311 639 c 128,-1,68
 301 642 301 642 293 642 c 2,69,-1
 290 642 l 1,70,-1
 284 642 l 2,71,72
 282 642 282 642 278 641 c 2,73,-1
 276 641 l 2,74,75
 259 641 259 641 248 648 c 0,76,77
 227 659 227 659 232 682 c 0,78,79
 234 691 234 691 245 702.5 c 128,-1,80
 256 714 256 714 279.5 730 c 128,-1,81
 303 746 303 746 318 760 c 1,0,1
EndSplineSet
Validated: 37
EndChar

StartChar: ordmasculine
Encoding: 186 186 211
Width: 286
VWidth: 1075
Flags: W
LayerCount: 2
Fore
SplineSet
392 826 m 0,0,1
 422 793 422 793 421 737 c 0,2,3
 421 715 421 715 416 695 c 0,4,5
 411 673 411 673 405 656 c 0,6,7
 387 610 387 610 348 582 c 128,-1,8
 309 554 309 554 267.5 554 c 128,-1,9
 226 554 226 554 205 587 c 0,10,11
 189 610 189 610 189 662 c 0,12,13
 190 699 190 699 196 728 c 0,14,15
 199 742 199 742 203 752 c 0,16,17
 217 789 217 789 248 820.5 c 128,-1,18
 279 852 279 852 306 855 c 0,19,20
 313 856 313 856 319 856 c 0,21,22
 366 856 366 856 392 826 c 0,0,1
287 675 m 0,23,24
 290 669 290 669 297 670 c 0,25,26
 299 670 299 670 303 670 c 0,27,28
 315 673 315 673 320 684 c 0,29,30
 327 697 327 697 329 706.5 c 128,-1,31
 331 716 331 716 332 726 c 0,32,33
 334 748 334 748 328 756 c 0,34,35
 319 762 319 762 314.5 762 c 128,-1,36
 310 762 310 762 306 760 c 0,37,38
 294 756 294 756 288 742 c 0,39,40
 284 732 284 732 283 723 c 0,41,42
 277 693 277 693 287 675 c 0,23,24
EndSplineSet
Validated: 33
EndChar

StartChar: Gamma
Encoding: 915 915 215
Width: 598
VWidth: 911
Flags: W
LayerCount: 2
Fore
SplineSet
103 148 m 0,0,1
 125 270 125 270 140 398 c 0,2,3
 147 456 147 456 155 504 c 128,-1,4
 163 552 163 552 168 587 c 128,-1,5
 173 622 173 622 177.5 640.5 c 128,-1,6
 182 659 182 659 188 672 c 0,7,8
 203 704 203 704 231 717 c 0,9,10
 242 720 242 720 290 724 c 0,11,12
 343 727 343 727 428 728 c 128,-1,13
 513 729 513 729 566.5 729 c 128,-1,14
 620 729 620 729 645 728 c 0,15,16
 679 726 679 726 686 723 c 0,17,18
 720 709 720 709 721 667 c 0,19,20
 722 655 722 655 719 645 c 0,21,22
 713 619 713 619 690 599 c 0,23,24
 678 589 678 589 666 585 c 0,25,26
 648 578 648 578 586 578 c 0,27,28
 553 578 553 578 438 581.5 c 128,-1,29
 323 585 323 585 282 586 c 1,30,31
 277 563 277 563 268 497 c 128,-1,32
 259 431 259 431 252 366 c 0,33,34
 243 268 243 268 214 145 c 0,35,36
 196 67 196 67 183 40 c 0,37,38
 178 31 178 31 173 24 c 0,39,40
 150 -1 150 -1 123 -1 c 0,41,42
 107 -1 107 -1 98 10 c 0,43,44
 92 17 92 17 89.5 27.5 c 128,-1,45
 87 38 87 38 90 65.5 c 128,-1,46
 93 93 93 93 103 148 c 0,0,1
EndSplineSet
Validated: 33
EndChar

StartChar: grave
Encoding: 96 96 217
Width: 497
VWidth: 1075
Flags: W
LayerCount: 2
Fore
SplineSet
341 877 m 0,0,1
 323 916 323 916 329 934 c 0,2,3
 338 962 338 962 363 966 c 0,4,5
 398 970 398 970 514 868 c 4,6,7
 539 847 539 847 552 813 c 0,8,9
 561 788 561 788 557 770 c 0,10,11
 553 752 553 752 536 736 c 0,12,13
 520 722 520 722 504 722 c 0,14,15
 494 722 494 722 478 730 c 0,16,17
 447 746 447 746 399 796 c 0,18,19
 358 840 358 840 341 877 c 0,0,1
EndSplineSet
Validated: 33
EndChar

StartChar: bracketleft
Encoding: 91 91 218
Width: 626
VWidth: 1075
Flags: W
LayerCount: 2
Fore
SplineSet
380 790 m 0,0,1
 402 855 402 855 478 862 c 2,2,3
 482 865 482 865 588 872 c 0,4,5
 620 874 620 874 642 838 c 0,6,7
 657 812 657 812 652 790 c 0,8,9
 643 750 643 750 558 734 c 0,10,11
 517 727 517 727 477 720 c 1,12,13
 477 720 477 720 430 560 c 0,14,15
 426 550 426 550 403 474 c 0,16,17
 316 200 316 200 310 182 c 0,18,19
 304 164 304 164 304 160 c 0,20,21
 300 106 300 106 308 81 c 1,22,-1
 390 75 l 0,23,24
 440 71 440 71 426 -5 c 0,25,26
 424 -14 424 -14 416 -36 c 0,27,28
 402 -70 402 -70 320 -70 c 0,29,30
 287 -70 287 -70 244 -65 c 0,31,32
 125 -48 125 -48 127 -36 c 0,33,34
 152 128 152 128 380 790 c 0,0,1
EndSplineSet
Validated: 33
EndChar

StartChar: bracketright
Encoding: 93 93 219
Width: 625
VWidth: 1075
Flags: W
LayerCount: 2
Fore
SplineSet
442 8 m 1,0,1
 427 -55 427 -55 326 -65 c 128,-1,2
 225 -75 225 -75 219 -76 c 0,3,4
 172 -79 172 -79 152 -42 c 0,5,6
 137 -16 137 -16 142 5 c 0,7,8
 154 57 154 57 235 61 c 0,9,10
 297 64 297 64 325 68 c 1,11,12
 334 85 334 85 406 339 c 1,13,14
 503 658 503 658 514 707 c 1,15,-1
 404 721 l 1,16,17
 356 746 356 746 368 801 c 0,18,19
 371 815 371 815 378 832 c 0,20,21
 394 866 394 866 474 866 c 0,22,23
 507 866 507 866 550 860 c 0,24,25
 665 844 665 844 667 832 c 1,26,27
 625 652 625 652 622 643 c 1,28,29
 621 643 621 643 442 8 c 1,0,1
EndSplineSet
Validated: 33
EndChar

StartChar: registered
Encoding: 174 174 232
Width: 639
VWidth: 1075
Flags: W
LayerCount: 2
Fore
SplineSet
374 587 m 128,-1,1
 386 590 386 590 411 590 c 0,2,3
 465 590 465 590 494.5 560.5 c 128,-1,4
 524 531 524 531 514 486 c 0,5,6
 509 463 509 463 497.5 448 c 128,-1,7
 486 433 486 433 455 405 c 0,8,9
 434 388 434 388 427 380 c 1,10,11
 433 376 433 376 459 356 c 0,12,13
 493 331 493 331 503 321 c 0,14,15
 513 310 513 310 516 299 c 0,16,17
 518 290 518 290 516 284 c 0,18,19
 514 277 514 277 505 265 c 0,20,21
 492 251 492 251 477 250 c 0,22,23
 473 250 473 250 469 251 c 0,24,25
 451 255 451 255 414.5 281 c 128,-1,26
 378 307 378 307 367 313.5 c 128,-1,27
 356 320 356 320 344 325 c 0,28,29
 342 329 342 329 337 327 c 1,30,31
 335 318 335 318 331 301 c 0,32,33
 323 267 323 267 311 252 c 0,34,35
 304 245 304 245 299 241 c 128,-1,36
 294 237 294 237 289.5 237.5 c 128,-1,37
 285 238 285 238 282 240 c 0,38,39
 279 244 279 244 275 249 c 0,40,41
 270 258 270 258 271 288.5 c 128,-1,42
 272 319 272 319 280 379 c 0,43,44
 294 478 294 478 304 518 c 0,45,46
 305 522 305 522 306 525 c 0,47,48
 308 536 308 536 310 542 c 128,-1,49
 312 548 312 548 315 552 c 0,50,51
 321 558 321 558 346 574 c 0,52,0
 362 584 362 584 374 587 c 128,-1,1
430 474 m 0,53,54
 436 484 436 484 436 486 c 0,55,56
 436 487 436 487 436 488 c 0,57,58
 438 500 438 500 427 510 c 0,59,60
 414 523 414 523 395 523 c 0,61,62
 392 523 392 523 390 523 c 2,63,-1
 367 521 l 1,64,65
 367 520 367 520 361 490 c 2,66,67
 353 440 353 440 352 410 c 1,68,69
 358 413 358 413 363 416 c 0,70,71
 385 427 385 427 411 453 c 0,72,73
 425 466 425 466 430 474 c 0,53,54
719 419 m 0,74,75
 714 398 714 398 707 374 c 0,76,77
 649 179 649 179 464 81 c 0,78,79
 429 62 429 62 406 57 c 0,80,81
 378 50 378 50 329.5 50 c 128,-1,82
 281 50 281 50 259 58 c 0,83,84
 209 75 209 75 170 116 c 0,85,86
 128 159 128 159 112 208 c 0,87,88
 102 240 102 240 101.5 302 c 128,-1,89
 101 364 101 364 110 401 c 0,90,91
 133 499 133 499 177 567 c 0,92,93
 228 644 228 644 289 697 c 0,94,95
 330 731 330 731 399 752 c 0,96,97
 431 762 431 762 531 765 c 0,98,99
 534 765 534 765 537 765 c 0,100,101
 610 765 610 765 658 736 c 0,102,103
 678 724 678 724 699 680 c 0,104,105
 721 633 721 633 727 597 c 0,106,107
 742 519 742 519 719 419 c 0,74,75
208 421 m 0,108,109
 207 415 207 415 205 409 c 0,110,111
 195 367 195 367 194 350 c 0,112,113
 193 334 193 334 199 302 c 0,114,115
 210 246 210 246 232 220 c 0,116,117
 263 183 263 183 308 170 c 0,118,119
 328 165 328 165 349 165 c 0,120,121
 393 165 393 165 439 190 c 0,122,123
 509 228 509 228 543 269 c 0,124,125
 581 318 581 318 601 392 c 0,126,127
 605 405 605 405 607 415 c 0,128,129
 620 472 620 472 618 509 c 0,130,131
 616 557 616 557 593.5 593.5 c 128,-1,132
 571 630 571 630 547 644 c 128,-1,133
 523 658 523 658 468 661 c 0,134,135
 457 662 457 662 448 662 c 128,-1,136
 439 662 439 662 418 660 c 1,137,-1
 418 661 l 1,138,139
 370 656 370 656 339 628 c 0,140,141
 301 596 301 596 256 528 c 0,142,143
 233 492 233 492 224.5 473 c 128,-1,144
 216 454 216 454 208 421 c 0,108,109
EndSplineSet
Validated: 33
EndChar

StartChar: uni00B9
Encoding: 185 185 233
Width: 261
VWidth: 715
Flags: W
LayerCount: 2
Fore
SplineSet
221 762 m 0,0,1
 224 777 224 777 251 796 c 1,2,3
 282 816 282 816 320 855 c 1,4,5
 340 863 340 863 352 863 c 128,-1,6
 364 863 364 863 371 860 c 0,7,8
 387 855 387 855 395 841 c 1,9,10
 397 823 397 823 367 689 c 0,11,12
 367 689 367 689 367 688.5 c 128,-1,13
 367 688 367 688 366.5 686 c 128,-1,14
 366 684 366 684 365 681 c 2,15,-1
 365 679 l 1,16,-1
 360 657 l 1,17,-1
 357 646 l 2,18,19
 337 557 337 557 331 545 c 0,20,21
 328 541 328 541 323 538 c 0,22,23
 309 524 309 524 290 519 c 0,24,25
 284 518 284 518 278 517 c 1,26,-1
 277 517 l 1,27,-1
 275 517 l 2,28,29
 260 517 260 517 248 524 c 1,30,31
 237 532 237 532 238 551 c 1,32,33
 247 608 247 608 270 722 c 1,34,35
 263 720 263 720 257 720 c 0,36,37
 243 720 243 720 234 726 c 0,38,39
 215 737 215 737 221 762 c 0,0,1
EndSplineSet
Validated: 33
EndChar

StartChar: Ccedilla
Encoding: 199 199 235
Width: 494
VWidth: 1075
Flags: W
LayerCount: 2
Fore
SplineSet
208 32 m 0,0,1
 223 44 223 44 208 48 c 0,2,3
 158 62 158 62 124 105 c 0,4,5
 86 154 86 154 87 210 c 0,6,7
 87 251 87 251 95 283 c 0,8,9
 102 314 102 314 130 382 c 0,10,11
 196 540 196 540 328 659 c 0,12,13
 366 693 366 693 402 716 c 0,14,15
 428 734 428 734 449 734 c 0,16,17
 488 734 488 734 495 704 c 0,18,19
 498 691 498 691 495.5 679.5 c 128,-1,20
 493 668 493 668 485 659 c 0,21,22
 469 638 469 638 414 590 c 0,23,24
 333 520 333 520 290 458 c 0,25,26
 245 394 245 394 220 320 c 0,27,28
 216 308 216 308 212 291 c 0,29,30
 205 260 205 260 208 245 c 0,31,32
 219 190 219 190 307 189 c 0,33,34
 308 189 308 189 309 189 c 0,35,36
 350 189 350 189 402 220 c 0,37,38
 449 249 449 249 476 248 c 0,39,40
 505 248 505 248 511 221 c 0,41,42
 513 206 513 206 508 183 c 0,43,44
 498 140 498 140 451 104 c 0,45,46
 410 72 410 72 307 40 c 1,47,-1
 275 -4 l 1,48,49
 321 -11 321 -11 312 -53 c 0,50,51
 303 -92 303 -92 247 -159 c 0,52,53
 229 -180 229 -180 187 -194 c 0,54,55
 168 -201 168 -201 149 -202 c 0,56,57
 141 -202 141 -202 132 -200 c 0,58,59
 126 -199 126 -199 117 -195 c 0,60,61
 105 -191 105 -191 95 -181 c 0,62,63
 79 -166 79 -166 75 -145 c 0,64,65
 73 -133 73 -133 75 -123 c 0,66,67
 77 -115 77 -115 82 -108 c 0,68,69
 88 -99 88 -99 93 -94 c 0,70,71
 104 -85 104 -85 114 -89 c 0,72,73
 123 -93 123 -93 130 -111 c 0,74,75
 137 -130 137 -130 153 -136 c 0,76,77
 160 -140 160 -140 171 -130 c 0,78,79
 177 -126 177 -126 185 -113 c 0,80,81
 186 -110 186 -110 192 -102 c 0,82,83
 208 -75 208 -75 210 -65 c 0,84,85
 211 -60 211 -60 209 -58 c 0,86,87
 166 -40 166 -40 173 -14 c 0,88,89
 177 6 177 6 208 32 c 0,0,1
EndSplineSet
Validated: 33
EndChar

StartChar: questiondown
Encoding: 191 191 237
Width: 517
VWidth: 1075
Flags: W
LayerCount: 2
Fore
SplineSet
228 -78 m 6,0,-1
 226 -78 l 6,1,2
 131 -79 131 -79 90 -41 c 4,3,4
 32 12 32 12 53 118 c 4,5,6
 55 130 55 130 57 142 c 4,7,8
 77 231 77 231 146 310 c 4,9,10
 228 404 228 404 329 434 c 4,11,12
 368 446 368 446 376 454 c 4,13,14
 379 457 379 457 385 469 c 4,15,16
 390 479 390 479 400 507 c 4,17,18
 417 556 417 556 445 591 c 4,19,20
 475 631 475 631 504 632 c 4,21,22
 523 632 523 632 543 613 c 4,23,24
 559 598 559 598 556 571 c 4,25,26
 554 552 554 552 549 531 c 4,27,28
 543 500 543 500 539 485 c 4,29,30
 527 449 527 449 495 391 c 4,31,32
 475 354 475 354 411 331 c 4,33,34
 411 330 411 330 311 300 c 4,35,36
 283 292 283 292 242 248 c 4,37,38
 210 213 210 213 188 164 c 4,39,40
 177 140 177 140 178 104 c 4,41,42
 179 82 179 82 218 69 c 132,-1,43
 257 56 257 56 328 83 c 4,44,45
 393 107 393 107 409 140 c 4,46,47
 432 187 432 187 451 207 c 4,48,49
 463 219 463 219 479 219 c 4,50,51
 518 218 518 218 517 171 c 4,52,53
 515 120 515 120 508 100 c 4,54,55
 480 26 480 26 414 -18 c 4,56,57
 324 -77 324 -77 228 -78 c 6,0,-1
521 714 m 4,58,59
 498 714 498 714 478 745.5 c 132,-1,60
 458 777 458 777 464.5 806.5 c 132,-1,61
 471 836 471 836 507 868 c 132,-1,62
 543 900 543 900 570 900 c 4,63,64
 581 900 581 900 596 891 c 4,65,66
 610 882 610 882 618 870.5 c 132,-1,67
 626 859 626 859 630 841 c 132,-1,68
 634 823 634 823 630.5 809 c 132,-1,69
 627 795 627 795 617 780.5 c 132,-1,70
 607 766 607 766 586 748 c 4,71,72
 548 714 548 714 521 714 c 4,58,59
EndSplineSet
Validated: 33
EndChar

StartChar: Edieresis
Encoding: 203 203 241
Width: 556
VWidth: 1075
Flags: W
LayerCount: 2
Fore
SplineSet
553 833 m 0
 552 827 552 827 552 826 c 2
 552 825 l 2
 549 807 549 807 536 792 c 0
 521 773 521 773 498 772 c 0
 495 772 495 772 492 772 c 0
 469 772 469 772 459 785 c 0
 446 799 446 799 451 828 c 0
 452 831 452 831 453 833 c 0
 459 861 459 861 479 874 c 0
 497 888 497 888 510 889 c 0
 511 889 511 889 512 889 c 0
 524 890 524 890 536 878 c 0
 555 862 555 862 553 833 c 0
336 774 m 0
 322 760 322 760 314 757 c 0
 308 754 308 754 303 753 c 0
 297 753 297 753 292 754 c 0
 264 760 264 760 255 790 c 0
 250 806 250 806 254 823 c 0
 257 837 257 837 266 850 c 0
 279 869 279 869 290 876 c 0
 301 883 301 883 322 884 c 0
 325 884 325 884 326 884 c 0
 345 884 345 884 356 869 c 0
 370 849 370 849 363 820 c 0
 358 795 358 795 336 774 c 0
EndSplineSet
Refer: 40 69 S 1 0 0 1 0 0 2
Validated: 98337
EndChar

StartChar: periodcentered
Encoding: 183 183 242
Width: 243
VWidth: 1075
Flags: W
LayerCount: 2
Fore
SplineSet
139 355 m 1,0,1
 120 394 120 394 130 436 c 128,-1,2
 140 478 140 478 177 507 c 0,3,4
 210 532 210 532 248 533 c 0,5,6
 296 533 296 533 310 493 c 0,7,8
 321 462 321 462 313 428 c 0,9,10
 303 386 303 386 269.5 353 c 128,-1,11
 236 320 236 320 195 320 c 0,12,13
 160 320 160 320 140 354 c 2,14,-1
 139 355 l 1,0,1
EndSplineSet
Validated: 33
EndChar

StartChar: acute
Encoding: 180 180 243
Width: 327
VWidth: 1075
Flags: W
LayerCount: 2
Fore
SplineSet
487 942 m 4,0,1
 502 940 502 940 507 928 c 4,2,3
 510 920 510 920 506.5 909.5 c 132,-1,4
 503 899 503 899 495 887 c 4,5,6
 456 825 456 825 346 748 c 5,7,-1
 345 745 l 5,8,9
 299 714 299 714 273 704 c 4,10,11
 247 693 247 693 232 695 c 4,12,13
 213 697 213 697 207 717 c 4,14,15
 202 732 202 732 206 743.5 c 132,-1,16
 210 755 210 755 225 772 c 4,17,18
 249 801 249 801 317 856 c 5,19,20
 391 911 391 911 424 925 c 4,21,22
 464 945 464 945 487 942 c 4,0,1
EndSplineSet
Validated: 33
EndChar

StartChar: dieresis
Encoding: 168 168 244
Width: 493
VWidth: 1075
Flags: W
LayerCount: 2
Fore
SplineSet
595 831 m 0,0,1
 583 765 583 765 516 765 c 0,2,3
 465 765 465 765 478 823 c 0,4,5
 496 897 496 897 545 898 c 0,6,7
 606 900 606 900 595 831 c 0,0,1
336 762 m 0,8,9
 279 760 279 760 292 830 c 0,10,11
 303 891 303 891 355 893 c 0,12,13
 412 896 412 896 397 829 c 0,14,15
 381 764 381 764 336 762 c 0,8,9
EndSplineSet
Validated: 33
EndChar

StartChar: guillemotleft
Encoding: 171 171 245
Width: 588
VWidth: 1075
Flags: W
LayerCount: 2
Fore
SplineSet
596 251 m 0,0,1
 592 235 592 235 581 222 c 0,2,3
 563 204 563 204 536 204 c 128,-1,4
 509 204 509 204 481 228 c 0,5,6
 457 247 457 247 404 309 c 0,7,8
 381 336 381 336 366.5 356 c 128,-1,9
 352 376 352 376 350 382.5 c 128,-1,10
 348 389 348 389 350 394 c 0,11,12
 352 403 352 403 363 424 c 0,13,14
 371 438 371 438 398 464.5 c 128,-1,15
 425 491 425 491 479 536 c 0,16,17
 575 613 575 613 614 633 c 0,18,19
 634 643 634 643 648.5 643 c 128,-1,20
 663 643 663 643 673 637 c 0,21,22
 696 625 696 625 689 597 c 0,23,24
 685 581 685 581 676 571 c 0,25,26
 665 559 665 559 637 539 c 0,27,28
 606 517 606 517 546.5 472 c 128,-1,29
 487 427 487 427 479 420.5 c 128,-1,30
 471 414 471 414 469 412 c 1,31,32
 486 396 486 396 532 348 c 0,33,34
 569 308 569 308 583 292 c 0,35,36
 600 273 600 273 596 256 c 0,37,38
 597 254 597 254 596 251 c 0,0,1
358 219 m 0,39,40
 340 201 340 201 321 201 c 0,41,42
 288 201 288 201 257 224 c 0,43,44
 256 225 256 225 182 312 c 0,45,46
 159 339 159 339 144.5 359.5 c 128,-1,47
 130 380 130 380 128 386 c 128,-1,48
 126 392 126 392 127 398 c 0,49,50
 129 406 129 406 141 428 c 0,51,52
 149 442 149 442 176 469 c 0,53,54
 203 495 203 495 256 540 c 0,55,56
 348 615 348 615 392 636 c 0,57,58
 411 646 411 646 426 646 c 0,59,60
 440 646 440 646 451 641 c 0,61,62
 473 628 473 628 467 600 c 0,63,64
 463 584 463 584 453 574 c 0,65,66
 443 563 443 563 415 543 c 0,67,68
 384 521 384 521 325 476 c 0,69,70
 265 431 265 431 257 425 c 0,71,72
 249 418 249 418 247 416 c 1,73,74
 297 357 297 357 309 345 c 0,75,76
 346 306 346 306 359 290 c 0,77,78
 376 270 376 270 373 251 c 0,79,80
 372 248 372 248 371 246 c 0,81,82
 368 231 368 231 358 219 c 0,39,40
EndSplineSet
Validated: 33
EndChar

StartChar: guillemotright
Encoding: 187 187 246
Width: 588
VWidth: 1075
Flags: W
LayerCount: 2
Fore
SplineSet
194 595 m 0,0,1
 198 611 198 611 209 624 c 0,2,3
 227 642 227 642 254 642 c 128,-1,4
 281 642 281 642 309 618 c 0,5,6
 333 599 333 599 387 537 c 0,7,8
 410 510 410 510 424 490 c 128,-1,9
 438 470 438 470 440 463.5 c 128,-1,10
 442 457 442 457 441 452 c 0,11,12
 439 443 439 443 427 422 c 0,13,14
 419 408 419 408 392 381.5 c 128,-1,15
 365 355 365 355 312 310 c 0,16,17
 216 233 216 233 176 213 c 0,18,19
 156 203 156 203 141.5 203 c 128,-1,20
 127 203 127 203 118 209 c 0,21,22
 95 221 95 221 101 249 c 0,23,24
 105 265 105 265 115 275 c 0,25,26
 126 287 126 287 154 307 c 0,27,28
 185 329 185 329 244 374 c 128,-1,29
 303 419 303 419 311 425.5 c 128,-1,30
 319 432 319 432 321 434 c 1,31,32
 304 450 304 450 258 498 c 0,33,34
 221 538 221 538 207 554 c 0,35,36
 190 573 190 573 194 590 c 0,37,38
 193 592 193 592 194 595 c 0,0,1
433 627 m 0,39,40
 451 645 451 645 469 645 c 0,41,42
 502 645 502 645 534 622 c 0,43,44
 535 621 535 621 609 534 c 0,45,46
 632 507 632 507 646 486.5 c 128,-1,47
 660 466 660 466 662.5 460 c 128,-1,48
 665 454 665 454 663 448 c 0,49,50
 661 440 661 440 649 418 c 0,51,52
 641 404 641 404 614 377 c 0,53,54
 587 351 587 351 534 306 c 0,55,56
 442 231 442 231 398 210 c 0,57,58
 379 200 379 200 364 200 c 0,59,60
 350 200 350 200 339 205 c 0,61,62
 317 218 317 218 324 246 c 0,63,64
 328 262 328 262 337 272 c 0,65,66
 347 283 347 283 375 303 c 0,67,68
 406 325 406 325 465 370 c 0,69,70
 525 415 525 415 533 421 c 0,71,72
 541 428 541 428 544 430 c 1,73,74
 494 489 494 489 481 501 c 0,75,76
 444 540 444 540 431 556 c 0,77,78
 414 576 414 576 418 595 c 0,79,80
 419 598 419 598 419 600 c 0,81,82
 423 615 423 615 433 627 c 0,39,40
EndSplineSet
Validated: 33
EndChar

StartChar: multiply
Encoding: 215 215 247
Width: 487
VWidth: 1075
Flags: W
LayerCount: 2
Fore
SplineSet
205 186 m 1,0,1
 163 161 163 161 156 161 c 0,2,3
 137 161 137 161 128 173 c 128,-1,4
 119 185 119 185 123 204 c 0,5,6
 124 208 124 208 129.5 216.5 c 128,-1,7
 135 225 135 225 150 243.5 c 128,-1,8
 165 262 165 262 191 292 c 0,9,-1
 262 367 l 1,10,11
 262 373 262 373 255 388.5 c 128,-1,12
 248 404 248 404 231 433 c 0,13,14
 199 492 199 492 196 518 c 0,15,16
 191 549 191 549 216 569 c 0,17,18
 241 590 241 590 259 576 c 0,19,20
 277 565 277 565 312 518 c 0,21,22
 341 478 341 478 352 466 c 1,23,24
 369 481 369 481 420 535 c 0,25,26
 448 566 448 566 468 584 c 0,27,28
 502 615 502 615 509 618 c 0,29,30
 536 628 536 628 549 623 c 0,31,32
 568 615 568 615 567 593 c 0,33,34
 568 573 568 573 550 545 c 0,35,36
 534 522 534 522 471 457 c 0,37,38
 440 423 440 423 410 391 c 1,39,40
 430 360 430 360 449 327 c 0,41,42
 482 268 482 268 489.5 244 c 128,-1,43
 497 220 497 220 492 196 c 0,44,45
 487 176 487 176 474 163 c 0,46,47
 446 135 446 135 412 166 c 0,48,49
 390 184 390 184 364 230 c 0,50,51
 334 282 334 282 318 298 c 1,52,53
 310 293 310 293 286 264 c 0,54,55
 257 228 257 228 205 186 c 1,0,1
EndSplineSet
Validated: 33
EndChar

StartChar: plusminus
Encoding: 177 177 269
Width: 635
VWidth: 1075
Flags: W
LayerCount: 2
Fore
SplineSet
102 52 m 0,0,1
 96 64 96 64 97 76 c 0,2,3
 105 112 105 112 165 134 c 0,4,5
 205 148 205 148 324 148 c 0,6,7
 453 148 453 148 496 146 c 0,8,9
 538 142 538 142 556 129 c 0,10,11
 581 110 581 110 576 77 c 0,12,13
 575 73 575 73 575 69 c 0,14,15
 563 29 563 29 541 22 c 0,16,17
 521 17 521 17 481 16 c 0,18,19
 471 16 471 16 459 16 c 0,20,21
 452 15 452 15 368 15 c 0,22,23
 285 15 285 15 171 30 c 0,24,25
 139 34 139 34 121 40 c 0,26,27
 106 44 106 44 102 52 c 0,0,1
446 290 m 2,28,29
 435 242 435 242 427 224 c 0,30,31
 419 205 419 205 405 193 c 0,32,33
 381 174 381 174 369.5 174 c 128,-1,34
 358 174 358 174 342 189 c 0,35,36
 329 200 329 200 330 220 c 0,37,38
 330 238 330 238 339 289 c 2,39,-1
 351 356 l 1,40,-1
 307 356 l 2,41,42
 238 357 238 357 206 373 c 0,43,44
 176 387 176 387 180 409 c 0,45,46
 181 415 181 415 186 421 c 0,47,48
 195 436 195 436 226 447 c 128,-1,49
 257 458 257 458 320 464 c 2,50,-1
 378 469 l 1,51,-1
 391 544 l 2,52,53
 395 573 395 573 401 598 c 0,54,55
 402 601 402 601 402 603 c 0,56,57
 407 625 407 625 415 643 c 0,58,59
 430 680 430 680 455 688 c 0,60,61
 460 690 460 690 467 691 c 0,62,63
 485 691 485 691 493.5 668.5 c 128,-1,64
 502 646 502 646 501 602.5 c 128,-1,65
 500 559 500 559 488 506 c 2,66,-1
 481 476 l 1,67,-1
 538 476 l 2,68,69
 613 476 613 476 637 454 c 0,70,71
 654 440 654 440 649 417 c 0,72,73
 645 401 645 401 634 385 c 0,74,75
 622 368 622 368 604 364 c 0,76,77
 590 360 590 360 534 357 c 2,78,79
 534 358 534 358 461 356 c 1,80,-1
 446 290 l 2,28,29
EndSplineSet
Validated: 33
EndChar

StartChar: divide
Encoding: 247 247 270
Width: 635
VWidth: 1075
Flags: W
LayerCount: 2
Fore
SplineSet
399 516 m 0,0,1
 384 546 384 546 391.5 578.5 c 128,-1,2
 399 611 399 611 428 634 c 0,3,4
 453 654 453 654 484 653 c 0,5,6
 522 653 522 653 533 623 c 0,7,8
 542 600 542 600 536 572 c 0,9,10
 529 540 529 540 502 514.5 c 128,-1,11
 475 489 475 489 443 489 c 0,12,13
 415 489 415 489 399 516 c 0,0,1
309 106 m 0,14,15
 295 136 295 136 302 169 c 0,16,17
 310 201 310 201 339 224 c 0,18,19
 364 244 364 244 395 244 c 0,20,21
 433 244 433 244 444 213 c 0,22,23
 453 190 453 190 446 163 c 0,24,25
 438 130 438 130 412 105 c 0,26,27
 385 79 385 79 353 79 c 0,28,29
 322 79 322 79 309 106 c 0,14,15
164 364 m 0,30,31
 172 400 172 400 231 422 c 0,32,33
 271 436 271 436 390 436 c 0,34,35
 537 436 537 436 562 434 c 0,36,37
 606 430 606 430 623 417 c 0,38,39
 651 395 651 395 642 357 c 0,40,41
 632 322 632 322 607 310 c 0,42,43
 595 303 595 303 434 303 c 0,44,45
 228 303 228 303 210 310 c 0,46,47
 157 324 157 324 164 364 c 0,30,31
EndSplineSet
Validated: 33
EndChar

StartChar: quoteleft
Encoding: 8216 8216 272
Width: 130
VWidth: 1075
Flags: W
LayerCount: 2
Fore
SplineSet
235.5 863.5 m 128,-1,1
 252 878 252 878 259 880 c 0,2,3
 263 881 263 881 266 881 c 0,4,5
 274 881 274 881 283 871 c 0,6,7
 297 858 297 858 293.5 816 c 128,-1,8
 290 774 290 774 273 689 c 0,9,10
 272 684 272 684 270 680 c 0,11,12
 255 617 255 617 240 596 c 0,13,14
 220 571 220 571 194 571 c 128,-1,15
 168 571 168 571 164 596 c 0,16,17
 160 615 160 615 185 727 c 0,18,19
 202 803 202 803 210.5 826 c 128,-1,0
 219 849 219 849 235.5 863.5 c 128,-1,1
EndSplineSet
Validated: 33
EndChar

StartChar: quotesinglbase
Encoding: 8218 8218 273
Width: 211
VWidth: 1075
Flags: W
LayerCount: 2
Fore
SplineSet
151 280 m 0,0,1
 192 280 192 280 209 238 c 128,-1,2
 226 196 226 196 209 123 c 0,3,4
 199 81 199 81 180.5 47 c 128,-1,5
 162 13 162 13 123 -25 c 0,6,7
 107 -40 107 -40 99 -45 c 128,-1,8
 91 -50 91 -50 85.5 -53 c 128,-1,9
 80 -56 80 -56 73 -56 c 2,10,-1
 66 -56 l 1,11,-1
 62 -52 l 1,12,-1
 61 -51 l 1,13,-1
 56 -48 l 1,14,-1
 54 -41 l 2,15,16
 51 -30 51 -30 54 -15 c 0,17,18
 60 10 60 10 85 49 c 0,19,20
 110 94 110 94 114 106 c 0,21,22
 115 109 115 109 114 111 c 0,23,24
 112 111 112 111 111 111 c 0,25,26
 85 111 85 111 68.5 142 c 128,-1,27
 52 173 52 173 59 202 c 0,28,29
 67 237 67 237 92.5 258.5 c 128,-1,30
 118 280 118 280 151 280 c 0,0,1
EndSplineSet
Validated: 33
EndChar

StartChar: quotereversed
Encoding: 8219 8219 274
Width: 211
VWidth: 1075
Flags: W
LayerCount: 2
Fore
SplineSet
310 859 m 0,0,1
 343 859 343 859 359 837 c 128,-1,2
 375 815 375 815 367 780 c 0,3,4
 360 750 360 750 329 719 c 0,5,6
 307 696 307 696 269 687 c 1,7,8
 261 675 261 675 269 624 c 0,9,10
 277 584 277 584 271 560 c 0,11,12
 267 541 267 541 256 529 c 0,13,14
 245 518 245 518 233.5 518 c 128,-1,15
 222 518 222 518 213.5 525.5 c 128,-1,16
 205 533 205 533 196 549 c 0,17,18
 175 588 175 588 172 623 c 128,-1,19
 169 658 169 658 179 700 c 0,20,21
 196 774 196 774 232 816.5 c 128,-1,22
 268 859 268 859 310 859 c 0,0,1
EndSplineSet
Validated: 33
EndChar

StartChar: quotedblbase
Encoding: 8222 8222 275
Width: 429
VWidth: 1075
Flags: W
LayerCount: 2
Fore
SplineSet
242 184 m 0,0,1
 239 170 239 170 234 157 c 0,2,3
 222 121 222 121 191.5 77.5 c 128,-1,4
 161 34 161 34 136 16 c 0,5,6
 119 3 119 3 106 4 c 0,7,8
 105 4 105 4 104 4 c 0,9,10
 86 4 86 4 80 29 c 0,11,12
 79 32 79 32 81 40 c 0,13,14
 85 58 85 58 109.5 99.5 c 128,-1,15
 134 141 134 141 137 153 c 2,16,-1
 137 154 l 2,17,18
 137 155 137 155 130 155 c 0,19,20
 98 155 98 155 91 199 c 0,21,22
 87 221 87 221 92 242 c 0,23,24
 96 260 96 260 107 276 c 0,25,26
 132 319 132 319 168 320 c 0,27,28
 171 320 171 320 172 320 c 0,29,30
 184 320 184 320 194 316 c 0,31,32
 233 306 233 306 243 259 c 0,33,34
 251 224 251 224 242 184 c 0,0,1
390 303 m 0,35,36
 429 304 429 304 445 266 c 0,37,38
 462 226 462 226 446 158 c 0,39,40
 437 119 437 119 419 86.5 c 128,-1,41
 401 54 401 54 364 19 c 0,42,43
 335 -9 335 -9 317 -9 c 0,44,45
 305 -9 305 -9 299 2 c 0,46,47
 294 14 294 14 298 29 c 0,48,49
 303 52 303 52 327 89 c 0,50,51
 350 125 350 125 354 141 c 0,52,53
 354 143 354 143 354 145 c 0,54,55
 353 145 353 145 352 145 c 0,56,57
 328 145 328 145 311.5 173.5 c 128,-1,58
 295 202 295 202 302 230 c 0,59,60
 310 263 310 263 334 283 c 128,-1,61
 358 303 358 303 390 303 c 0,35,36
EndSplineSet
Validated: 33
EndChar

StartChar: twodotenleader
Encoding: 8229 8229 279
Width: 508
VWidth: 1075
Flags: W
LayerCount: 2
Fore
SplineSet
313 22 m 1,0,1
 294 61 294 61 304 103 c 128,-1,2
 314 145 314 145 352 174 c 0,3,4
 385 199 385 199 422 200 c 0,5,6
 470 200 470 200 484 160 c 0,7,8
 495 128 495 128 487 94 c 0,9,10
 477 52 477 52 444 19 c 128,-1,11
 411 -14 411 -14 370 -14 c 0,12,13
 335 -14 335 -14 314 21 c 2,14,-1
 313 22 l 1,0,1
62 22 m 1,15,16
 43 61 43 61 53 103 c 128,-1,17
 63 145 63 145 101 174 c 0,18,19
 134 199 134 199 171 200 c 0,20,21
 219 200 219 200 233 160 c 0,22,23
 244 128 244 128 236 94 c 0,24,25
 226 52 226 52 192.5 19 c 128,-1,26
 159 -14 159 -14 118 -14 c 0,27,28
 83 -14 83 -14 63 21 c 2,29,-1
 62 22 l 1,15,16
EndSplineSet
Validated: 33
EndChar

StartChar: ellipsis
Encoding: 8230 8230 280
Width: 784
VWidth: 1075
Flags: W
LayerCount: 2
Fore
SplineSet
556 22 m 1,0,1
 537 61 537 61 547 103 c 128,-1,2
 557 145 557 145 594 174 c 0,3,4
 627 199 627 199 665 200 c 0,5,6
 713 200 713 200 727 160 c 0,7,8
 738 128 738 128 730 94 c 0,9,10
 720 52 720 52 686.5 19 c 128,-1,11
 653 -14 653 -14 612 -14 c 0,12,13
 577 -14 577 -14 557 21 c 2,14,-1
 556 22 l 1,0,1
313 22 m 1,15,16
 294 61 294 61 304 103.5 c 128,-1,17
 314 146 314 146 352 175 c 0,18,19
 385 201 385 201 422 201 c 0,20,21
 471 201 471 201 484 161 c 0,22,23
 495 130 495 130 488 95 c 0,24,25
 478 53 478 53 444 21 c 0,26,27
 410 -12 410 -12 370 -13 c 0,28,29
 335 -13 335 -13 314 22 c 2,30,-1
 313 22 l 1,15,16
62 22 m 1,31,32
 43 61 43 61 53 103 c 128,-1,33
 63 145 63 145 101 174 c 0,34,35
 134 199 134 199 171 200 c 0,36,37
 219 200 219 200 233 160 c 0,38,39
 244 128 244 128 236 94 c 0,40,41
 226 52 226 52 192.5 19 c 128,-1,42
 159 -14 159 -14 118 -14 c 0,43,44
 83 -14 83 -14 63 21 c 2,45,-1
 62 22 l 1,31,32
EndSplineSet
Validated: 33
EndChar

StartChar: guilsinglleft
Encoding: 8249 8249 282
Width: 452
VWidth: 1075
Flags: W
LayerCount: 2
Fore
SplineSet
443 256 m 2,0,1
 439 240 439 240 426 229 c 0,2,3
 405 210 405 210 373 210 c 128,-1,4
 341 210 341 210 304 232 c 0,5,6
 271 250 271 250 206 311 c 0,7,8
 185 329 185 329 167 347 c 0,9,10
 150 369 150 369 148 377 c 0,11,12
 144 386 144 386 146 396 c 0,13,14
 148 407 148 407 161 430 c 0,15,16
 171 447 171 447 198 475 c 0,17,18
 225 499 225 499 277 539 c 0,19,20
 390 618 390 618 437 638 c 0,21,22
 459 648 459 648 477 648 c 0,23,24
 495 648 495 648 506 643 c 0,25,26
 536 631 536 631 530 602 c 0,27,28
 524 577 524 577 511 562 c 0,29,30
 498 551 498 551 472 535 c 0,31,32
 442 514 442 514 387 470 c 0,33,34
 320 427 320 427 305 417 c 1,35,36
 409 341 409 341 429 318 c 0,37,38
 449 291 449 291 444 263 c 1,39,-1
 443 256 l 2,0,1
EndSplineSet
Validated: 33
EndChar

StartChar: guilsinglright
Encoding: 8250 8250 283
Width: 399
VWidth: 1075
Flags: W
LayerCount: 2
Fore
SplineSet
305 416 m 1,0,1
 298 426 298 426 267 466.5 c 128,-1,2
 236 507 236 507 219 528 c 0,3,4
 201 544 201 544 194 554 c 0,5,6
 189 570 189 570 194 591 c 0,7,8
 197 604 197 604 208 615 c 0,9,10
 218 626 218 626 233 631 c 0,11,12
 248 637 248 637 264.5 636.5 c 128,-1,13
 281 636 281 636 298 626 c 0,14,15
 327 607 327 607 379 533 c 2,16,17
 377 524 377 524 380 532 c 1,18,19
 379 527 379 527 380 532 c 2,20,21
 409 494 409 494 423 471 c 0,22,23
 436 445 436 445 437 430.5 c 128,-1,24
 438 416 438 416 437 388 c 1,25,-1
 433 384 l 1,26,-1
 424 375 l 2,27,28
 410 362 410 362 345 315 c 2,29,30
 346 320 346 320 345 315 c 2,31,32
 273 260 273 260 239 241 c 1,33,34
 187 219 187 219 174 219 c 2,35,-1
 172 219 l 2,36,37
 140 219 140 219 129 238 c 0,38,39
 123 250 123 250 126 264 c 2,40,-1
 126 265 l 1,41,-1
 126 266 l 2,42,43
 131 287 131 287 145 304 c 0,44,45
 153 313 153 313 170 328 c 0,46,47
 200 349 200 349 305 416 c 1,0,1
EndSplineSet
Validated: 37
EndChar

StartChar: exclamdbl
Encoding: 8252 8252 284
Width: 638
VWidth: 1075
Flags: W
LayerCount: 2
Fore
SplineSet
727 843 m 0,0,1
 732 835 732 835 731.5 819.5 c 128,-1,2
 731 804 731 804 727 785 c 128,-1,3
 723 766 723 766 719 752 c 0,4,5
 700 686 700 686 617 426 c 0,6,7
 583 320 583 320 560.5 266 c 128,-1,8
 538 212 538 212 523 194 c 0,9,10
 492 161 492 161 475 154 c 0,11,12
 470 152 470 152 466 152 c 0,13,14
 451 152 451 152 437 169 c 0,15,16
 422 184 422 184 424 212 c 0,17,18
 425 228 425 228 432 256 c 0,19,20
 464 395 464 395 536 618 c 0,21,22
 599 811 599 811 617 835 c 0,23,24
 638 867 638 867 675 869 c 0,25,26
 677 869 677 869 679 869 c 0,27,28
 713 869 713 869 727 843 c 0,0,1
508 -8 m 0,29,30
 499 -48 499 -48 460 -80 c 1,31,-1
 459 -81 l 1,32,33
 422 -109 422 -109 396 -109 c 0,34,35
 395 -109 395 -109 394 -109 c 0,36,37
 365 -109 365 -109 344 -74 c 0,38,39
 322 -37 322 -37 331 -1 c 0,40,41
 342 46 342 46 396 75 c 0,42,43
 425 90 425 90 448 90 c 0,44,45
 479 90 479 90 498 58 c 1,46,-1
 499 58 l 1,47,48
 516 26 516 26 508 -8 c 0,29,30
426 843 m 0,49,50
 431 835 431 835 430.5 819.5 c 128,-1,51
 430 804 430 804 425.5 785 c 128,-1,52
 421 766 421 766 417 752 c 0,53,54
 398 686 398 686 315 426 c 0,55,56
 281 320 281 320 259 266 c 128,-1,57
 237 212 237 212 221 194 c 0,58,59
 190 161 190 161 174 154 c 0,60,61
 169 152 169 152 165 152 c 0,62,63
 150 152 150 152 136 169 c 0,64,65
 121 184 121 184 123 212 c 0,66,67
 124 228 124 228 130 256 c 0,68,69
 162 395 162 395 235 618 c 0,70,71
 298 811 298 811 315 835 c 0,72,73
 336 867 336 867 374 869 c 0,74,75
 376 869 376 869 378 869 c 0,76,77
 412 869 412 869 426 843 c 0,49,50
207 -8 m 0,78,79
 198 -48 198 -48 158 -80 c 1,80,-1
 158 -81 l 1,81,82
 121 -109 121 -109 95 -109 c 0,83,84
 94 -109 94 -109 93 -109 c 0,85,86
 64 -109 64 -109 43 -74 c 0,87,88
 21 -37 21 -37 29 -1 c 0,89,90
 40 46 40 46 94 75 c 0,91,92
 123 90 123 90 147 90 c 0,93,94
 178 90 178 90 197 58 c 1,95,-1
 198 58 l 1,96,97
 215 26 215 26 207 -8 c 0,78,79
EndSplineSet
Validated: 33
EndChar

StartChar: trademark
Encoding: 8482 8482 285
Width: 869
VWidth: 1075
Flags: W
LayerCount: 2
Fore
SplineSet
614 530 m 0,0,1
 601 507 601 507 573 507 c 0,2,3
 557 507 557 507 550 515 c 0,4,5
 544 522 544 522 545 533 c 0,6,7
 547 561 547 561 579 699 c 0,8,9
 603 804 603 804 614 819 c 0,10,11
 624 836 624 836 646 843 c 0,12,13
 656 847 656 847 665 846 c 0,14,15
 675 846 675 846 686 842 c 1,16,17
 694 838 694 838 704 828 c 0,18,19
 741 787 741 787 778 720 c 1,20,21
 822 777 822 777 846 804 c 0,22,23
 877 838 877 838 891 850 c 0,24,25
 912 869 912 869 932 869 c 0,26,27
 945 869 945 869 955 864 c 0,28,29
 971 856 971 856 974 838 c 0,30,31
 979 813 979 813 967 692 c 0,32,33
 958 605 958 605 947 559 c 0,34,35
 939 526 939 526 920 516 c 0,36,37
 912 512 912 512 896 510 c 1,38,39
 889 510 889 510 884 512 c 1,40,41
 867 518 867 518 862 542 c 0,42,43
 855 571 855 571 867 689 c 1,44,45
 843 657 843 657 810 625 c 0,46,47
 787 602 787 602 756 601 c 0,48,49
 734 601 734 601 720 615 c 0,50,51
 701 631 701 631 663 698 c 1,52,53
 633 590 633 590 625 562.5 c 128,-1,54
 617 535 617 535 614 530 c 0,0,1
536 862 m 1,55,56
 550 860 550 860 560.5 848.5 c 128,-1,57
 571 837 571 837 564 811.5 c 128,-1,58
 557 786 557 786 545 780 c 0,59,60
 539 777 539 777 510 766 c 0,61,62
 490 763 490 763 443 762 c 1,63,64
 417 613 417 613 408 573 c 0,65,66
 397 528 397 528 388 522 c 0,67,68
 373 507 373 507 349 503 c 0,69,70
 318 500 318 500 315 527 c 0,71,72
 313 541 313 541 326 620 c 0,73,74
 346 735 346 735 350 753 c 1,75,76
 325 751 325 751 317 751 c 0,77,78
 300 750 300 750 286 750 c 0,79,80
 256 750 256 750 246 756 c 0,81,82
 224 771 224 771 226 797 c 1,83,84
 232 822 232 822 262 837 c 0,85,86
 280 845 280 845 354 853 c 0,87,88
 443 862 443 862 536 862 c 1,55,56
EndSplineSet
Validated: 33
EndChar

StartChar: Pi
Encoding: 928 928 303
Width: 647
VWidth: 911
Flags: W
LayerCount: 2
Fore
SplineSet
573 378 m 0,0,1
 593 468 593 468 612 557 c 5,2,3
 519 568 519 568 268 538 c 5,4,5
 261 510 261 510 242 405 c 0,6,7
 225 314 225 314 198 177 c 0,8,9
 192 149 192 149 186 121 c 128,-1,10
 180 93 180 93 172 74 c 0,11,12
 157 37 157 37 127 22 c 0,13,14
 116 16 116 16 107 16 c 0,15,16
 92 16 92 16 82.5 31.5 c 128,-1,17
 73 47 73 47 74 73 c 0,18,19
 75 109 75 109 118 335 c 0,20,21
 148 494 148 494 149 505 c 0,22,23
 150 515 150 515 162 576 c 0,24,25
 164 585 164 585 166 590 c 0,26,27
 173 616 173 616 179 628 c 0,28,29
 185 640 185 640 191 647 c 0,30,31
 205 664 205 664 228 670 c 0,32,33
 253 678 253 678 275 679 c 0,34,35
 299 679 299 679 419 689 c 0,36,37
 540 700 540 700 613 700 c 0,38,39
 650 700 650 700 675 698 c 0,40,41
 751 688 751 688 759 644 c 0,42,43
 761 635 761 635 745 562.5 c 128,-1,44
 729 490 729 490 691 321 c 0,45,46
 658 177 658 177 621 11 c 1,47,48
 622 31 622 31 613 4 c 1,49,50
 612 9 612 9 609 9 c 2,51,-1
 596 -10 l 1,52,53
 572 -30 572 -30 556 -30 c 0,54,55
 540 -30 540 -30 528 -17 c 128,-1,56
 516 -4 516 -4 511 12 c 0,57,58
 504 38 504 38 520 116 c 0,59,60
 566 348 566 348 573 378 c 0,0,1
EndSplineSet
Validated: 33
EndChar

StartChar: emdash
Encoding: 8212 8212 304
Width: 950
VWidth: 1075
Flags: W
LayerCount: 2
Fore
SplineSet
137 403 m 4,0,1
 129 418 129 418 133 433 c 4,2,3
 143 477 143 477 212 504 c 4,4,5
 248 518 248 518 724 519 c 0,6,7
 877 519 877 519 926 514 c 0,8,9
 976 510 976 510 996 494 c 0,10,11
 1013 481 1013 481 1019 431 c 0,12,13
 1020 425 1020 425 1018 421 c 0,14,15
 1000 380 1000 380 967 374 c 0,16,17
 915 365 915 365 870 368 c 0,18,19
 850 369 850 369 763 367 c 0,20,21
 520 362 520 362 218 376 c 4,22,23
 188 377 188 377 160 387 c 4,24,25
 142 393 142 393 137 403 c 4,0,1
EndSplineSet
Validated: 33
EndChar

StartChar: uni2015
Encoding: 8213 8213 305
Width: 950
VWidth: 1075
Flags: W
LayerCount: 2
Fore
SplineSet
137 403 m 4,0,1
 129 418 129 418 133 433 c 4,2,3
 143 477 143 477 212 504 c 4,4,5
 248 518 248 518 724 519 c 0,6,7
 877 519 877 519 926 514 c 0,8,9
 976 510 976 510 996 494 c 0,10,11
 1013 481 1013 481 1019 431 c 0,12,13
 1020 425 1020 425 1018 421 c 0,14,15
 1000 380 1000 380 967 374 c 0,16,17
 915 365 915 365 870 368 c 0,18,19
 850 369 850 369 763 367 c 0,20,21
 520 362 520 362 218 376 c 4,22,23
 188 377 188 377 160 387 c 4,24,25
 142 393 142 393 137 403 c 4,0,1
EndSplineSet
Validated: 33
EndChar

StartChar: endash
Encoding: 8211 8211 306
Width: 734
VWidth: 1075
Flags: W
LayerCount: 2
Fore
SplineSet
133 403 m 4,0,1
 126 418 126 418 129 434 c 4,2,3
 138 478 138 478 207 508 c 4,4,5
 244 524 244 524 530 524 c 0,6,7
 676 524 676 524 724 519 c 0,8,9
 771 515 771 515 791 498 c 0,10,11
 810 482 810 482 812 433 c 0,12,13
 812 428 812 428 811 422 c 0,14,15
 799 382 799 382 761 374 c 0,16,17
 758 373 758 373 668 367 c 0,18,19
 661 366 661 366 565 366 c 0,20,21
 265 366 265 366 210 374 c 4,22,23
 174 379 174 379 155 386 c 4,24,25
 138 392 138 392 133 403 c 4,0,1
EndSplineSet
Validated: 1
EndChar

StartChar: currency
Encoding: 164 164 310
Width: 504
VWidth: 967
Flags: W
LayerCount: 2
Fore
SplineSet
186 253 m 0,0,1
 199 198 199 198 223 184 c 1,2,3
 230 202 230 202 241 244 c 0,4,5
 255 304 255 304 250 310 c 0,6,7
 247 314 247 314 237 316 c 0,8,9
 201 325 201 325 174 358 c 0,10,11
 150 388 150 388 141 428 c 0,12,13
 135 457 135 457 139 476 c 0,14,15
 144 499 144 499 155 522 c 0,16,17
 181 578 181 578 211 596 c 0,18,19
 252 621 252 621 320 637 c 1,20,21
 323 649 323 649 331 673 c 1,22,23
 292 673 292 673 260 658 c 0,24,25
 228 644 228 644 211 644 c 0,26,27
 195 644 195 644 192 651 c 0,28,29
 188 659 188 659 192 671 c 0,30,31
 198 698 198 698 241 723 c 0,32,33
 272 740 272 740 343 747 c 1,34,35
 350 759 350 759 354 773 c 0,36,37
 363 814 363 814 353 832 c 0,38,39
 340 854 340 854 342 865 c 0,40,41
 344 871 344 871 350 877 c 0,42,43
 382 909 382 909 432 909 c 0,44,45
 467 909 467 909 487 890 c 0,46,47
 504 875 504 875 500 860 c 0,48,49
 498 851 498 851 484 834 c 0,50,51
 469 817 469 817 465 798 c 0,52,53
 465 798 465 798 458 757 c 1,54,55
 521 758 521 758 555 731 c 0,56,57
 584 708 584 708 579 680 c 0,58,59
 569 630 569 630 533 647 c 0,60,61
 489 669 489 669 438 672 c 1,62,63
 438 672 438 672 429 638 c 1,64,65
 448 636 448 636 475 627 c 0,66,67
 513 615 513 615 528 584 c 0,68,69
 548 543 548 543 538 500 c 0,70,71
 530 466 530 466 520 451 c 0,72,73
 511 437 511 437 501 437 c 0,74,75
 485 437 485 437 476 468 c 0,76,77
 469 493 469 493 451 516 c 0,78,79
 433 538 433 538 420 541 c 1,80,81
 414 535 414 535 402 482 c 0,82,-1
 389 425 l 1,83,-1
 415 425 l 0,84,85
 458 425 458 425 487 404 c 0,86,87
 516 384 516 384 528 349 c 0,88,89
 545 298 545 298 535 256 c 0,90,91
 527 221 527 221 503 181 c 0,92,93
 479 140 479 140 441 114 c 0,94,95
 394 82 394 82 348 74 c 0,96,97
 333 71 333 71 327 64 c 1,98,99
 323 45 323 45 289 -4 c 0,100,101
 246 -65 246 -65 240 -65 c 0,102,103
 213 -65 213 -65 211 33 c 0,104,105
 211 59 211 59 205 76 c 0,106,107
 202 85 202 85 198 87 c 0,108,109
 167 97 167 97 144 128 c 0,110,111
 122 156 122 156 116 191 c 0,112,113
 110 222 110 222 119 263 c 0,114,115
 123 278 123 278 127 288 c 0,116,117
 134 307 134 307 144 317 c 0,118,119
 150 323 150 323 163 327 c 0,120,121
 164 327 164 327 167 326 c 0,122,123
 175 323 175 323 178 303 c 0,124,125
 183 271 183 271 186 253 c 0,0,1
248 453 m 0,126,127
 266 428 266 428 276 424 c 1,128,129
 282 433 282 433 289 459 c 0,130,131
 291 469 291 469 293 481 c 0,132,133
 302 530 302 530 297 542 c 0,134,135
 294 547 294 547 282 540 c 0,136,137
 274 536 274 536 260 523 c 0,138,139
 244 509 244 509 238 500.5 c 128,-1,140
 232 492 232 492 231 489 c 128,-1,141
 230 486 230 486 234 478 c 0,142,143
 237 469 237 469 248 453 c 0,126,127
430 275 m 0,144,145
 416 301 416 301 372 308 c 1,146,-1
 357 188 l 1,147,148
 365 188 365 188 384 196 c 0,149,150
 393 200 393 200 406 212 c 0,151,152
 424 227 424 227 427 232 c 0,153,154
 445 251 445 251 430 275 c 0,144,145
EndSplineSet
Validated: 33
EndChar

StartChar: dagger
Encoding: 8224 8224 311
Width: 443
VWidth: 1075
Flags: W
LayerCount: 2
Fore
SplineSet
169 145 m 0,0,1
 180 205 180 205 196 274 c 0,2,3
 221 384 221 384 260 517 c 0,4,5
 265 535 265 535 268 548 c 0,6,7
 272 565 272 565 272 573 c 1,8,9
 261 570 261 570 234 554 c 0,10,11
 209 537 209 537 187 536 c 0,12,13
 186 536 186 536 184 536 c 0,14,15
 164 537 164 537 158 551 c 0,16,17
 154 560 154 560 157 571 c 0,18,19
 159 581 159 581 167 592 c 0,20,21
 178 608 178 608 202 629 c 0,22,23
 225 650 225 650 245 663 c 0,24,25
 264 676 264 676 279.5 681.5 c 128,-1,26
 295 687 295 687 300 689 c 0,27,28
 304 693 304 693 305 694 c 0,29,30
 309 696 309 696 316 719 c 0,31,32
 320 731 320 731 322 742 c 0,33,34
 327 764 327 764 328 781 c 0,35,36
 329 796 329 796 331 806 c 0,37,38
 335 824 335 824 344 831 c 0,39,40
 347 834 347 834 350 835 c 0,41,42
 361 845 361 845 393 847 c 0,43,44
 396 847 396 847 399 847 c 0,45,46
 412 847 412 847 421 844 c 0,47,48
 433 840 433 840 437 831 c 0,49,50
 440 824 440 824 438 816 c 0,51,52
 435 803 435 803 418 789 c 0,53,54
 415 786 415 786 410 771 c 0,55,56
 408 765 408 765 407 760 c 0,57,58
 405 749 405 749 404 739 c 0,59,60
 404 720 404 720 402 708 c 0,61,62
 401 704 401 704 400 702 c 0,63,64
 409 696 409 696 413 701 c 1,65,66
 443 699 443 699 480 678 c 0,67,68
 518 657 518 657 527 637 c 0,69,70
 541 606 541 606 535 582 c 0,71,72
 530 561 530 561 514 551 c 0,73,74
 507 546 507 546 498 544 c 0,75,76
 494 543 494 543 488 544 c 0,77,78
 470 544 470 544 447 556 c 0,79,80
 446 557 446 557 445 558 c 0,81,82
 444 559 444 559 444 561 c 0,83,84
 415 580 415 580 409 580 c 2,85,-1
 408 580 l 2,86,87
 404 579 404 579 404 574 c 0,88,89
 399 538 399 538 395 519 c 0,90,91
 391 503 391 503 388 500 c 0,92,93
 388 500 388 500 388 500 c 1,94,-1
 387 494 l 2,95,96
 378 457 378 457 303 173 c 0,97,98
 303 172 303 172 284 122 c 0,99,100
 267 73 267 73 258 55 c 0,101,102
 239 18 239 18 215 -17 c 0,103,104
 204 -31 204 -31 196 -38 c 0,105,106
 187 -44 187 -44 178 -41 c 0,107,108
 170 -38 170 -38 167 -30 c 0,109,110
 160 -15 160 -15 161 23 c 0,111,112
 164 119 164 119 169 145 c 0,0,1
EndSplineSet
Validated: 37
EndChar

StartChar: uni300C
Encoding: 12300 12300 314
Width: 246
VWidth: 1075
Flags: W
LayerCount: 2
Fore
SplineSet
132 317 m 4,0,1
 112 317 112 317 110 346 c 4,2,3
 104 412 104 412 165 643 c 4,4,5
 205 796 205 796 205.5 797.5 c 132,-1,6
 206 799 206 799 230 882 c 4,7,8
 243 928 243 928 296 920 c 5,9,10
 362 917 362 917 428 915 c 4,11,12
 505 913 505 913 494 870 c 4,13,14
 482 819 482 819 380 822 c 4,15,16
 310 824 310 824 291 826 c 5,17,18
 260 705 260 705 234 589 c 4,19,20
 189 389 189 389 162 345 c 4,21,22
 145 317 145 317 132 317 c 4,0,1
EndSplineSet
Validated: 33
EndChar

StartChar: uni300D
Encoding: 12301 12301 315
Width: 231
VWidth: 1075
Flags: W
LayerCount: 2
Fore
SplineSet
264 388 m 0,0,1
 284 388 284 388 286 359 c 0,2,3
 291 289 291 289 232 62 c 0,4,5
 195 -78 195 -78 190 -97 c 0,6,7
 166 -199 166 -199 157 -208 c 0,8,9
 147 -218 147 -218 102 -215 c 1,10,11
 36 -213 36 -213 -31 -211 c 0,12,13
 -115 -208 -115 -208 -105 -165 c 0,14,15
 -93 -114 -93 -114 16 -117 c 0,16,17
 86 -119 86 -119 105 -122 c 1,18,19
 108 -122 108 -122 162 116 c 0,20,21
 207 316 207 316 234 360 c 0,22,23
 251 388 251 388 264 388 c 0,0,1
EndSplineSet
Validated: 33
EndChar

StartChar: uF0000
Encoding: 983040 983040 317
Width: 1457
VWidth: 1075
Flags: W
LayerCount: 2
Fore
SplineSet
115 -34 m 4,0,1
 103 -29 103 -29 99 -26 c 132,-1,2
 95 -23 95 -23 91 -23 c 4,3,4
 81 -25 81 -25 70 -9 c 132,-1,5
 59 7 59 7 65 14 c 4,6,7
 66 15 66 15 67 38 c 4,8,9
 67 72 67 72 86 94 c 132,-1,10
 105 116 105 116 137 119 c 4,11,12
 151 120 151 120 157 126 c 132,-1,13
 163 132 163 132 171 131.5 c 132,-1,14
 179 131 179 131 183 124 c 4,15,16
 186 119 186 119 206 134 c 4,17,18
 216 141 216 141 246 163 c 4,19,20
 294 198 294 198 300 204 c 132,-1,21
 306 210 306 210 303 214 c 4,22,23
 298 221 298 221 301 231.5 c 132,-1,24
 304 242 304 242 312 242 c 4,25,26
 315 242 315 242 311 250 c 4,27,28
 309 254 309 254 300 273 c 4,29,30
 288 296 288 296 286.5 305.5 c 132,-1,31
 285 315 285 315 289 332 c 4,32,33
 292 345 292 345 293 360 c 4,34,35
 293 387 293 387 305 398 c 4,36,37
 323 414 323 414 343.5 396.5 c 132,-1,38
 364 379 364 379 364 348 c 4,39,40
 364 313 364 313 377 302 c 4,41,42
 381 299 381 299 384 302 c 4,43,44
 389 306 389 306 436 346 c 4,45,46
 561 451 561 451 626.5 516 c 132,-1,47
 692 581 692 581 792 700 c 4,48,49
 827 742 827 742 833 746 c 6,50,-1
 839 751 l 5,51,-1
 861 740 l 6,52,53
 903 718 903 718 934.5 716.5 c 132,-1,54
 966 715 966 715 1038 732 c 4,55,56
 1076 741 1076 741 1081.5 734.5 c 132,-1,57
 1087 728 1087 728 1087 680 c 4,58,59
 1087 572 1087 572 1019 478.5 c 132,-1,60
 951 385 951 385 839 338 c 4,61,62
 808 325 808 325 669 264 c 4,63,64
 625 244 625 244 547 210.5 c 132,-1,65
 469 177 469 177 465 175 c 4,66,67
 463 174 463 174 467 167 c 132,-1,68
 471 160 471 160 478 153.5 c 132,-1,69
 485 147 485 147 489 146 c 4,70,71
 512 141 512 141 527.5 125 c 132,-1,72
 543 109 543 109 545 90 c 4,73,74
 547 67 547 67 535.5 62 c 132,-1,75
 524 57 524 57 494 68 c 4,76,77
 478 74 478 74 461.5 75 c 132,-1,78
 445 76 445 76 438 82 c 132,-1,79
 431 88 431 88 427 89.5 c 132,-1,80
 423 91 423 91 407 109 c 6,81,-1
 392 127 l 5,82,-1
 386 123 l 6,83,84
 372 112 372 112 360 128 c 4,85,86
 356 132 356 132 292.5 90 c 132,-1,87
 229 48 229 48 232 43 c 4,88,89
 238 31 238 31 227 21 c 4,90,91
 220 14 220 14 216 4 c 4,92,93
 204 -22 204 -22 173 -33.5 c 132,-1,94
 142 -45 142 -45 115 -34 c 4,0,1
565 551 m 132,-1,96
 564 553 564 553 549 565.5 c 132,-1,97
 534 578 534 578 533 580 c 132,-1,98
 532 582 532 582 529 582 c 132,-1,99
 526 582 526 582 526 583.5 c 132,-1,100
 526 585 526 585 516 592 c 4,101,102
 421 658 421 658 320 674 c 4,103,104
 283 680 283 680 282 682 c 5,105,-1
 290 686 l 6,106,107
 295 687 295 687 310 688 c 4,108,109
 429 703 429 703 548 658 c 4,110,111
 574 648 574 648 602 633 c 132,-1,112
 630 618 630 618 630 615 c 132,-1,113
 630 612 630 612 614 595 c 132,-1,114
 598 578 598 578 582 563.5 c 132,-1,95
 566 549 566 549 565 551 c 132,-1,96
917 785 m 4,115,116
 903 790 903 790 884 801 c 4,117,118
 841 823 841 823 806 805 c 4,119,120
 796 800 796 800 792.5 801 c 132,-1,121
 789 802 789 802 772 815 c 4,122,123
 701 868 701 868 615 902 c 132,-1,124
 529 936 529 936 447 944 c 4,125,126
 435 945 435 945 433 946 c 5,127,-1
 443 949 l 5,128,129
 576 974 576 974 723.5 936.5 c 132,-1,130
 871 899 871 899 984 810 c 4,131,132
 1003 795 1003 795 1002.5 792 c 132,-1,133
 1002 789 1002 789 984 786 c 4,134,135
 937 778 937 778 917 785 c 4,115,116
EndSplineSet
Validated: 33
EndChar

StartChar: uF0001
Encoding: 983041 983041 318
Width: 1262
Flags: W
LayerCount: 2
Fore
SplineSet
416 -28 m 0,0,1
 274 82 274 82 209 139 c 128,-1,2
 144 196 144 196 114.5 236 c 128,-1,3
 85 276 85 276 72 323 c 0,4,5
 68 338 68 338 66 540.5 c 128,-1,6
 64 743 64 743 67 795 c 2,7,-1
 69 823 l 1,8,-1
 98 822 l 2,9,10
 140 821 140 821 201 828 c 2,11,-1
 215 830 l 1,12,-1
 228 804 l 2,13,14
 235 790 235 790 244 777 c 128,-1,15
 253 764 253 764 259 756 c 128,-1,16
 265 748 265 748 267 749 c 0,17,18
 270 752 270 752 279 823 c 2,19,-1
 282 844 l 1,20,-1
 312 855 l 2,21,22
 408 889 408 889 452 943 c 2,23,-1
 465 960 l 1,24,-1
 478 943 l 2,25,26
 521 888 521 888 614 855 c 128,-1,27
 707 822 707 822 821 822 c 2,28,-1
 863 822 l 1,29,-1
 865 794 l 2,30,31
 867 757 867 757 866.5 558 c 128,-1,32
 866 359 866 359 863 342 c 0,33,34
 859 309 859 309 840.5 273 c 128,-1,35
 822 237 822 237 793 206 c 2,36,-1
 778 191 l 1,37,-1
 747 201 l 2,38,39
 709 213 709 213 706.5 210.5 c 128,-1,40
 704 208 704 208 716 173 c 0,41,42
 725 147 725 147 725 144 c 0,43,44
 725 142 725 142 700 121 c 128,-1,45
 675 100 675 100 668 96 c 0,46,47
 665 94 665 94 660 96.5 c 128,-1,48
 655 99 655 99 638 111 c 0,49,50
 613 129 613 129 604 135 c 2,51,-1
 595 140 l 1,52,-1
 595 131 l 2,53,54
 595 105 595 105 606 60 c 2,55,-1
 609 47 l 1,56,-1
 573 19 l 2,57,58
 468 -64 468 -64 464 -64 c 0,59,60
 462 -64 462 -64 416 -28 c 0,0,1
EndSplineSet
Validated: 33
EndChar

StartChar: uF0002
Encoding: 983042 983042 319
Width: 1522
VWidth: 967
Flags: W
LayerCount: 2
Fore
SplineSet
168 -60 m 4,0,1
 156 -57 156 -57 150 -54 c 132,-1,2
 144 -51 144 -51 138 -51 c 4,3,4
 129 -51 129 -51 119 -41 c 132,-1,5
 109 -31 109 -31 109 -21 c 4,6,7
 109 -16 109 -16 103 -1 c 4,8,9
 86 40 86 40 109 79 c 4,10,11
 132 117 132 117 177 122 c 4,12,13
 190 124 190 124 192.5 128 c 132,-1,14
 195 132 195 132 207 131 c 6,15,-1
 219 131 l 5,16,-1
 266 180 l 6,17,18
 323 239 323 239 328 244 c 4,19,20
 342 258 342 258 339 261 c 132,-1,21
 336 264 336 264 337 271 c 4,22,23
 337 278 337 278 341 283 c 132,-1,24
 345 288 345 288 342 291 c 4,25,26
 339 293 339 293 321 319 c 132,-1,27
 303 345 303 345 299 353 c 4,28,29
 295 360 295 360 294 411 c 6,30,-1
 294 461 l 5,31,-1
 300 467 l 6,32,33
 318 485 318 485 343 466 c 4,34,35
 367 447 367 447 380 406 c 4,36,37
 387 382 387 382 399 370 c 6,38,-1
 411 357 l 5,39,-1
 605 637 l 6,40,41
 800 917 800 917 833 960 c 5,42,43
 963 957 963 957 992 957 c 4,44,45
 1012 957 1012 957 1110 952 c 5,46,47
 1111 864 1111 864 1115 834 c 4,48,49
 1116 824 1116 824 1118 673 c 5,50,51
 1031 608 1031 608 1022 605 c 4,52,53
 1020 604 1020 604 1006 625 c 4,54,55
 970 680 970 680 958 695 c 132,-1,56
 946 710 946 710 931 718 c 4,57,58
 908 729 908 729 882 723 c 4,59,60
 854 717 854 717 838 698 c 4,61,62
 831 690 831 690 726 539 c 132,-1,63
 621 388 621 388 616 377 c 4,64,65
 605 358 605 358 611 319 c 5,66,67
 603 311 603 311 595 303 c 4,68,69
 576 287 576 287 574 289 c 4,70,71
 573 289 573 289 545 269 c 6,72,-1
 517 249 l 5,73,-1
 529 238 l 6,74,75
 541 227 541 227 564 220 c 4,76,77
 605 207 605 207 624 183 c 132,-1,78
 643 159 643 159 625 141 c 6,79,-1
 618 134 l 5,80,-1
 568 135 l 6,81,82
 518 135 518 135 510 139 c 4,83,84
 503 143 503 143 477 161 c 132,-1,85
 451 179 451 179 448 182 c 4,86,87
 446 185 446 185 440 181 c 4,88,89
 436 178 436 178 429 177 c 4,90,91
 422 178 422 178 419 180 c 132,-1,92
 416 182 416 182 402 168 c 4,93,94
 393 160 393 160 338 107 c 6,95,-1
 288 59 l 5,96,-1
 289 48 l 6,97,98
 290 36 290 36 286 33 c 4,99,100
 281 30 281 30 280 18 c 4,101,102
 275 -24 275 -24 241 -48 c 4,103,104
 208 -71 208 -71 168 -60 c 4,0,1
793 31 m 5,105,-1
 787 38 l 5,106,-1
 787 181 l 5,107,-1
 787 325 l 5,108,-1
 734 325 l 5,109,-1
 680 325 l 5,110,-1
 674 331 l 6,111,112
 666 339 666 339 679 360 c 132,-1,113
 692 381 692 381 775 501 c 4,114,115
 777 503 777 503 778 505 c 4,116,117
 785 515 785 515 797 533 c 4,118,119
 878 651 878 651 893 661 c 4,120,121
 904 669 904 669 913 654 c 4,122,123
 913 654 913 654 1020 490 c 4,124,125
 1100 368 1100 368 1107 351 c 4,126,127
 1115 330 1115 330 1094 328 c 4,128,129
 1089 327 1089 327 1045 327 c 6,130,-1
 989 327 l 5,131,-1
 989 183 l 6,132,133
 989 69 989 69 988 49 c 132,-1,134
 987 29 987 29 979 26 c 4,135,136
 976 25 976 25 887 24 c 6,137,-1
 799 24 l 5,138,-1
 793 31 l 5,105,-1
EndSplineSet
Validated: 33
EndChar

StartChar: uF0003
Encoding: 983043 983043 320
Width: 1482
Flags: W
LayerCount: 2
Fore
SplineSet
104 -67 m 0,0,1
 103 -62 103 -62 131 -33 c 0,2,3
 158 -4 158 -4 213 86 c 0,4,5
 267 176 267 176 292 241 c 0,6,7
 343 369 343 369 288 570 c 0,8,9
 258 676 258 676 226 734 c 0,10,11
 191 798 191 798 139 864 c 128,-1,12
 87 930 87 930 87 932 c 128,-1,13
 87 934 87 934 176 940 c 0,14,15
 265 945 265 945 280 944 c 0,16,17
 294 943 294 943 301 935 c 0,18,19
 307 928 307 928 362 846 c 0,20,21
 450 715 450 715 552 421 c 1,22,23
 549 517 549 517 499 682 c 0,24,25
 474 764 474 764 378 898 c 0,26,27
 353 934 353 934 357 937 c 0,28,29
 359 939 359 939 416 934 c 0,30,31
 498 926 498 926 516 909 c 0,32,33
 528 899 528 899 555 845 c 0,34,35
 611 734 611 734 621 716 c 1,36,-1
 635 685 l 1,37,38
 635 747 635 747 634 750 c 0,39,40
 621 806 621 806 603 844 c 0,41,42
 577 897 577 897 576 901 c 1,43,44
 648 886 648 886 708 865 c 0,45,46
 746 852 746 852 794 790 c 0,47,48
 891 667 891 667 930 604 c 0,49,50
 1007 480 1007 480 1020 470 c 128,-1,51
 1033 460 1033 460 1052 463 c 0,52,53
 1072 467 1072 467 1073 465 c 128,-1,54
 1074 463 1074 463 1073 452 c 0,55,56
 1070 425 1070 425 1106 425 c 0,57,58
 1125 425 1125 425 1125 422 c 0,59,60
 1125 418 1125 418 1079 397 c 0,61,62
 1033 375 1033 375 830 278 c 0,63,64
 628 181 628 181 385 65 c 2,65,66
 119 -62 119 -62 113 -66 c 0,67,68
 104 -70 104 -70 104 -67 c 0,0,1
105 122 m 128,-1,70
 87 103 87 103 59 117 c 0,71,72
 32 129 32 129 16 163 c 0,73,74
 0 195 0 195 15 219 c 128,-1,75
 30 243 30 243 64 229 c 0,76,77
 98 214 98 214 110 178 c 0,78,69
 123 141 123 141 105 122 c 128,-1,70
196 276 m 0,79,80
 178 244 178 244 139 265 c 0,81,82
 102 283 102 283 84 348 c 0,83,84
 66 411 66 411 99 431 c 0,85,86
 153 466 153 466 199 348 c 0,87,88
 214 309 214 309 196 276 c 0,79,80
1094 505 m 0,89,90
 1075 512 1075 512 1066 533 c 0,91,92
 1057 552 1057 552 1064 572 c 0,93,94
 1070 590 1070 590 1094 601 c 0,95,96
 1117 612 1117 612 1136 601 c 0,97,98
 1176 578 1176 578 1155 532 c 0,99,100
 1135 487 1135 487 1094 505 c 0,89,90
1039 649 m 0,101,102
 1022 642 1022 642 1005 657 c 0,103,104
 989 672 989 672 1003 694 c 0,105,106
 1017 714 1017 714 1037 706 c 0,107,108
 1058 697 1058 697 1058 677 c 0,109,110
 1057 656 1057 656 1039 649 c 0,101,102
EndSplineSet
Validated: 33
EndChar

StartChar: uF0004
Encoding: 983044 983044 321
Width: 1328
Flags: W
LayerCount: 2
Fore
SplineSet
209 -6 m 0,0,1
 218 -1 218 -1 229 16 c 128,-1,2
 240 33 240 33 246 49 c 128,-1,3
 252 65 252 65 248 66 c 0,4,5
 243 68 243 68 233 76 c 2,6,-1
 222 85 l 1,7,-1
 214 78 l 2,8,9
 213 77 213 77 202 66 c 0,10,11
 172 31 172 31 130 13 c 2,12,-1
 116 7 l 1,13,-1
 116 -4 l 2,14,15
 116 -19 116 -19 106 -26 c 128,-1,16
 96 -33 96 -33 88 -28.5 c 128,-1,17
 80 -24 80 -24 73 -28 c 128,-1,18
 66 -32 66 -32 59 -21 c 0,19,20
 52 -11 52 -11 57 -5 c 0,21,22
 62 2 62 2 59 13 c 0,23,24
 57 24 57 24 64 32 c 0,25,26
 71 42 71 42 84 40 c 2,27,-1
 92 39 l 1,28,-1
 95 46 l 2,29,30
 110 81 110 81 159 134 c 2,31,-1
 170 146 l 1,32,-1
 160 160 l 2,33,34
 145 182 145 182 131 215 c 0,35,36
 126 227 126 227 92 255 c 0,37,38
 59 283 59 283 56 288 c 0,39,40
 55 290 55 290 65.5 303 c 128,-1,41
 76 316 76 316 80 315 c 0,42,43
 84 315 84 315 95 300 c 0,44,45
 111 280 111 280 124 265 c 2,46,-1
 141 244 l 1,47,-1
 147 245 l 2,48,49
 154 246 154 246 155 244 c 0,50,51
 157 241 157 241 165 247 c 0,52,53
 196 271 196 271 224 259 c 0,54,55
 229 257 229 257 240 255 c 128,-1,56
 251 253 251 253 252 254 c 0,57,58
 255 256 255 256 337 336 c 0,59,60
 568 562 568 562 568 562 c 0,61,62
 624 614 624 614 795 788 c 0,63,64
 868 861 868 861 868 861 c 0,65,66
 901 895 901 895 939 896 c 1,67,68
 941 867 941 867 915 830 c 0,69,70
 905 815 905 815 879 786 c 0,71,72
 797 696 797 696 797 696 c 0,73,74
 792 690 792 690 528 425 c 0,75,76
 336 231 336 231 336 231 c 2,77,-1
 308 199 l 1,78,-1
 309 190 l 2,79,80
 310 184 310 184 307 181 c 0,81,82
 305 179 305 179 310 167 c 0,83,84
 326 132 326 132 306 88 c 0,85,86
 299 72 299 72 301 70 c 0,87,88
 303 67 303 67 300 64 c 0,89,90
 297 59 297 59 330 27 c 0,91,92
 364 -5 364 -5 365 -9 c 0,93,94
 365 -13 365 -13 354 -25 c 0,95,96
 342 -38 342 -38 340 -36 c 0,97,98
 340 -36 340 -36 308 8 c 0,99,100
 278 50 278 50 271 51 c 0,101,102
 267 51 267 51 263 38 c 0,103,104
 251 -6 251 -6 223 -25 c 128,-1,105
 195 -44 195 -44 164 -35 c 0,106,107
 144 -29 144 -29 141 -26 c 0,108,109
 135 -21 135 -21 137 -12 c 0,110,111
 141 3 141 3 162 -10 c 0,112,113
 182 -22 182 -22 209 -6 c 0,0,1
531 374 m 0,114,115
 555 399 555 399 555 399 c 2,116,-1
 577 423 l 1,117,-1
 592 408 l 2,118,119
 655 341 655 341 677 317 c 0,120,121
 754 233 754 233 757 234 c 0,122,123
 766 237 766 237 769 235 c 0,124,125
 774 231 774 231 785 239 c 0,126,127
 814 264 814 264 851 232 c 0,128,129
 858 226 858 226 860 229 c 0,130,131
 862 231 862 231 868 230 c 2,132,-1
 874 229 l 1,133,-1
 892 250 l 2,134,135
 907 269 907 269 920 285 c 0,136,137
 932 300 932 300 936 300 c 0,138,139
 941 300 941 300 950 288 c 0,140,141
 960 274 960 274 960 273 c 0,142,143
 958 269 958 269 923 240 c 0,144,145
 887 209 887 209 884 200 c 0,146,147
 867 161 867 161 857 147 c 2,148,-1
 847 133 l 1,149,-1
 859 121 l 2,150,151
 905 71 905 71 922 33 c 2,152,-1
 925 26 l 1,153,-1
 934 27 l 2,154,155
 948 28 948 28 953 19 c 0,156,157
 960 8 960 8 958 -0 c 0,158,159
 955 -10 955 -10 960 -18 c 0,160,161
 965 -24 965 -24 958 -34 c 0,162,163
 951 -45 951 -45 944 -41 c 128,-1,164
 937 -37 937 -37 929 -41 c 0,165,166
 920 -47 920 -47 911 -39 c 0,167,168
 901 -32 901 -32 901 -17 c 2,169,-1
 901 -6 l 1,170,-1
 888 -0 l 2,171,172
 844 19 844 19 815 53 c 0,173,174
 810 59 810 59 803 65 c 2,175,-1
 795 72 l 1,176,-1
 784 63 l 2,177,178
 773 54 773 54 769 53 c 0,179,180
 766 52 766 52 771 36 c 0,181,182
 777 19 777 19 788 3 c 0,183,184
 801 -15 801 -15 808 -19 c 0,185,186
 832 -35 832 -35 855 -22 c 0,187,188
 877 -9 877 -9 879 -24 c 0,189,190
 880 -34 880 -34 875 -38 c 0,191,192
 861 -46 861 -46 854 -48 c 0,193,194
 825 -55 825 -55 794 -38 c 0,195,196
 772 -25 772 -25 754 25 c 0,197,198
 748 41 748 41 741 35 c 0,199,200
 732 28 732 28 706 -10 c 128,-1,201
 680 -48 680 -48 678 -48 c 0,202,203
 672 -49 672 -49 664 -38 c 0,204,205
 653 -22 653 -22 653 -22 c 0,206,207
 642 -3 642 -3 642 -3 c 0,208,209
 695 60 695 60 718 50 c 0,210,211
 716 51 716 51 716 57 c 0,212,213
 716 65 716 65 711 75 c 0,214,215
 688 116 688 116 703 152 c 0,216,217
 707 163 707 163 706 166 c 0,218,219
 704 169 704 169 705 176 c 2,220,-1
 706 184 l 1,221,-1
 615 282 l 2,222,223
 530 373 530 373 531 374 c 0,114,115
409 496 m 0,224,225
 399 505 399 505 400 509 c 0,226,227
 407 524 407 524 437 548 c 0,228,229
 448 557 448 557 457 546 c 2,230,-1
 483 517 l 1,231,-1
 451 485 l 2,232,233
 436 470 436 470 433 473 c 0,234,235
 428 478 428 478 409 496 c 0,224,225
374 541 m 0,236,237
 368 540 368 540 353 557 c 0,238,239
 353 557 353 557 302 614 c 0,240,241
 200 725 200 725 187 738 c 0,242,243
 154 771 154 771 128 802 c 0,244,245
 105 829 105 829 93 846 c 0,246,247
 63 887 63 887 73 918 c 1,248,249
 104 916 104 916 126 896 c 0,250,251
 174 853 174 853 192 831 c 0,252,253
 205 815 205 815 261 754 c 0,254,255
 311 701 311 701 349 660 c 0,256,257
 379 627 379 627 398 608 c 0,258,259
 413 593 413 593 415 590 c 0,260,261
 420 581 420 581 414 576 c 0,262,263
 395 559 395 559 385 547 c 0,264,265
 381 542 381 542 374 541 c 0,236,237
EndSplineSet
Validated: 1057
EndChar

StartChar: uF0005
Encoding: 983045 983045 322
Width: 1543
Flags: W
LayerCount: 2
Fore
SplineSet
142 -48 m 0,0,1
 74 -19 74 -19 57 54 c 0,2,3
 41 127 41 127 79 148 c 0,4,5
 99 159 99 159 134 147 c 1,6,7
 224 263 224 263 313 378 c 1,8,9
 309 385 309 385 305 392 c 0,10,11
 268 459 268 459 270 510 c 0,12,13
 271 572 271 572 307 576 c 0,14,15
 341 580 341 580 356 533 c 0,16,17
 370 490 370 490 376 479 c 0,18,19
 380 472 380 472 396 437 c 1,20,21
 388 479 388 479 390 485 c 0,22,23
 391 491 391 491 405 509 c 0,24,25
 419 528 419 528 480 622 c 0,26,27
 543 716 543 716 545 716 c 128,-1,28
 547 716 547 716 560 637 c 0,29,30
 572 558 572 558 579 544 c 1,31,-1
 583 566 l 1,32,33
 668 553 668 553 693 549 c 1,34,35
 693 549 693 549 695 501 c 1,36,-1
 662 502 l 17,37,38
 663 501 663 501 747 477 c 0,39,40
 792 464 792 464 792 460 c 0,41,42
 792 451 792 451 736 412 c 0,43,44
 581 303 581 303 569 293 c 0,45,46
 559 286 559 286 535 297 c 1,47,48
 537 291 537 291 555 273 c 0,49,50
 572 255 572 255 605 237 c 128,-1,51
 638 219 638 219 638 189 c 128,-1,52
 638 159 638 159 610 150 c 128,-1,53
 582 141 582 141 542 155 c 128,-1,54
 502 169 502 169 473 200 c 2,55,-1
 459 215 l 1,56,57
 339 119 339 119 224 28 c 1,58,59
 223 -29 223 -29 199 -47 c 0,60,61
 176 -63 176 -63 142 -48 c 0,0,1
884 426 m 1,62,63
 792 590 792 590 750 664 c 1,64,65
 750 664 750 664 798 786 c 1,66,67
 804 783 804 783 828 772 c 1,68,-1
 832 756 l 1,69,-1
 834 750 l 1,70,-1
 847 775 l 1,71,-1
 852 788 l 0,72,73
 951 667 951 667 1031 596 c 1,74,75
 975 721 975 721 872 837 c 0,76,77
 868 842 868 842 871 859 c 2,78,-1
 879 895 l 1,79,80
 956 901 956 901 1026 907 c 1,81,82
 1212 738 1212 738 1213 736 c 0,83,84
 1215 732 1215 732 1184 586 c 128,-1,85
 1153 440 1153 440 1146 421 c 1,86,-1
 884 426 l 1,62,63
EndSplineSet
Validated: 33
EndChar

StartChar: uF0006
Encoding: 983046 983046 323
Width: 1498
Flags: W
LayerCount: 2
Fore
SplineSet
465 -52 m 0,0,1
 387 -50 387 -50 382 32 c 1,2,-1
 381 139 l 1,3,-1
 380 245 l 1,4,-1
 272 246 l 1,5,-1
 164 247 l 1,6,7
 76 245 76 245 78 333 c 1,8,-1
 78 441 l 1,9,-1
 78 550 l 1,10,11
 80 638 80 638 165 636 c 1,12,-1
 272 637 l 1,13,-1
 380 637 l 1,14,-1
 381 714 l 1,15,-1
 382 746 l 1,16,-1
 460 665 l 17,17,18
 464 698 464 698 450 723 c 0,19,20
 439 744 439 744 432 752 c 2,21,-1
 380 812 l 1,22,23
 379 814 379 814 382 853 c 0,24,25
 385 934 385 934 467 939 c 25,26,-1
 576 939 l 1,27,-1
 685 939 l 0,28,29
 766 939 766 939 771 853 c 24,30,-1
 772 745 l 1,31,-1
 772 637 l 1,32,-1
 879 637 l 1,33,-1
 986 636 l 1,34,35
 1088 644 1088 644 1071 550 c 1,36,-1
 1071 441 l 1,37,-1
 1071 333 l 1,38,39
 1077 240 1077 240 986 247 c 1,40,-1
 879 246 l 1,41,-1
 772 245 l 1,42,43
 771 221 771 221 771 195 c 1,44,-1
 732 222 l 2,45,46
 670 264 670 264 670 253 c 0,47,48
 670 235 670 235 736 172 c 2,49,-1
 771 138 l 1,50,-1
 771 113 l 1,51,-1
 768 92 l 1,52,53
 766 97 766 97 739 109 c 0,54,55
 714 121 714 121 707 117 c 0,56,57
 700 114 700 114 773 33 c 1,58,59
 769 -52 769 -52 685 -54 c 1,60,61
 591 -55 591 -55 465 -52 c 0,0,1
EndSplineSet
Validated: 33
EndChar

